<?xml version="1.0" standalone="no"?>
<!DOCTYPE svg PUBLIC "-//W3C//DTD SVG 1.1//EN" "http://www.w3.org/Graphics/SVG/1.1/DTD/svg11.dtd" >
<svg xmlns="http://www.w3.org/2000/svg" xmlns:xlink="http://www.w3.org/1999/xlink" version="1.1">
<metadata>
Created by FontForge 20170731 at Mon Feb  5 21:40:11 2018
 By Aleksey,,,
copyright missing
</metadata>
<defs>
<font id="IndusHtest-test" horiz-adv-x="600" >
  <font-face 
    font-family="IndusHtest test"
    font-weight="400"
    font-stretch="normal"
    units-per-em="1000"
    panose-1="0 0 5 0 0 0 0 0 0 0"
    ascent="800"
    descent="-200"
    x-height="517"
    cap-height="700"
    bbox="-64 -204 1647 744"
    underline-thickness="50"
    underline-position="-200"
    unicode-range="U+0020-FB02"
  />
<missing-glyph horiz-adv-x="460" 
d="M377 730v-920h-291v920h291zM306 668h-151v-30h59v-34h-60v-30h152v30h-60v34h60v30zM246 550h-92v-96h152v31h-60v65zM214 518v-33h-30v33h30zM306 429h-152v-30h60v-34h-60v-31h92v65h60v30zM306 374h-30v-61h-122v-31h152v92zM306 262h-92v-52h32v21h30v-43h-92v74
h-30v-104h152v104zM306 103h-152v-104h152v104zM276 72v-43h-92v43h92zM306 -23h-152v-30h64l-64 -43v-31h152v31h-93l64 43h29v30z" />
    <glyph glyph-name=".notdef" horiz-adv-x="460" 
d="M377 730v-920h-291v920h291zM306 668h-151v-30h59v-34h-60v-30h152v30h-60v34h60v30zM246 550h-92v-96h152v31h-60v65zM214 518v-33h-30v33h30zM306 429h-152v-30h60v-34h-60v-31h92v65h60v30zM306 374h-30v-61h-122v-31h152v92zM306 262h-92v-52h32v21h30v-43h-92v74
h-30v-104h152v104zM306 103h-152v-104h152v104zM276 72v-43h-92v43h92zM306 -23h-152v-30h64l-64 -43v-31h152v31h-93l64 43h29v30z" />
    <glyph glyph-name=".null" horiz-adv-x="0" 
 />
    <glyph glyph-name="nonmarkingreturn" horiz-adv-x="333" 
 />
    <glyph glyph-name="space" unicode=" " horiz-adv-x="341" 
 />
    <glyph glyph-name="exclam" unicode="!" horiz-adv-x="341" 
d="M262 257h-183l-26 258v185h235v-185zM68 166h204v-166h-204v166z" />
    <glyph glyph-name="quotedbl" unicode="&#x22;" 
 />
    <glyph glyph-name="dollar" unicode="$" 
 />
    <glyph glyph-name="quotesingle" unicode="'" 
 />
    <glyph glyph-name="parenleft" unicode="(" 
 />
    <glyph glyph-name="parenright" unicode=")" 
 />
    <glyph glyph-name="comma" unicode="," horiz-adv-x="341" 
d="M195 -184h-141l63 184h-62v183h231v-163z" />
    <glyph glyph-name="hyphen" unicode="-" horiz-adv-x="341" 
d="M331 184h-321v170h321v-170z" />
    <glyph glyph-name="period" unicode="." horiz-adv-x="341" 
d="M58 183h225v-183h-225v183z" />
    <glyph glyph-name="slash" unicode="/" 
 />
    <glyph glyph-name="zero" unicode="0" horiz-adv-x="1017" 
d="M981 350q0 -166 -131.5 -265t-340.5 -99t-341 99t-132 265t132 265.5t341 99.5t340.5 -99.5t131.5 -265.5zM736 350q0 69 -61.5 114t-165.5 45q-105 0 -166.5 -45t-61.5 -114t61.5 -113.5t166.5 -44.5q104 0 165.5 44.5t61.5 113.5z" />
    <glyph glyph-name="one" unicode="1" horiz-adv-x="619" 
d="M522 0h-235v436h-4q-28 -39 -79 -80t-101 -66l-98 189q74 38 154 102t121 119h242v-700z" />
    <glyph glyph-name="two" unicode="2" horiz-adv-x="881" 
d="M525 181l333 -1v-182l-810 2v167h1l1 1h1l1 1h1h1l1 1h1l1 1h1h1l1 1h1l1 1h1h1l1 1h1l1 1h1h1l1 1h1l1 1h1h1l1 1h1l1 1h1h2l1 1h1l1 1h1h1l1 1h1l1 1h1h1l1 1h1l1 1q312 122 388 163q89 49 89 91q0 40 -42 60.5t-108 20.5q-149 0 -224 -108l-190 123q129 179 423 179
q81 0 149.5 -15t122.5 -46.5t84.5 -84.5t30.5 -124q0 -92 -77 -154t-214 -109z" />
    <glyph glyph-name="three" unicode="3" horiz-adv-x="890" 
d="M858 188q0 -63 -38.5 -106t-136 -69.5t-252.5 -26.5q-295 0 -439 127l153 139q85 -82 291 -82q92 0 134 13t42 41q0 48 -89 48h-259v161h260q76 0 76 44q0 28 -39 40.5t-133 12.5q-182 0 -269 -73l-153 139q145 118 417 118q200 0 307.5 -52.5t107.5 -149.5
q0 -59 -37 -101t-105 -55v-4q77 -10 119.5 -56t42.5 -108z" />
    <glyph glyph-name="four" unicode="4" horiz-adv-x="979" 
d="M955 304v-182h-168v-122h-235v122h-516v167l438 411h313v-396h168zM324 304h228v212h-4z" />
    <glyph glyph-name="five" unicode="5" horiz-adv-x="898" 
d="M520 442q111 0 184.5 -18.5t117.5 -67.5t44 -129q0 -241 -427 -241q-295 0 -439 127l153 139q83 -82 291 -82q91 0 133.5 14.5t42.5 46.5q0 61 -169 61q-103 0 -191 -34h-199v442h33q119 -17 362.5 -16.5t355.5 17.5v-192q-257 -30 -526 1v-104q89 36 234 36z" />
    <glyph glyph-name="six" unicode="6" horiz-adv-x="966" 
d="M542 451q192 0 298 -62.5t106 -170.5q0 -110 -109 -171t-317 -61q-225 0 -354.5 89t-129.5 256q0 180 135.5 281.5t359.5 101.5q233 0 373 -98l-142 -147q-98 70 -236 70q-91 0 -151.5 -35.5t-82.5 -101.5h1q99 49 249 49zM520 161q84 0 132.5 15t48.5 42t-43.5 42.5
t-125.5 15.5q-145 0 -229 -33q48 -82 217 -82z" />
    <glyph glyph-name="seven" unicode="7" horiz-adv-x="714" 
d="M0 700h715v-200q-252 -270 -282 -500h-257q36 239 269 485h-445v215z" />
    <glyph glyph-name="eight" unicode="8" horiz-adv-x="917" 
d="M712 424q169 -52 169 -196q0 -128 -104.5 -185t-321.5 -57q-191 0 -305 43t-114 129q0 51 40.5 83.5t118.5 54.5q-126 54 -126 176q0 121 101 181.5t274 60.5q187 0 295.5 -43.5t108.5 -126.5q0 -43 -31.5 -70.5t-104.5 -49.5zM444 532q-129 0 -129 -33q0 -11 11.5 -18
t37.5 -11t50 -6t67.5 -5t71.5 -6q59 16 59 37q0 42 -168 42zM455 168q180 0 180 40q0 19 -36 27t-121.5 13t-131.5 11q-74 -19 -74 -47q0 -44 183 -44z" />
    <glyph glyph-name="nine" unicode="9" horiz-adv-x="966" 
d="M446 714q225 0 354.5 -89t129.5 -256q0 -180 -135.5 -281.5t-359.5 -101.5q-233 0 -373 98l142 147q98 -70 236 -70q91 0 151.5 35.5t82.5 101.5h-1q-99 -49 -249 -49q-192 0 -298 62.5t-106 170.5q0 110 109 171t317 61zM265 482q0 -27 43.5 -42.5t125.5 -15.5
q145 0 229 33q-48 82 -217 82q-84 0 -132.5 -15t-48.5 -42z" />
    <glyph glyph-name="colon" unicode=":" horiz-adv-x="341" 
d="M58 517h225v-183h-225v183zM58 183h225v-183h-225v183z" />
    <glyph glyph-name="semicolon" unicode=";" horiz-adv-x="341" 
d="M58 517h225v-183h-225v183zM195 -184h-141l63 184h-62v183h231v-163z" />
    <glyph glyph-name="question" unicode="?" horiz-adv-x="708" 
d="M708 484q0 -126 -228 -227h-252q74 41 115 66t77.5 58.5t36.5 59.5q1 34 -35.5 50.5t-94.5 16.5q-129 0 -190 -91l-182 118q126 179 385 179q163 0 265.5 -61.5t102.5 -168.5zM246 166h204v-166h-204v166z" />
    <glyph glyph-name="at" unicode="@" horiz-adv-x="1177" 
d="M703 483h178v-190q0 -25 11 -41.5t33 -16.5q27 0 45 27t18 79q0 204 -379 204q-197 0 -301 -61t-104 -182q0 -125 110.5 -185t334.5 -60q161 0 293 28l26 -126q-139 -22 -319 -22q-186 0 -321 38t-213.5 121t-78.5 206q0 176 157.5 269.5t421.5 93.5q257 0 391.5 -90
t134.5 -234q0 -115 -70 -174.5t-173 -59.5q-95 0 -145 51h-4q-76 -57 -204 -57q-119 0 -193 54t-74 143t74 142.5t193 53.5q96 0 155 -39h3v28zM464 298q0 -30 30.5 -46.5t84.5 -16.5q86 0 123 29v66q-36 30 -123 30q-53 0 -84 -16.5t-31 -45.5z" />
    <glyph glyph-name="A" unicode="A" horiz-adv-x="1061" 
d="M771 0l-55 112h-372l-54 -112h-270l353 700h313l355 -700h-270zM435 299h190l-93 192h-4z" />
    <glyph glyph-name="B" unicode="B" horiz-adv-x="977" 
d="M756 352q87 -10 134 -56t47 -108q0 -188 -309 -188h-531v700h524q296 0 296 -188q0 -60 -41 -101.5t-120 -54.5v-4zM593 530h-261v-97h261q78 0 78 49q0 48 -78 48zM612 170q79 0 79 51t-79 51h-280v-102h280z" />
    <glyph glyph-name="C" unicode="C" horiz-adv-x="926" 
d="M282 350q0 -66 57.5 -107.5t143.5 -41.5q151 0 217 97l206 -133q-129 -179 -423 -179q-193 0 -320 99t-127 265t127 265t320 99q294 0 423 -179l-206 -133q-66 97 -217 97q-86 0 -143.5 -41.5t-57.5 -107.5z" />
    <glyph glyph-name="D" unicode="D" horiz-adv-x="992" 
d="M485 700q230 0 350.5 -92t120.5 -258q0 -162 -121.5 -256t-349.5 -94h-388v700h388zM475 203q119 0 177.5 39t58.5 108q0 147 -236 147h-143v-294h143z" />
    <glyph glyph-name="E" unicode="E" horiz-adv-x="864" 
d="M332 187h471v-187h-706v700h686v-187h-451v-65h318v-187h-318v-74z" />
    <glyph glyph-name="F" unicode="F" horiz-adv-x="817" 
d="M798 492h-466v-74h333v-207h-333v-211h-235v700h701v-208z" />
    <glyph glyph-name="G" unicode="G" horiz-adv-x="1025" 
d="M971 424v-64q0 -174 -124 -274t-337 -100q-208 0 -341 99t-133 260q0 174 135.5 271.5t359.5 97.5q274 0 395 -118l-166 -148q-70 71 -234 71q-117 0 -180.5 -46.5t-63.5 -136.5q0 -80 62.5 -125.5t165.5 -45.5q147 0 201 82h-198v177h458z" />
    <glyph glyph-name="H" unicode="H" horiz-adv-x="1049" 
d="M717 700h235v-700h-235v248h-385v-248h-235v700h235v-238h385v238z" />
    <glyph glyph-name="I" unicode="I" horiz-adv-x="430" 
d="M332 0h-235v700h235v-700z" />
    <glyph glyph-name="J" unicode="J" horiz-adv-x="537" 
d="M40 -8l1 206q26 -6 64 -6q64 0 87 17.5t23 64.5v426h235v-475q0 -131 -73 -185t-246 -54q-52 0 -91 6z" />
    <glyph glyph-name="K" unicode="K" horiz-adv-x="966" 
d="M654 0l-225 256l-97 -91v-165h-235v700h235v-279l291 279h333l-332 -310l342 -390h-312z" />
    <glyph glyph-name="L" unicode="L" horiz-adv-x="777" 
d="M332 208h426v-208h-661v700h235v-492z" />
    <glyph glyph-name="M" unicode="M" horiz-adv-x="1288" 
d="M1190 700v-700h-235v352h-4l-202 -352h-210l-203 352h-4v-352h-235v700h298l247 -438h4l246 438h298z" />
    <glyph glyph-name="N" unicode="N" horiz-adv-x="1049" 
d="M717 700h234v-700h-273l-342 382h-4v-382h-235v700h274l342 -396h4v396z" />
    <glyph glyph-name="O" unicode="O" horiz-adv-x="1049" 
d="M1013 350q0 -167 -134.5 -265.5t-353.5 -98.5q-220 0 -354.5 98.5t-134.5 265.5t134.5 266t354.5 99q219 0 353.5 -99t134.5 -266zM768 350q0 70 -64 114.5t-179 44.5t-179.5 -44.5t-64.5 -114.5t64.5 -114t179.5 -44t179 44t64 114z" />
    <glyph glyph-name="P" unicode="P" horiz-adv-x="936" 
d="M585 700q162 0 246.5 -69.5t84.5 -196.5q0 -128 -84.5 -198t-246.5 -70h-253v-166h-235v700h488zM586 369q85 0 85 65q0 63 -85 63h-254v-128h254z" />
    <glyph glyph-name="Q" unicode="Q" horiz-adv-x="1049" 
d="M1013 350q0 -115 -66 -199l66 -54l-128 -144l-98 80q-112 -47 -262 -47q-220 0 -354.5 98.5t-134.5 265.5t134.5 266t354.5 99q219 0 353.5 -99t134.5 -266zM535 182q37 0 64 4l-75 61l129 144l117 -96q8 22 8 45q0 76 -68 122.5t-185 46.5q-115 0 -179.5 -44.5
t-64.5 -114.5q0 -75 68.5 -121.5t185.5 -46.5z" />
    <glyph glyph-name="R" unicode="R" horiz-adv-x="942" 
d="M630 0l-171 196h-127v-196h-235v700h473q164 0 250.5 -63.5t86.5 -187.5q0 -182 -181 -234l196 -215h-292zM332 513v-129h239q90 0 90 64q0 65 -90 65h-239z" />
    <glyph glyph-name="S" unicode="S" horiz-adv-x="862" 
d="M831 228q0 -242 -416 -242q-244 0 -384 98l147 152q97 -68 256 -68q151 0 151 40q0 17 -39 24.5t-97.5 8.5t-127 12t-127 30.5t-97.5 68t-39 120.5q0 121 108 181.5t292 60.5q234 0 372 -98l-146 -151q-94 67 -247 67q-133 0 -133 -33q0 -16 29 -24t75.5 -10.5t103 -6.5
t112.5 -16.5t102.5 -35t75.5 -68t29 -110.5z" />
    <glyph glyph-name="T" unicode="T" horiz-adv-x="849" 
d="M813 700v-208h-271v-492h-235v492h-272v208h778z" />
    <glyph glyph-name="U" unicode="U" horiz-adv-x="1039" 
d="M947 360q0 -374 -427 -374q-203 0 -315.5 91.5t-112.5 282.5v340h235v-332q0 -91 50 -136t143 -45q97 0 144.5 44t47.5 137v332h235v-340z" />
    <glyph glyph-name="V" unicode="V" horiz-adv-x="1041" 
d="M676 0h-313l-343 700h270l228 -474h4l229 474h270z" />
    <glyph glyph-name="W" unicode="W" horiz-adv-x="1694" 
d="M1377 700h270l-289 -700h-313l-195 454h-4l-198 -454h-313l-288 700h270l173 -454h4l197 454h313l195 -454h4z" />
    <glyph glyph-name="X" unicode="X" horiz-adv-x="926" 
d="M916 0h-303l-161 205l-163 -205h-279l282 354l-282 346h301l162 -198l156 198h280l-276 -346z" />
    <glyph glyph-name="Y" unicode="Y" horiz-adv-x="926" 
d="M916 700l-335 -444v-256h-235v255l-336 445h295l167 -227h4l165 227h275z" />
    <glyph glyph-name="Z" unicode="Z" horiz-adv-x="826" 
d="M781 0h-735l-1 193l354 299h-347v208h722v-193l-355 -299h362v-208z" />
    <glyph glyph-name="bracketleft" unicode="[" 
 />
    <glyph glyph-name="bracketright" unicode="]" 
 />
    <glyph glyph-name="underscore" unicode="_" horiz-adv-x="683" 
d="M673 -190h-663v170h663v-170z" />
    <glyph glyph-name="grave" unicode="`" 
 />
    <glyph glyph-name="a" unicode="a" horiz-adv-x="735" 
d="M680 127q0 -51 3.5 -74t17.5 -46v-7h-229q-2 6 -8 17.5t-8 17.5h-4q-71 -49 -193 -49q-102 0 -172 45.5t-70 129.5q0 80 67.5 115.5t204.5 45.5q93 7 166 8v7q0 23 -35.5 36t-90.5 13q-110 0 -175 -52l-97 120q94 77 292 77q164 0 247.5 -60t83.5 -199v-145zM318 122
q79 0 137 37v42q-82 -2 -145 -7q-43 -3 -61.5 -11t-18.5 -25q0 -36 88 -36z" />
    <glyph glyph-name="b" unicode="b" horiz-adv-x="817" 
d="M473 531q133 0 223.5 -73t90.5 -200q0 -126 -90.5 -199t-223.5 -73q-119 0 -185 49h-4v-35h-224v730h225v-248h3q66 49 185 49zM413 161q57 0 98 26t41 71q0 46 -41 72t-98 26q-81 0 -128 -38v-119q47 -38 128 -38z" />
    <glyph glyph-name="c" unicode="c" horiz-adv-x="691" 
d="M265 259q0 -43 40 -68t101 -25q90 0 139 48l158 -124q-105 -104 -305 -104q-164 0 -266 73.5t-102 199.5q0 125 102 198.5t266 73.5q200 0 305 -104l-158 -124q-49 48 -139 48q-61 0 -101 -25t-40 -67z" />
    <glyph glyph-name="d" unicode="d" horiz-adv-x="817" 
d="M532 730h224v-730h-223v35h-4q-68 -49 -185 -49q-133 0 -223.5 73t-90.5 199q0 127 90.5 200t223.5 73q117 0 185 -49h3v248zM404 161q79 0 128 38v119q-49 38 -128 38q-57 0 -98 -26t-41 -72q0 -45 41 -71t98 -26z" />
    <glyph glyph-name="e" unicode="e" horiz-adv-x="773" 
d="M406 136q125 0 184 60l141 -110q-97 -100 -320 -100q-172 0 -276.5 73.5t-104.5 199.5q0 124 98.5 198t246.5 74q170 0 266.5 -82t97.5 -245h-497q33 -68 164 -68zM375 401q-104 0 -134 -72h264q-25 72 -130 72z" />
    <glyph glyph-name="f" unicode="f" horiz-adv-x="516" 
d="M444 579q-54 0 -76 -15t-22 -47h155v-170h-155v-347h-225v347h-96v170h96v10q0 115 77 166t233 51q49 0 88 -3v-165q-39 3 -75 3z" />
    <glyph glyph-name="g" unicode="g" horiz-adv-x="807" 
d="M523 517h223v-410q0 -87 -27 -148.5t-78.5 -96.5t-117 -50.5t-150.5 -15.5q-153 0 -244 63l84 124q61 -42 152 -42q69 0 113 23.5t44 69.5v17h-3q-63 -45 -175 -45q-132 0 -223 72t-91 191q0 120 91 191t223 71q115 0 175 -44h4v30zM404 166q70 0 118 34v139
q-41 34 -118 34q-59 0 -99 -28t-40 -76q0 -47 40 -75t99 -28z" />
    <glyph glyph-name="h" unicode="h" horiz-adv-x="789" 
d="M472 531q125 0 193 -64t68 -196v-271h-224v239q0 58 -29.5 82.5t-84.5 24.5q-63 0 -110 -38v-308h-225v730h225v-248h3q81 49 184 49z" />
    <glyph glyph-name="i" unicode="i" horiz-adv-x="345" 
d="M60 731h225v-163h-225v163zM60 517h225v-517h-225v517z" />
    <glyph glyph-name="j" unicode="j" horiz-adv-x="345" 
d="M60 730h225v-163h-225v163zM262 -190h-229v7q18 29 22.5 54.5t4.5 75.5v570h225v-600q0 -78 -23 -107z" />
    <glyph glyph-name="k" unicode="k" horiz-adv-x="787" 
d="M493 0l-140 160l-68 -64v-96h-225v730h225v-397l189 184h298l-244 -228l254 -289h-289z" />
    <glyph glyph-name="l" unicode="l" horiz-adv-x="345" 
d="M285 137q0 -50 4.5 -75.5t22.5 -54.5v-7h-229q-23 29 -23 107v623h225v-593z" />
    <glyph glyph-name="m" unicode="m" horiz-adv-x="1217" 
d="M880 531q282 0 282 -260v-271h-225v239q0 58 -28 82.5t-81 24.5q-59 0 -106 -38q1 -12 1 -37v-271h-225v239q0 59 -27.5 83t-80.5 24q-59 0 -105 -37v-309h-225v517h224v-35h3q77 49 177 49q128 0 193 -64h2q94 64 221 64z" />
    <glyph glyph-name="n" unicode="n" horiz-adv-x="793" 
d="M476 531q124 0 192.5 -64t68.5 -196v-271h-224v239q0 58 -30 82.5t-86 24.5q-65 0 -112 -38v-308h-225v517h224v-35h4q83 49 188 49z" />
    <glyph glyph-name="o" unicode="o" horiz-adv-x="807" 
d="M777 258q0 -125 -103.5 -198.5t-269.5 -73.5q-168 0 -271 73.5t-103 198.5t103 199t271 74q166 0 269.5 -74t103.5 -199zM542 258q0 44 -38 71t-100 27q-64 0 -101.5 -27t-37.5 -71t38 -70.5t101 -26.5q62 0 100 26.5t38 70.5z" />
    <glyph glyph-name="p" unicode="p" horiz-adv-x="817" 
d="M473 531q133 0 223.5 -73t90.5 -199q0 -127 -90.5 -200t-223.5 -73q-119 0 -185 49h-3v-225h-225v707h224v-35h4q66 49 185 49zM413 161q57 0 98 26t41 72q0 45 -41 71t-98 26q-81 0 -128 -38v-119q47 -38 128 -38z" />
    <glyph glyph-name="q" unicode="q" horiz-adv-x="817" 
d="M533 517h223v-707h-224v225h-3q-68 -49 -185 -49q-133 0 -223.5 73t-90.5 200q0 126 90.5 199t223.5 73q117 0 185 -49h4v35zM404 161q79 0 128 38v119q-49 38 -128 38q-57 0 -98 -26t-41 -71q0 -46 41 -72t98 -26z" />
    <glyph glyph-name="r" unicode="r" horiz-adv-x="572" 
d="M490 531q28 0 51 -5v-198q-37 10 -80 10q-98 0 -176 -57v-281h-225v517h224v-72h4q73 86 202 86z" />
    <glyph glyph-name="s" unicode="s" horiz-adv-x="656" 
d="M623 174q0 -188 -320 -188q-187 0 -283 66l102 128q70 -54 181 -54q100 0 100 24q0 15 -38 20t-92 9.5t-107.5 16.5t-91.5 49.5t-38 98.5q0 92 79.5 139.5t221.5 47.5q191 0 286 -66l-102 -128q-71 54 -184 54q-81 0 -81 -21q0 -12 27 -18.5t68 -8t88.5 -10t88.5 -23
t68 -49.5t27 -87z" />
    <glyph glyph-name="t" unicode="t" horiz-adv-x="496" 
d="M471 347h-125v-210q0 -50 4.5 -75.5t22.5 -54.5v-7h-229q-23 29 -23 107v240h-96v170h96v133h225v-133h125v-170z" />
    <glyph glyph-name="u" unicode="u" horiz-adv-x="780" 
d="M509 517h224v-517h-222v35h-5q-83 -49 -184 -49q-125 0 -193.5 64t-68.5 196v271h225v-239q0 -59 29 -83t85 -24q59 0 110 38v308z" />
    <glyph glyph-name="v" unicode="v" horiz-adv-x="828" 
d="M566 0h-304l-257 517h255l152 -327h4l152 327h255z" />
    <glyph glyph-name="w" unicode="w" horiz-adv-x="1298" 
d="M1012 517h255l-209 -517h-303l-104 305h-4l-103 -305h-304l-209 517h255l104 -305h4l104 305h303l103 -305h4z" />
    <glyph glyph-name="x" unicode="x" horiz-adv-x="793" 
d="M783 0h-297l-101 117l-96 -117h-279l219 268l-219 249h297l98 -113l94 113h279l-217 -264z" />
    <glyph glyph-name="y" unicode="y" horiz-adv-x="824" 
d="M425 -190h-260v7q40 34 91 130l30 54l-285 516h255l156 -300h4l148 300h255l-323 -600q-43 -80 -71 -107z" />
    <glyph glyph-name="z" unicode="z" horiz-adv-x="648" 
d="M603 0h-557l-1 151l233 196h-228v170h548v-155l-230 -192h235v-170z" />
    <glyph glyph-name="braceleft" unicode="{" 
 />
    <glyph glyph-name="braceright" unicode="}" 
 />
    <glyph glyph-name="dieresis" unicode="&#xa8;" 
 />
    <glyph glyph-name="guillemotleft" unicode="&#xab;" 
 />
    <glyph glyph-name="acute" unicode="&#xb4;" 
 />
    <glyph glyph-name="periodcentered" unicode="&#xb7;" 
 />
    <glyph glyph-name="cedilla" unicode="&#xb8;" 
 />
    <glyph glyph-name="guillemotright" unicode="&#xbb;" 
 />
    <glyph glyph-name="Agrave" unicode="&#xc0;" 
 />
    <glyph glyph-name="Aacute" unicode="&#xc1;" 
 />
    <glyph glyph-name="Acircumflex" unicode="&#xc2;" 
 />
    <glyph glyph-name="Adieresis" unicode="&#xc4;" 
 />
    <glyph glyph-name="AE" unicode="&#xc6;" 
 />
    <glyph glyph-name="Ccedilla" unicode="&#xc7;" 
 />
    <glyph glyph-name="Egrave" unicode="&#xc8;" 
 />
    <glyph glyph-name="Eacute" unicode="&#xc9;" 
 />
    <glyph glyph-name="Ecircumflex" unicode="&#xca;" 
 />
    <glyph glyph-name="Edieresis" unicode="&#xcb;" 
 />
    <glyph glyph-name="Igrave" unicode="&#xcc;" 
 />
    <glyph glyph-name="Iacute" unicode="&#xcd;" 
 />
    <glyph glyph-name="Icircumflex" unicode="&#xce;" 
 />
    <glyph glyph-name="Idieresis" unicode="&#xcf;" 
 />
    <glyph glyph-name="Ograve" unicode="&#xd2;" 
 />
    <glyph glyph-name="Oacute" unicode="&#xd3;" 
 />
    <glyph glyph-name="Ocircumflex" unicode="&#xd4;" 
 />
    <glyph glyph-name="Odieresis" unicode="&#xd6;" 
 />
    <glyph glyph-name="Ugrave" unicode="&#xd9;" 
 />
    <glyph glyph-name="Uacute" unicode="&#xda;" 
 />
    <glyph glyph-name="Ucircumflex" unicode="&#xdb;" 
 />
    <glyph glyph-name="Udieresis" unicode="&#xdc;" 
 />
    <glyph glyph-name="germandbls" unicode="&#xdf;" 
 />
    <glyph glyph-name="agrave" unicode="&#xe0;" 
 />
    <glyph glyph-name="aacute" unicode="&#xe1;" 
 />
    <glyph glyph-name="acircumflex" unicode="&#xe2;" 
 />
    <glyph glyph-name="adieresis" unicode="&#xe4;" 
 />
    <glyph glyph-name="ae" unicode="&#xe6;" 
 />
    <glyph glyph-name="ccedilla" unicode="&#xe7;" 
 />
    <glyph glyph-name="egrave" unicode="&#xe8;" 
 />
    <glyph glyph-name="eacute" unicode="&#xe9;" 
 />
    <glyph glyph-name="ecircumflex" unicode="&#xea;" 
 />
    <glyph glyph-name="edieresis" unicode="&#xeb;" 
 />
    <glyph glyph-name="igrave" unicode="&#xec;" 
 />
    <glyph glyph-name="iacute" unicode="&#xed;" 
 />
    <glyph glyph-name="icircumflex" unicode="&#xee;" 
 />
    <glyph glyph-name="idieresis" unicode="&#xef;" 
 />
    <glyph glyph-name="ograve" unicode="&#xf2;" 
 />
    <glyph glyph-name="oacute" unicode="&#xf3;" 
 />
    <glyph glyph-name="ocircumflex" unicode="&#xf4;" 
 />
    <glyph glyph-name="odieresis" unicode="&#xf6;" 
 />
    <glyph glyph-name="ugrave" unicode="&#xf9;" 
 />
    <glyph glyph-name="uacute" unicode="&#xfa;" 
 />
    <glyph glyph-name="ucircumflex" unicode="&#xfb;" 
 />
    <glyph glyph-name="udieresis" unicode="&#xfc;" 
 />
    <glyph glyph-name="Cacute" unicode="&#x106;" 
 />
    <glyph glyph-name="cacute" unicode="&#x107;" 
 />
    <glyph glyph-name="Ccircumflex" unicode="&#x108;" 
 />
    <glyph glyph-name="ccircumflex" unicode="&#x109;" 
 />
    <glyph glyph-name="Gcircumflex" unicode="&#x11c;" 
 />
    <glyph glyph-name="gcircumflex" unicode="&#x11d;" 
 />
    <glyph glyph-name="Hcircumflex" unicode="&#x124;" 
 />
    <glyph glyph-name="hcircumflex" unicode="&#x125;" 
 />
    <glyph glyph-name="IJ" unicode="&#x132;" horiz-adv-x="967" 
d="M332 0h-235v700h235v-700zM470 -8l1 206q25 -6 64 -6q64 0 87 17.5t23 64.5v426h235v-475q0 -131 -73 -185t-246 -54q-52 0 -91 6z" />
    <glyph glyph-name="ij" unicode="&#x133;" horiz-adv-x="690" 
d="M60 731h225v-163h-225v163zM405 730h225v-163h-225v163zM60 517h225v-517h-225v517zM607 -190h-229v7q18 29 22.5 54.5t4.5 75.5v570h225v-600q0 -78 -23 -107z" />
    <glyph glyph-name="Jcircumflex" unicode="&#x134;" 
 />
    <glyph glyph-name="jcircumflex" unicode="&#x135;" 
 />
    <glyph glyph-name="Lacute" unicode="&#x139;" 
 />
    <glyph glyph-name="lacute" unicode="&#x13a;" 
 />
    <glyph glyph-name="Nacute" unicode="&#x143;" 
 />
    <glyph glyph-name="nacute" unicode="&#x144;" 
 />
    <glyph glyph-name="OE" unicode="&#x152;" 
 />
    <glyph glyph-name="oe" unicode="&#x153;" 
 />
    <glyph glyph-name="Racute" unicode="&#x154;" 
 />
    <glyph glyph-name="racute" unicode="&#x155;" 
 />
    <glyph glyph-name="AEacute" unicode="&#x1fc;" 
 />
    <glyph glyph-name="aeacute" unicode="&#x1fd;" 
 />
    <glyph glyph-name="circumflex" unicode="&#x2c6;" 
 />
    <glyph glyph-name="endash" unicode="&#x2013;" horiz-adv-x="683" 
d="M673 184h-663v170h663v-170z" />
    <glyph glyph-name="emdash" unicode="&#x2014;" horiz-adv-x="1365" 
d="M1355 184h-1345v170h1345v-170z" />
    <glyph glyph-name="quoteleft" unicode="&#x2018;" horiz-adv-x="341" 
d="M139 708h141l-56 -165h61v-183h-229v163z" />
    <glyph glyph-name="quoteright" unicode="&#x2019;" horiz-adv-x="341" 
d="M202 352h-141l56 165h-61v183h229v-163z" />
    <glyph glyph-name="quotesinglbase" unicode="&#x201a;" 
d="M195 -184h-141l63 184h-62v183h231v-163z" />
    <glyph glyph-name="quotedblleft" unicode="&#x201c;" horiz-adv-x="626" 
d="M139 708h141l-56 -165h61v-183h-229v163zM424 708h141l-56 -165h61v-183h-229v163z" />
    <glyph glyph-name="quotedblright" unicode="&#x201d;" horiz-adv-x="626" 
d="M202 352h-141l56 165h-61v183h229v-163zM487 352h-141l56 165h-61v183h229v-163z" />
    <glyph glyph-name="quotedblbase" unicode="&#x201e;" 
d="M55 183h231v-163l-91 -204h-141l63 184h-62v183z" />
    <glyph glyph-name="ellipsis" unicode="&#x2026;" 
d="M58 183h225v-183h-225v183z" />
    <glyph glyph-name="guilsinglleft" unicode="&#x2039;" 
 />
    <glyph glyph-name="guilsinglright" unicode="&#x203a;" 
 />
    <glyph glyph-name="Euro" unicode="&#x20ac;" 
 />
    <glyph glyph-name="fi" unicode="&#xfb01;" horiz-adv-x="861" 
d="M121 527q0 115 77 166t233 51q49 0 88 -3v-165q-39 3 -75 3q-54 0 -76 -15t-22 -47h155v-170h-155v-347h-225v347h-96v170h96v10zM576 731h225v-163h-225v163zM576 0v517h225v-517h-225z" />
    <glyph glyph-name="fl" unicode="&#xfb02;" horiz-adv-x="861" 
d="M121 527q0 115 77 166t233 51q49 0 88 -3v-165q-39 3 -75 3q-54 0 -76 -15t-22 -47h155v-170h-155v-347h-225v347h-96v170h96v10zM801 137q0 -50 4.5 -75.5t22.5 -54.5v-7h-229q-23 29 -23 107v623h225v-593z" />
    <glyph glyph-name="G.ss02" horiz-adv-x="1025" 
d="M928 424v-424h-219v42h-4q-83 -56 -230 -56q-201 0 -320 98t-119 261q0 174 135.5 271.5t359.5 97.5q274 0 395 -118l-184 -154q-67 66 -221 66q-113 0 -176 -44.5t-63 -127.5q0 -81 65.5 -126t179.5 -45q117 0 181 40v37h-195v182h415z" />
    <glyph glyph-name="germandbls.cap" 
 />
    <glyph glyph-name="a.ss01" horiz-adv-x="806" 
d="M751 127q0 -51 3.5 -74t17.5 -46v-7h-228q-10 20 -15 35h-5q-74 -49 -195 -49q-123 0 -211 73.5t-88 199.5q0 125 88 198.5t211 73.5q120 0 195 -49h4v35h223v-390zM398 161q80 0 129 38v119q-49 38 -129 38q-53 0 -93 -26t-40 -71t40 -71.5t93 -26.5z" />
    <glyph glyph-name="y.ss01" horiz-adv-x="828" 
d="M568 517h255l-297 -517v-190h-224v190l-297 517h255l152 -296h4z" />
    <glyph glyph-name="j.ss02" horiz-adv-x="345" 
d="M60 730h225v-163h-225v163zM-64 -198l1 163q17 -4 43 -4q44 0 62 18.5t18 64.5v473h225v-483q0 -126 -68.5 -182t-202.5 -56q-42 0 -78 6z" />
    <glyph glyph-name="t.ss02" horiz-adv-x="560" 
d="M432 161q40 0 72 3v-175q-39 -3 -94 -3q-145 0 -217 55t-72 194v112h-96v170h96v133h225v-133h155v-170h-155v-102q0 -43 20 -63.5t66 -20.5z" />
    <glyph glyph-name="y.ss03" horiz-adv-x="780" 
d="M509 517h224v-413q0 -308 -379 -308q-122 0 -210 31l50 147q70 -28 150 -28q72 0 118.5 23.5t46.5 69.5v10h-3q-83 -49 -184 -49q-125 0 -193.5 64t-68.5 196v257h225v-225q0 -59 29 -83t85 -24q59 0 110 38v294z" />
    <glyph glyph-name="f_f" horiz-adv-x="1032" 
d="M121 527q0 115 77 166t233 51q49 0 88 -3v-165q-39 3 -75 3q-54 0 -76 -15t-22 -47h155v-170h-155v-347h-225v347h-96v170h96v10zM960 579q-54 0 -76 -15t-22 -47h155v-170h-155v-347h-225v347h-96v170h96v10q0 115 77 166t233 51q49 0 88 -3v-165q-39 3 -75 3z" />
    <glyph glyph-name="f_f_i" horiz-adv-x="1377" 
d="M121 527q0 115 77 166t233 51q49 0 88 -3v-165q-39 3 -75 3q-54 0 -76 -15t-22 -47h155v-170h-155v-347h-225v347h-96v170h96v10zM637 527q0 115 77 166t233 51q49 0 88 -3v-165q-39 3 -75 3q-54 0 -76 -15t-22 -47h155v-170h-155v-347h-225v347h-96v170h96v10zM1092 731
h225v-163h-225v163zM1092 0v517h225v-517h-225z" />
    <glyph glyph-name="f_f_l" horiz-adv-x="1377" 
d="M121 527q0 115 77 166t233 51q49 0 88 -3v-165q-39 3 -75 3q-54 0 -76 -15t-22 -47h155v-170h-155v-347h-225v347h-96v170h96v10zM637 527q0 115 77 166t233 51q49 0 88 -3v-165q-39 3 -75 3q-54 0 -76 -15t-22 -47h155v-170h-155v-347h-225v347h-96v170h96v10zM1317 137
q0 -50 4.5 -75.5t22.5 -54.5v-7h-229q-23 29 -23 107v623h225v-593z" />
    <glyph glyph-name="fi.cap" horiz-adv-x="861" 
d="M121 527q0 115 77 166t233 51q49 0 88 -3v-165q-39 3 -75 3q-54 0 -76 -15t-22 -47h155v-170h-155v-347h-225v347h-96v170h96v10zM576 731h225v-163h-225v163zM576 0v517h225v-517h-225z" />
    <glyph glyph-name="fl.cap" horiz-adv-x="861" 
d="M121 527q0 115 77 166t233 51q49 0 88 -3v-165q-39 3 -75 3q-54 0 -76 -15t-22 -47h155v-170h-155v-347h-225v347h-96v170h96v10zM801 137q0 -50 4.5 -75.5t22.5 -54.5v-7h-229q-23 29 -23 107v623h225v-593z" />
    <glyph glyph-name="periodcentered.cap" 
 />
    <glyph glyph-name="exclamdown.cap" 
 />
    <glyph glyph-name="questiondown.cap" 
 />
    <glyph glyph-name="parenleft.cap" 
 />
    <glyph glyph-name="parenright.cap" 
 />
    <glyph glyph-name="emdash.cap" 
 />
    <glyph glyph-name="endash.cap" 
 />
    <glyph glyph-name="hyphen.cap" 
 />
    <glyph glyph-name="guillemotleft.cap" 
 />
    <glyph glyph-name="guillemotright.cap" 
 />
    <glyph glyph-name="guilsinglleft.cap" 
 />
    <glyph glyph-name="guilsinglright.cap" 
 />
    <glyph glyph-name="acute.cap" 
 />
    <glyph glyph-name="circumflex.cap" 
 />
    <glyph glyph-name="dieresis.cap" 
 />
    <glyph glyph-name="grave.cap" 
 />
  </font>
</defs>
</svg>
