<?xml version="1.0" standalone="no"?>
<!DOCTYPE svg PUBLIC "-//W3C//DTD SVG 1.1//EN" "http://www.w3.org/Graphics/SVG/1.1/DTD/svg11.dtd" >
<svg xmlns="http://www.w3.org/2000/svg" xmlns:xlink="http://www.w3.org/1999/xlink" version="1.1">
<metadata>
Created by FontForge 20170731 at Fri Feb 23 16:37:39 2018
 By Aleksey,,,
copyright missing
</metadata>
<defs>
<font id="IndusHtest-BoldNarrow" horiz-adv-x="600" >
  <font-face 
    font-family="IndusHtest Bold Narrow"
    font-weight="700"
    font-stretch="semi-condensed"
    units-per-em="1000"
    panose-1="0 0 8 6 0 0 0 0 0 0"
    ascent="800"
    descent="-200"
    x-height="510"
    cap-height="700"
    bbox="-43 -204 919 811"
    underline-thickness="50"
    underline-position="-200"
    unicode-range="U+0020-FB02"
  />
<missing-glyph horiz-adv-x="460" 
d="M377 730v-920h-291v920h291zM306 668h-151v-30h59v-34h-60v-30h152v30h-60v34h60v30zM246 550h-92v-96h152v31h-60v65zM214 518v-33h-30v33h30zM306 429h-152v-30h60v-34h-60v-31h92v65h60v30zM306 374h-30v-61h-122v-31h152v92zM306 262h-92v-52h32v21h30v-43h-92v74
h-30v-104h152v104zM306 103h-152v-104h152v104zM276 72v-43h-92v43h92zM306 -23h-152v-30h64l-64 -43v-31h152v31h-93l64 43h29v30z" />
    <glyph glyph-name=".notdef" horiz-adv-x="460" 
d="M377 730v-920h-291v920h291zM306 668h-151v-30h59v-34h-60v-30h152v30h-60v34h60v30zM246 550h-92v-96h152v31h-60v65zM214 518v-33h-30v33h30zM306 429h-152v-30h60v-34h-60v-31h92v65h60v30zM306 374h-30v-61h-122v-31h152v92zM306 262h-92v-52h32v21h30v-43h-92v74
h-30v-104h152v104zM306 103h-152v-104h152v104zM276 72v-43h-92v43h92zM306 -23h-152v-30h64l-64 -43v-31h152v31h-93l64 43h29v30z" />
    <glyph glyph-name=".null" horiz-adv-x="0" 
 />
    <glyph glyph-name="nonmarkingreturn" horiz-adv-x="333" 
 />
    <glyph glyph-name="space" unicode=" " horiz-adv-x="224" 
 />
    <glyph glyph-name="exclam" unicode="!" horiz-adv-x="224" 
d="M156 206h-86l-13 309v185h112v-185zM56 115h112v-115h-112v115z" />
    <glyph glyph-name="quotedbl" unicode="&#x22;" horiz-adv-x="391" 
d="M146 447h-70l-19 253h107zM316 447h-70l-19 253h107z" />
    <glyph glyph-name="dollar" unicode="$" horiz-adv-x="607" 
d="M344 398q44 -18 72.5 -33.5t60 -41.5t47.5 -62t16 -82q0 -81 -52 -130t-144 -60v-100h-98v99q-157 16 -206 155l100 46q29 -80 106 -96v230q-41 18 -68 33t-56 39t-43.5 57t-14.5 75q0 80 47.5 126.5t134.5 57.5v100h98v-100q148 -17 198 -150l-101 -46q-31 76 -97 91
v-208zM174 530q0 -52 72 -90v166q-72 -15 -72 -76zM344 93q84 15 84 83q0 61 -84 104v-187z" />
    <glyph glyph-name="quotesingle" unicode="'" horiz-adv-x="224" 
d="M146 447h-70l-19 253h107z" />
    <glyph glyph-name="parenleft" unicode="(" horiz-adv-x="310" 
d="M287 -115h-95q-64 74 -96 177t-32 213t32 213t96 177h95q-59 -79 -88.5 -182t-29.5 -208t29.5 -208t88.5 -182z" />
    <glyph glyph-name="parenright" unicode=")" horiz-adv-x="310" 
d="M23 -115q59 79 88.5 182t29.5 208t-29.5 208t-88.5 182h95q64 -74 96 -177t32 -213t-32 -213t-96 -177h-95z" />
    <glyph glyph-name="comma" unicode="," horiz-adv-x="224" 
d="M111 -158h-66l44 158h-36v121h118v-110z" />
    <glyph glyph-name="hyphen" unicode="-" horiz-adv-x="224" 
d="M214 221h-204v89h204v-89z" />
    <glyph glyph-name="period" unicode="." horiz-adv-x="224" 
d="M53 121h118v-121h-118v121z" />
    <glyph glyph-name="slash" unicode="/" horiz-adv-x="447" 
d="M124 0h-113l313 700h112z" />
    <glyph glyph-name="zero" unicode="0" horiz-adv-x="613" 
d="M579 350q0 -170 -74.5 -267t-198.5 -97q-123 0 -197 97t-74 267t74 267t197 97q124 0 198.5 -97t74.5 -267zM466 350q0 119 -41.5 188.5t-118.5 69.5q-75 0 -116.5 -69.5t-41.5 -188.5t41.5 -188.5t116.5 -69.5q77 0 118.5 69.5t41.5 188.5z" />
    <glyph glyph-name="one" unicode="1" horiz-adv-x="409" 
d="M332 0h-110v556h-4q-49 -79 -150 -144l-53 90q134 88 200 198h117v-700z" />
    <glyph glyph-name="two" unicode="2" horiz-adv-x="514" 
d="M211 104h274v-104h-457v91q165 133 243.5 228t78.5 182q0 51 -29 78t-77 27q-94 0 -129 -113l-102 38q27 93 88.5 138t146.5 45q97 0 156 -53.5t59 -159.5q0 -101 -67 -197.5t-185 -199.5z" />
    <glyph glyph-name="three" unicode="3" horiz-adv-x="555" 
d="M514 186q0 -95 -62.5 -147.5t-178.5 -52.5q-196 0 -252 179l97 39q35 -111 156 -111q60 0 93.5 28.5t33.5 79.5q0 55 -31 81t-104 26h-103v100h97q123 0 123 105q0 96 -113 96q-102 0 -138 -96l-96 46q61 155 234 155q107 0 165.5 -48.5t58.5 -141.5q0 -123 -104 -160v-4
q60 -13 92 -59t32 -115z" />
    <glyph glyph-name="four" unicode="4" horiz-adv-x="582" 
d="M564 266v-104h-109v-162h-109v162h-322v91l277 447h154v-434h109zM157 266h189v316h-4z" />
    <glyph glyph-name="five" unicode="5" horiz-adv-x="558" 
d="M309 450q212 0 212 -231q0 -116 -61.5 -174.5t-177.5 -58.5q-200 0 -254 179l96 40q36 -112 157 -112q60 0 93 31t33 94q0 64 -30.5 94.5t-99.5 30.5q-74 0 -115 -34h-92v391h408v-104h-304v-181q50 35 135 35z" />
    <glyph glyph-name="six" unicode="6" horiz-adv-x="575" 
d="M325 451q102 0 162 -61t60 -171q0 -109 -67.5 -171t-178.5 -62q-123 0 -195 85t-72 248q0 194 71 294.5t197 100.5q162 0 223 -156l-99 -48q-40 99 -130 99q-61 0 -100 -60.5t-47 -170.5h1q30 35 76.5 54t98.5 19zM301 87q61 0 99 36.5t38 95.5q0 60 -35.5 95.5
t-103.5 35.5q-95 0 -151 -72q14 -191 153 -191z" />
    <glyph glyph-name="seven" unicode="7" horiz-adv-x="454" 
d="M5 700h419v-96q-157 -319 -178 -604h-117q22 276 186 595h-310v105z" />
    <glyph glyph-name="eight" unicode="8" horiz-adv-x="565" 
d="M396 375q63 -33 99.5 -78t36.5 -113q0 -94 -68.5 -146t-185.5 -52q-108 0 -176 47t-68 132q0 63 32.5 110.5t101.5 86.5q-115 65 -115 168q0 86 63 135t166 49q105 0 167.5 -45.5t62.5 -127.5q0 -100 -116 -166zM278 611q-52 0 -83 -21t-31 -56q0 -37 34 -61.5t104 -54.5
q100 51 100 109q0 39 -32.5 61.5t-91.5 22.5zM283 90q63 0 100.5 24t37.5 67q0 19 -9.5 36.5t-21.5 29.5t-37.5 26.5t-42 21.5t-49.5 22q-62 -31 -89.5 -62.5t-27.5 -70.5q0 -43 38 -68.5t101 -25.5z" />
    <glyph glyph-name="nine" unicode="9" horiz-adv-x="577" 
d="M276 714q123 0 195 -85t72 -248q0 -194 -71 -294.5t-197 -100.5q-162 0 -223 156l99 48q40 -99 130 -99q61 0 100 60.5t47 170.5h-1q-30 -35 -76.5 -54t-98.5 -19q-102 0 -162 61t-60 171q0 109 67.5 171t178.5 62zM278 350q95 0 151 72q-14 191 -153 191
q-61 0 -99 -36.5t-38 -95.5q0 -60 35.5 -95.5t103.5 -35.5z" />
    <glyph glyph-name="colon" unicode=":" horiz-adv-x="224" 
d="M53 510h118v-121h-118v121zM53 121h118v-121h-118v121z" />
    <glyph glyph-name="semicolon" unicode=";" horiz-adv-x="224" 
d="M53 510h118v-121h-118v121zM111 -158h-66l44 158h-36v121h118v-110z" />
    <glyph glyph-name="question" unicode="?" horiz-adv-x="428" 
d="M401 518q0 -145 -142 -312h-110q141 186 141 307q0 46 -23.5 70.5t-64.5 24.5q-83 0 -107 -123l-98 28q34 201 210 201q89 0 141.5 -50.5t52.5 -145.5zM147 115h112v-115h-112v115z" />
    <glyph glyph-name="at" unicode="@" horiz-adv-x="774" 
d="M468 497h94v-273q0 -51 30 -51q29 0 45.5 44t16.5 120q0 113 -62.5 181.5t-194.5 68.5q-130 0 -199.5 -73t-69.5 -212q0 -140 75.5 -213.5t214.5 -73.5q125 0 202 53l40 -73q-92 -58 -242 -58q-179 0 -281 95t-102 270q0 172 99.5 267.5t264.5 95.5q166 0 253 -93
t87 -235q0 -122 -46.5 -185t-116.5 -63q-31 0 -56 14t-36 39h-3q-37 -55 -116 -55q-71 0 -118.5 55t-47.5 157q0 100 47.5 154.5t118.5 54.5q69 0 101 -45h2v34zM387 172q54 0 80 44v163q-26 44 -80 44q-40 0 -65 -33t-25 -91q0 -61 24.5 -94t65.5 -33z" />
    <glyph glyph-name="A" unicode="A" horiz-adv-x="580" 
d="M450 0l-49 186h-221l-50 -186h-117l198 700h159l197 -700h-117zM207 289h167l-81 307h-4z" />
    <glyph glyph-name="B" unicode="B" horiz-adv-x="589" 
d="M428 359q63 -16 96.5 -61t33.5 -111q0 -187 -235 -187h-245v700h234q227 0 227 -179q0 -58 -28.5 -99.5t-82.5 -58.5v-4zM301 598h-115v-189h117q123 0 123 94q0 49 -30.5 72t-94.5 23zM314 102q68 0 99.5 25t31.5 78q0 102 -127 102h-132v-205h128z" />
    <glyph glyph-name="C" unicode="C" horiz-adv-x="548" 
d="M148 350q0 -115 40.5 -185.5t105.5 -70.5q93 0 127 115l103 -38q-52 -185 -228 -185q-115 0 -188 97.5t-73 266.5t73 266.5t188 97.5q176 0 228 -183l-103 -38q-34 113 -127 113q-65 0 -105.5 -70.5t-40.5 -185.5z" />
    <glyph glyph-name="D" unicode="D" horiz-adv-x="620" 
d="M248 700q163 0 250.5 -89t87.5 -260q0 -172 -87.5 -261.5t-250.5 -89.5h-170v700h170zM246 104q227 0 227 247q0 246 -227 246h-59v-493h59z" />
    <glyph glyph-name="E" unicode="E" horiz-adv-x="514" 
d="M186 103h287v-103h-395v700h382v-103h-274v-191h207v-103h-207v-200z" />
    <glyph glyph-name="F" unicode="F" horiz-adv-x="479" 
d="M472 596h-286v-208h218v-104h-218v-284h-108v700h394v-104z" />
    <glyph glyph-name="G" unicode="G" horiz-adv-x="605" 
d="M570 387l-1 -71q-1 -155 -66.5 -242.5t-191.5 -87.5q-125 0 -200.5 96t-75.5 263q0 175 76.5 272t206.5 97q169 0 224 -159l-104 -43q-35 96 -126 96q-78 0 -121 -70t-43 -194q0 -120 43 -189t120 -69q71 0 107 53.5t40 145.5h-140v102h252z" />
    <glyph glyph-name="H" unicode="H" horiz-adv-x="631" 
d="M445 700h109v-700h-109v301h-258v-301h-109v700h109v-292h258v292z" />
    <glyph glyph-name="I" unicode="I" horiz-adv-x="265" 
d="M187 0h-109v700h109v-700z" />
    <glyph glyph-name="J" unicode="J" horiz-adv-x="321" 
d="M18 -10v107q17 -4 41 -4q47 0 64 19t17 69v519h110v-551q0 -88 -44 -125.5t-139 -37.5q-32 0 -49 4z" />
    <glyph glyph-name="K" unicode="K" horiz-adv-x="584" 
d="M439 0l-175 309l-77 -114v-195h-109v700h109v-348l241 348h134l-215 -303l225 -397h-133z" />
    <glyph glyph-name="L" unicode="L" horiz-adv-x="449" 
d="M186 104h256v-104h-364v700h108v-596z" />
    <glyph glyph-name="M" unicode="M" horiz-adv-x="809" 
d="M732 700l-3 -700h-106v500h-4l-159 -500h-112l-159 500h-4v-500h-107v700h158l166 -526h4l164 526h162z" />
    <glyph glyph-name="N" unicode="N" horiz-adv-x="648" 
d="M464 700h107v-700h-147l-235 511h-3l-1 -511h-107v700h147l235 -516h4v516z" />
    <glyph glyph-name="O" unicode="O" horiz-adv-x="630" 
d="M595 350q0 -171 -76 -267.5t-204 -96.5t-204 96.5t-76 267.5t76 268t204 97t204 -97t76 -268zM483 350q0 120 -44 189.5t-124 69.5t-123.5 -69.5t-43.5 -189.5q0 -119 43.5 -188.5t123.5 -69.5t124 69.5t44 188.5z" />
    <glyph glyph-name="P" unicode="P" horiz-adv-x="568" 
d="M311 700q118 0 182.5 -58.5t64.5 -169.5q0 -113 -64 -170t-183 -57h-124v-245h-109v700h233zM305 348q140 0 140 125q0 124 -140 124h-118v-249h118z" />
    <glyph glyph-name="Q" unicode="Q" horiz-adv-x="627" 
d="M595 350q0 -149 -61 -244l61 -63l-73 -69l-56 59q-65 -47 -151 -47q-128 0 -204 96.5t-76 267.5t76 268t204 97t204 -97t76 -268zM316 92q41 0 74 19l-86 90l73 69l78 -81q28 62 28 160q0 120 -43.5 189.5t-124.5 69.5q-80 0 -123.5 -69t-43.5 -189t43.5 -189t124.5 -69z
" />
    <glyph glyph-name="R" unicode="R" horiz-adv-x="588" 
d="M438 0l-141 261h-111v-261h-108v700h228q118 0 182.5 -57t64.5 -163q0 -160 -139 -204l154 -276h-130zM186 597v-234h116q138 0 138 117t-138 117h-116z" />
    <glyph glyph-name="S" unicode="S" horiz-adv-x="507" 
d="M471 185q0 -94 -62.5 -146.5t-159.5 -52.5q-173 0 -225 157l99 46q36 -98 130 -98q47 0 77 21.5t30 63.5q0 43 -32.5 73.5t-78.5 51t-92.5 44t-79 68t-32.5 107.5q0 93 57.5 143.5t152.5 50.5q163 0 217 -153l-100 -46q-38 94 -120 94q-43 0 -69.5 -21t-26.5 -58
q0 -30 17.5 -53t45 -38.5t61.5 -30.5t67.5 -33t61 -41.5t45 -61.5t17.5 -87z" />
    <glyph glyph-name="T" unicode="T" horiz-adv-x="482" 
d="M467 700v-104h-172v-596h-109v596h-171v104h452z" />
    <glyph glyph-name="U" unicode="U" horiz-adv-x="619" 
d="M549 235q0 -121 -61 -185t-177 -64q-117 0 -178 64t-61 185v465h109v-463q0 -146 130 -146q62 0 95.5 36.5t33.5 109.5v463h109v-465z" />
    <glyph glyph-name="V" unicode="V" horiz-adv-x="562" 
d="M361 0h-160l-188 700h118l148 -585h4l147 585h119z" />
    <glyph glyph-name="W" unicode="W" horiz-adv-x="950" 
d="M800 700h119l-152 -700h-160l-130 570h-4l-130 -570h-160l-152 700h119l111 -570h4l131 570h159l130 -570h4z" />
    <glyph glyph-name="X" unicode="X" horiz-adv-x="537" 
d="M521 0h-126l-132 269l-126 -269h-118l174 356l-174 344h125l128 -261l125 261h118l-173 -349z" />
    <glyph glyph-name="Y" unicode="Y" horiz-adv-x="516" 
d="M509 700l-196 -427v-273h-109v273l-197 427h124l128 -295h4l128 295h118z" />
    <glyph glyph-name="Z" unicode="Z" horiz-adv-x="476" 
d="M442 0h-408v97l269 499h-259v104h394v-97l-268 -499h272v-104z" />
    <glyph glyph-name="bracketleft" unicode="[" 
 />
    <glyph glyph-name="bracketright" unicode="]" 
 />
    <glyph glyph-name="underscore" unicode="_" horiz-adv-x="448" 
d="M438 -190h-428v90h428v-90z" />
    <glyph glyph-name="grave" unicode="`" 
 />
    <glyph glyph-name="a" unicode="a" horiz-adv-x="463" 
d="M410 107q0 -65 19 -102v-5h-108q-9 20 -13 37h-4q-41 -51 -121 -51q-67 0 -113 42t-46 115q0 68 37.5 106.5t120.5 56.5q63 12 124 15v42q0 71 -81 71q-66 0 -95 -61l-83 41q46 110 182 110q85 0 133 -41t48 -125v-251zM207 71q65 0 99 49v116q-57 -4 -105 -12
q-76 -17 -76 -81q0 -34 24 -53t58 -19z" />
    <glyph glyph-name="b" unicode="b" horiz-adv-x="524" 
d="M293 524q88 0 145 -68.5t57 -200.5t-57 -200.5t-145 -68.5q-42 0 -75 15t-50 41h-5v-42h-101v730h103v-262h3q17 26 50 41t75 15zM264 83q56 0 89.5 45t33.5 127q0 81 -33.5 126.5t-89.5 45.5q-66 0 -99 -55v-234q32 -55 99 -55z" />
    <glyph glyph-name="c" unicode="c" horiz-adv-x="439" 
d="M137 255q0 -76 29 -123t79 -47q70 0 94 73l93 -34q-43 -138 -185 -138q-97 0 -157 72.5t-60 196.5t60 196.5t157 72.5q142 0 185 -137l-93 -34q-24 72 -94 72q-50 0 -79 -47t-29 -123z" />
    <glyph glyph-name="d" unicode="d" horiz-adv-x="524" 
d="M359 730h104v-730h-102v42h-4q-17 -26 -50 -41t-75 -15q-88 0 -145 68.5t-57 200.5t57 201t145 69q41 0 74.5 -15.5t50.5 -40.5h2v261zM260 83q67 0 99 55v235q-32 54 -99 54q-56 0 -89.5 -45t-33.5 -127t33.5 -127t89.5 -45z" />
    <glyph glyph-name="e" unicode="e" horiz-adv-x="469" 
d="M250 82q75 0 101 68l93 -34q-49 -130 -193 -130q-101 0 -161 72.5t-60 197.5q0 122 59 195t150 73q100 0 154.5 -77t54.5 -230h-315q8 -62 39 -98.5t78 -36.5zM239 431q-42 0 -68.5 -34t-35.5 -91h209q-15 125 -105 125z" />
    <glyph glyph-name="f" unicode="f" horiz-adv-x="305" 
d="M274 648q-46 0 -65 -19.5t-19 -67.5v-51h113v-94h-113v-416h-104v416h-67v94h67v61q0 94 45 133.5t136 39.5q36 0 54 -2v-96q-17 2 -47 2z" />
    <glyph glyph-name="g" unicode="g" horiz-adv-x="522" 
d="M359 510h102v-516q0 -101 -54.5 -149.5t-145.5 -48.5q-123 0 -173 90l87 54q30 -49 88 -49q43 0 68.5 24t25.5 75v71h-2q-17 -25 -50.5 -40t-73.5 -15q-87 0 -144 67.5t-57 190.5q0 124 57 192t144 68q86 0 124 -56h4v42zM258 103q64 0 99 53v218q-32 53 -99 53
q-57 0 -89 -43t-32 -120q0 -76 32.5 -118.5t88.5 -42.5z" />
    <glyph glyph-name="h" unicode="h" horiz-adv-x="501" 
d="M291 524q74 0 115 -41.5t41 -125.5v-357h-103v330q0 95 -88 95q-59 0 -91 -55v-370h-103v730h103v-262h3q18 25 52 40.5t71 15.5z" />
    <glyph glyph-name="i" unicode="i" horiz-adv-x="227" 
d="M62 730h103v-116h-103v116zM62 510h103v-510h-103v510z" />
    <glyph glyph-name="j" unicode="j" horiz-adv-x="227" 
d="M62 730h103v-116h-103v116zM147 -190h-107v5q22 41 22 106v588h103v-610q0 -61 -18 -89z" />
    <glyph glyph-name="k" unicode="k" horiz-adv-x="471" 
d="M338 0l-117 204l-56 -85v-119h-103v730h103v-465l162 245h129l-158 -228l168 -282h-128z" />
    <glyph glyph-name="l" unicode="l" horiz-adv-x="227" 
d="M165 111q0 -65 22 -106v-5h-107q-18 28 -18 89v641h103v-619z" />
    <glyph glyph-name="m" unicode="m" horiz-adv-x="773" 
d="M554 524q78 0 122 -41.5t44 -125.5v-357h-104v330q0 95 -85 95q-56 0 -88 -53v-17v-355h-104v330q0 95 -85 95q-57 0 -89 -55v-370h-103v510h102v-42h3q42 56 120 56q91 0 131 -65q47 65 136 65z" />
    <glyph glyph-name="n" unicode="n" horiz-adv-x="505" 
d="M294 524q74 0 115.5 -41.5t41.5 -125.5v-357h-103v330q0 95 -90 95q-61 0 -93 -55v-370h-103v510h102v-42h4q18 25 52.5 40.5t73.5 15.5z" />
    <glyph glyph-name="o" unicode="o" horiz-adv-x="506" 
d="M477 255q0 -124 -61.5 -196.5t-162.5 -72.5q-100 0 -161.5 72.5t-61.5 196.5q0 123 61.5 196t162.5 73q100 0 161.5 -73t61.5 -196zM369 255q0 77 -30.5 123.5t-84.5 46.5q-56 0 -86.5 -46.5t-30.5 -123.5q0 -78 30.5 -124.5t86.5 -46.5q55 0 85 46.5t30 124.5z" />
    <glyph glyph-name="p" unicode="p" horiz-adv-x="524" 
d="M293 524q88 0 145 -68.5t57 -200.5t-57 -200.5t-145 -68.5q-42 0 -75 15t-50 41h-3v-232h-103v700h101v-42h5q17 25 50.5 40.5t74.5 15.5zM264 83q56 0 89.5 45t33.5 127q0 81 -33.5 126t-89.5 45q-67 0 -99 -54v-234q32 -55 99 -55z" />
    <glyph glyph-name="q" unicode="q" horiz-adv-x="524" 
d="M361 510h102v-700h-104v232h-2q-17 -26 -50.5 -41t-75.5 -15q-87 0 -144 69.5t-57 199.5t57 199.5t144 69.5q41 0 75 -15.5t51 -40.5h4v42zM260 83q67 0 99 55v234q-31 54 -99 54q-56 0 -89.5 -45t-33.5 -126t33.5 -126.5t89.5 -45.5z" />
    <glyph glyph-name="r" unicode="r" horiz-adv-x="349" 
d="M301 524q22 0 37 -4v-110q-20 8 -50 8q-77 0 -123 -74v-344h-103v510h102v-66h4q44 80 133 80z" />
    <glyph glyph-name="s" unicode="s" horiz-adv-x="402" 
d="M374 137q0 -74 -48.5 -112.5t-130.5 -38.5q-138 0 -177 112l91 42q22 -60 89 -60q31 0 51 12.5t20 38.5q0 27 -24 46t-58 32.5t-68 30.5t-58 51.5t-24 84.5q0 66 45.5 107t122.5 41q134 0 172 -112l-90 -43q-23 61 -87 61q-25 0 -41.5 -13t-16.5 -35q0 -27 24 -45
t58 -31.5t68 -31t58 -52.5t24 -85z" />
    <glyph glyph-name="t" unicode="t" horiz-adv-x="297" 
d="M284 414h-94v-303q0 -39 3.5 -59.5t17.5 -46.5v-5h-106q-19 29 -19 89v325h-67v96h67v140h104v-140h94v-96z" />
    <glyph glyph-name="u" unicode="u" horiz-adv-x="499" 
d="M336 510h103v-510h-101v42h-4q-19 -25 -52.5 -40.5t-71.5 -15.5q-73 0 -114.5 41.5t-41.5 125.5v357h104v-330q0 -95 87 -95q59 0 91 54v371z" />
    <glyph glyph-name="v" unicode="v" horiz-adv-x="472" 
d="M304 0h-135l-161 510h112l114 -394h4l114 394h112z" />
    <glyph glyph-name="w" unicode="w" horiz-adv-x="773" 
d="M640 510h112l-134 -510h-136l-93 388h-4l-94 -388h-136l-133 510h112l87 -388h4l95 388h135l93 -388h4z" />
    <glyph glyph-name="x" unicode="x" horiz-adv-x="455" 
d="M440 0h-126l-92 177l-90 -177h-117l142 262l-142 248h126l90 -175l88 175h116l-138 -260z" />
    <glyph glyph-name="y" unicode="y" horiz-adv-x="462" 
d="M214 -190h-115v5q32 35 55 103l26 82l-182 510h114l121 -364h4l105 364h113l-197 -611q-21 -65 -44 -89z" />
    <glyph glyph-name="z" unicode="z" horiz-adv-x="375" 
d="M342 0h-308v87l177 327h-170v96h297v-88l-176 -326h180v-96z" />
    <glyph glyph-name="braceleft" unicode="{" 
 />
    <glyph glyph-name="braceright" unicode="}" 
 />
    <glyph glyph-name="dieresis" unicode="&#xa8;" 
 />
    <glyph glyph-name="guillemotleft" unicode="&#xab;" 
 />
    <glyph glyph-name="acute" unicode="&#xb4;" 
 />
    <glyph glyph-name="periodcentered" unicode="&#xb7;" 
 />
    <glyph glyph-name="cedilla" unicode="&#xb8;" 
 />
    <glyph glyph-name="guillemotright" unicode="&#xbb;" 
 />
    <glyph glyph-name="Agrave" unicode="&#xc0;" 
 />
    <glyph glyph-name="Aacute" unicode="&#xc1;" 
 />
    <glyph glyph-name="Acircumflex" unicode="&#xc2;" 
 />
    <glyph glyph-name="Adieresis" unicode="&#xc4;" 
 />
    <glyph glyph-name="AE" unicode="&#xc6;" 
 />
    <glyph glyph-name="Ccedilla" unicode="&#xc7;" 
 />
    <glyph glyph-name="Egrave" unicode="&#xc8;" 
 />
    <glyph glyph-name="Eacute" unicode="&#xc9;" 
 />
    <glyph glyph-name="Ecircumflex" unicode="&#xca;" 
 />
    <glyph glyph-name="Edieresis" unicode="&#xcb;" 
 />
    <glyph glyph-name="Igrave" unicode="&#xcc;" 
 />
    <glyph glyph-name="Iacute" unicode="&#xcd;" 
 />
    <glyph glyph-name="Icircumflex" unicode="&#xce;" 
 />
    <glyph glyph-name="Idieresis" unicode="&#xcf;" 
 />
    <glyph glyph-name="Ograve" unicode="&#xd2;" 
 />
    <glyph glyph-name="Oacute" unicode="&#xd3;" 
 />
    <glyph glyph-name="Ocircumflex" unicode="&#xd4;" 
 />
    <glyph glyph-name="Odieresis" unicode="&#xd6;" 
 />
    <glyph glyph-name="Ugrave" unicode="&#xd9;" 
 />
    <glyph glyph-name="Uacute" unicode="&#xda;" 
 />
    <glyph glyph-name="Ucircumflex" unicode="&#xdb;" 
 />
    <glyph glyph-name="Udieresis" unicode="&#xdc;" 
 />
    <glyph glyph-name="germandbls" unicode="&#xdf;" 
 />
    <glyph glyph-name="agrave" unicode="&#xe0;" 
 />
    <glyph glyph-name="aacute" unicode="&#xe1;" 
 />
    <glyph glyph-name="acircumflex" unicode="&#xe2;" 
 />
    <glyph glyph-name="adieresis" unicode="&#xe4;" 
 />
    <glyph glyph-name="ae" unicode="&#xe6;" 
 />
    <glyph glyph-name="ccedilla" unicode="&#xe7;" 
 />
    <glyph glyph-name="egrave" unicode="&#xe8;" 
 />
    <glyph glyph-name="eacute" unicode="&#xe9;" 
 />
    <glyph glyph-name="ecircumflex" unicode="&#xea;" 
 />
    <glyph glyph-name="edieresis" unicode="&#xeb;" 
 />
    <glyph glyph-name="igrave" unicode="&#xec;" 
 />
    <glyph glyph-name="iacute" unicode="&#xed;" 
 />
    <glyph glyph-name="icircumflex" unicode="&#xee;" 
 />
    <glyph glyph-name="idieresis" unicode="&#xef;" 
 />
    <glyph glyph-name="ograve" unicode="&#xf2;" 
 />
    <glyph glyph-name="oacute" unicode="&#xf3;" 
 />
    <glyph glyph-name="ocircumflex" unicode="&#xf4;" 
 />
    <glyph glyph-name="odieresis" unicode="&#xf6;" 
 />
    <glyph glyph-name="ugrave" unicode="&#xf9;" 
 />
    <glyph glyph-name="uacute" unicode="&#xfa;" 
 />
    <glyph glyph-name="ucircumflex" unicode="&#xfb;" 
 />
    <glyph glyph-name="udieresis" unicode="&#xfc;" 
 />
    <glyph glyph-name="Cacute" unicode="&#x106;" 
 />
    <glyph glyph-name="cacute" unicode="&#x107;" 
 />
    <glyph glyph-name="Ccircumflex" unicode="&#x108;" 
 />
    <glyph glyph-name="ccircumflex" unicode="&#x109;" 
 />
    <glyph glyph-name="Gcircumflex" unicode="&#x11c;" 
 />
    <glyph glyph-name="gcircumflex" unicode="&#x11d;" 
 />
    <glyph glyph-name="Hcircumflex" unicode="&#x124;" 
 />
    <glyph glyph-name="hcircumflex" unicode="&#x125;" 
 />
    <glyph glyph-name="IJ" unicode="&#x132;" horiz-adv-x="586" 
d="M187 0h-109v700h109v-700zM283 -10v107q17 -4 41 -4q47 0 64 19t17 69v519h110v-551q0 -88 -44 -125.5t-139 -37.5q-32 0 -49 4z" />
    <glyph glyph-name="ij" unicode="&#x133;" horiz-adv-x="454" 
d="M62 730h103v-116h-103v116zM289 730h103v-116h-103v116zM62 510h103v-510h-103v510zM374 -190h-107v5q22 41 22 106v588h103v-610q0 -61 -18 -89z" />
    <glyph glyph-name="Jcircumflex" unicode="&#x134;" 
 />
    <glyph glyph-name="jcircumflex" unicode="&#x135;" 
 />
    <glyph glyph-name="Lacute" unicode="&#x139;" 
 />
    <glyph glyph-name="lacute" unicode="&#x13a;" 
 />
    <glyph glyph-name="Nacute" unicode="&#x143;" 
 />
    <glyph glyph-name="nacute" unicode="&#x144;" 
 />
    <glyph glyph-name="OE" unicode="&#x152;" 
 />
    <glyph glyph-name="oe" unicode="&#x153;" 
 />
    <glyph glyph-name="Racute" unicode="&#x154;" 
 />
    <glyph glyph-name="racute" unicode="&#x155;" 
 />
    <glyph glyph-name="AEacute" unicode="&#x1fc;" 
 />
    <glyph glyph-name="aeacute" unicode="&#x1fd;" 
 />
    <glyph glyph-name="circumflex" unicode="&#x2c6;" 
 />
    <glyph glyph-name="endash" unicode="&#x2013;" horiz-adv-x="448" 
d="M438 221h-428v89h428v-89z" />
    <glyph glyph-name="emdash" unicode="&#x2014;" horiz-adv-x="897" 
d="M887 221h-877v89h877v-89z" />
    <glyph glyph-name="quoteleft" unicode="&#x2018;" horiz-adv-x="224" 
d="M102 705h65l-32 -138h36v-121h-118v110z" />
    <glyph glyph-name="quoteright" unicode="&#x2019;" horiz-adv-x="224" 
d="M122 441h-65l32 138h-36v121h118v-110z" />
    <glyph glyph-name="quotesinglbase" unicode="&#x201a;" 
d="M111 -158h-66l44 158h-36v121h118v-110z" />
    <glyph glyph-name="quotedblleft" unicode="&#x201c;" horiz-adv-x="391" 
d="M102 705h65l-32 -138h36v-121h-118v110zM270 705h65l-32 -138h36v-121h-118v110z" />
    <glyph glyph-name="quotedblright" unicode="&#x201d;" horiz-adv-x="391" 
d="M122 441h-65l32 138h-36v121h118v-110zM290 441h-65l32 138h-36v121h118v-110z" />
    <glyph glyph-name="quotedblbase" unicode="&#x201e;" 
d="M53 121h118v-110l-60 -169h-66l44 158h-36v121z" />
    <glyph glyph-name="ellipsis" unicode="&#x2026;" 
d="M53 121h118v-121h-118v121z" />
    <glyph glyph-name="guilsinglleft" unicode="&#x2039;" 
 />
    <glyph glyph-name="guilsinglright" unicode="&#x203a;" 
 />
    <glyph glyph-name="Euro" unicode="&#x20ac;" horiz-adv-x="607" 
d="M342 93q91 0 125 115l102 -37q-52 -185 -225 -185q-92 0 -158 65.5t-89 182.5h-76v93h66v23v23h-66v94h77q22 117 88 182t158 65q173 0 225 -183l-102 -38q-34 114 -125 114q-46 0 -79.5 -37t-49.5 -103h228v-94h-241v-23v-23h241v-93h-228q16 -66 50 -103.5t79 -37.5z
" />
    <glyph glyph-name="fi" unicode="&#xfb01;" horiz-adv-x="532" 
d="M86 571q0 94 45 133.5t136 39.5q36 0 54 -2v-96q-17 2 -47 2q-46 0 -65 -19.5t-19 -67.5v-51h113v-94h-113v-416h-104v416h-67v94h67v61zM367 730h103v-116h-103v116zM367 0v510h103v-510h-103z" />
    <glyph glyph-name="fl" unicode="&#xfb02;" horiz-adv-x="532" 
d="M86 571q0 94 45 133.5t136 39.5q36 0 54 -2v-96q-17 2 -47 2q-46 0 -65 -19.5t-19 -67.5v-51h113v-94h-113v-416h-104v416h-67v94h67v61zM470 111q0 -65 22 -106v-5h-107q-18 28 -18 89v641h103v-619z" />
    <glyph glyph-name="G.ss02" horiz-adv-x="605" 
d="M543 387v-387h-106v43h-4q-45 -57 -147 -57q-115 0 -183 94.5t-68 264.5q0 175 76 272t203 97q169 0 224 -159l-104 -43q-35 96 -125 96q-76 0 -118.5 -70.5t-42.5 -193.5q0 -122 43.5 -190.5t125.5 -68.5q79 0 118 53v146h-127v103h235z" />
    <glyph glyph-name="germandbls.cap" 
 />
    <glyph glyph-name="a.ss01" horiz-adv-x="516" 
d="M457 107q0 -63 20 -102v-5h-108q-9 19 -13 42h-5q-17 -25 -50 -40.5t-74 -15.5q-84 0 -140.5 69.5t-56.5 199.5q0 129 56.5 199t140.5 70q41 0 74 -15.5t50 -40.5h4v42h102v-403zM256 83q66 0 98 55v234q-32 54 -98 54q-53 0 -86 -45t-33 -126t33 -126.5t86 -45.5z" />
    <glyph glyph-name="y.ss01" horiz-adv-x="472" 
d="M352 510h112l-176 -510v-190h-104v190l-176 510h112l114 -374h4z" />
    <glyph glyph-name="j.ss02" horiz-adv-x="227" 
d="M62 730h103v-115h-103v115zM-43 -201l1 96q14 -3 33 -3q40 0 55.5 19.5t15.5 68.5v529h103v-540q0 -94 -40.5 -133.5t-122.5 -39.5q-26 0 -45 3z" />
    <glyph glyph-name="t.ss02" horiz-adv-x="335" 
d="M264 82q28 0 47 3v-97q-21 -2 -62 -2q-85 0 -124 39.5t-39 137.5v253h-67v94h67v140h103v-140h114v-94h-114v-242q0 -50 17 -71t58 -21z" />
    <glyph glyph-name="y.ss03" horiz-adv-x="500" 
d="M337 510h103v-523q0 -191 -200 -191q-108 0 -155 67l72 65q31 -36 83 -36q44 0 70.5 23.5t26.5 69.5v58h-2q-44 -56 -125 -56q-73 0 -114.5 41.5t-41.5 125.5v356h104v-330q0 -95 87 -95q60 0 92 54v371z" />
    <glyph glyph-name="f_f" horiz-adv-x="610" 
d="M86 571q0 94 45 133.5t136 39.5q36 0 54 -2v-96q-17 2 -47 2q-46 0 -65 -19.5t-19 -67.5v-51h113v-94h-113v-416h-104v416h-67v94h67v61zM579 648q-46 0 -65 -19.5t-19 -67.5v-51h113v-94h-113v-416h-104v416h-67v94h67v61q0 94 45 133.5t136 39.5q36 0 54 -2v-96
q-17 2 -47 2z" />
    <glyph glyph-name="f_f_i" horiz-adv-x="837" 
d="M86 571q0 94 45 133.5t136 39.5q36 0 54 -2v-96q-17 2 -47 2q-46 0 -65 -19.5t-19 -67.5v-51h113v-94h-113v-416h-104v416h-67v94h67v61zM391 571q0 94 45 133.5t136 39.5q36 0 54 -2v-96q-17 2 -47 2q-46 0 -65 -19.5t-19 -67.5v-51h113v-94h-113v-416h-104v416h-67v94
h67v61zM672 730h103v-116h-103v116zM672 0v510h103v-510h-103z" />
    <glyph glyph-name="f_f_l" horiz-adv-x="837" 
d="M86 571q0 94 45 133.5t136 39.5q36 0 54 -2v-96q-17 2 -47 2q-46 0 -65 -19.5t-19 -67.5v-51h113v-94h-113v-416h-104v416h-67v94h67v61zM391 571q0 94 45 133.5t136 39.5q36 0 54 -2v-96q-17 2 -47 2q-46 0 -65 -19.5t-19 -67.5v-51h113v-94h-113v-416h-104v416h-67v94
h67v61zM775 111q0 -65 22 -106v-5h-107q-18 28 -18 89v641h103v-619z" />
    <glyph glyph-name="fi.cap" horiz-adv-x="532" 
d="M86 571q0 94 45 133.5t136 39.5q36 0 54 -2v-96q-17 2 -47 2q-46 0 -65 -19.5t-19 -67.5v-51h113v-94h-113v-416h-104v416h-67v94h67v61zM367 730h103v-116h-103v116zM367 0v510h103v-510h-103z" />
    <glyph glyph-name="fl.cap" horiz-adv-x="532" 
d="M86 571q0 94 45 133.5t136 39.5q36 0 54 -2v-96q-17 2 -47 2q-46 0 -65 -19.5t-19 -67.5v-51h113v-94h-113v-416h-104v416h-67v94h67v61zM470 111q0 -65 22 -106v-5h-107q-18 28 -18 89v641h103v-619z" />
    <glyph glyph-name="periodcentered.cap" 
 />
    <glyph glyph-name="exclamdown.cap" 
 />
    <glyph glyph-name="questiondown.cap" 
 />
    <glyph glyph-name="parenleft.cap" 
 />
    <glyph glyph-name="parenright.cap" 
 />
    <glyph glyph-name="emdash.cap" 
 />
    <glyph glyph-name="endash.cap" 
 />
    <glyph glyph-name="hyphen.cap" 
 />
    <glyph glyph-name="guillemotleft.cap" 
 />
    <glyph glyph-name="guillemotright.cap" 
 />
    <glyph glyph-name="guilsinglleft.cap" 
 />
    <glyph glyph-name="guilsinglright.cap" 
 />
    <glyph glyph-name="acute.cap" 
 />
    <glyph glyph-name="circumflex.cap" 
 />
    <glyph glyph-name="dieresis.cap" 
 />
    <glyph glyph-name="grave.cap" 
 />
  </font>
</defs>
</svg>
