<?xml version="1.0" standalone="no"?>
<!DOCTYPE svg PUBLIC "-//W3C//DTD SVG 1.1//EN" "http://www.w3.org/Graphics/SVG/1.1/DTD/svg11.dtd" >
<svg xmlns="http://www.w3.org/2000/svg" xmlns:xlink="http://www.w3.org/1999/xlink" version="1.1">
<metadata>
Created by FontForge 20170731 at Fri Feb 23 16:37:42 2018
 By Aleksey,,,
copyright missing
</metadata>
<defs>
<font id="IndusHtest-LightExtended" horiz-adv-x="600" >
  <font-face 
    font-family="IndusHtest Light Extended"
    font-weight="300"
    font-stretch="expanded"
    units-per-em="1000"
    panose-1="0 0 4 5 0 0 0 0 0 0"
    ascent="800"
    descent="-200"
    x-height="503"
    cap-height="700"
    bbox="-19 -204 1370 833"
    underline-thickness="50"
    underline-position="-200"
    unicode-range="U+0020-FB02"
  />
<missing-glyph horiz-adv-x="460" 
d="M377 730v-920h-291v920h291zM306 668h-151v-30h59v-34h-60v-30h152v30h-60v34h60v30zM246 550h-92v-96h152v31h-60v65zM214 518v-33h-30v33h30zM306 429h-152v-30h60v-34h-60v-31h92v65h60v30zM306 374h-30v-61h-122v-31h152v92zM306 262h-92v-52h32v21h30v-43h-92v74
h-30v-104h152v104zM306 103h-152v-104h152v104zM276 72v-43h-92v43h92zM306 -23h-152v-30h64l-64 -43v-31h152v31h-93l64 43h29v30z" />
    <glyph glyph-name=".notdef" horiz-adv-x="460" 
d="M377 730v-920h-291v920h291zM306 668h-151v-30h59v-34h-60v-30h152v30h-60v34h60v30zM246 550h-92v-96h152v31h-60v65zM214 518v-33h-30v33h30zM306 429h-152v-30h60v-34h-60v-31h92v65h60v30zM306 374h-30v-61h-122v-31h152v92zM306 262h-92v-52h32v21h30v-43h-92v74
h-30v-104h152v104zM306 103h-152v-104h152v104zM276 72v-43h-92v43h92zM306 -23h-152v-30h64l-64 -43v-31h152v31h-93l64 43h29v30z" />
    <glyph glyph-name=".null" horiz-adv-x="0" 
 />
    <glyph glyph-name="nonmarkingreturn" horiz-adv-x="333" 
 />
    <glyph glyph-name="space" unicode=" " horiz-adv-x="315" 
 />
    <glyph glyph-name="exclam" unicode="!" horiz-adv-x="315" 
d="M180 201h-47l-9 314v185h65v-185zM120 82h74v-82h-74v82z" />
    <glyph glyph-name="quotedbl" unicode="&#x22;" horiz-adv-x="478" 
d="M175 491h-39l-11 209h62zM342 491h-39l-11 209h62z" />
    <glyph glyph-name="dollar" unicode="$" horiz-adv-x="958" 
d="M480 382q48 -4 77 -6.5t72.5 -9t70 -14.5t57.5 -22.5t48 -33t28.5 -45.5t11.5 -61q0 -102 -98.5 -153t-264.5 -51h-2v-119h-56v121q-249 12 -343 163l53 34q81 -127 290 -141v285q-58 5 -98.5 11t-86.5 19t-74 32.5t-47 52t-19 75.5q0 95 87 144t238 51v119h56v-120
q260 -9 354 -164l-52 -34q-83 133 -302 142v-275zM160 521q0 -30 14.5 -52.5t37 -36t59.5 -23t70.5 -14t82.5 -8.5v271q-121 -2 -192.5 -36t-71.5 -101zM482 42q137 0 219 35.5t82 110.5q0 27 -10.5 47.5t-34.5 34.5t-47 23t-64 15t-69 9t-78 7v-282h2z" />
    <glyph glyph-name="quotesingle" unicode="'" horiz-adv-x="311" 
d="M175 491h-39l-11 209h62z" />
    <glyph glyph-name="parenleft" unicode="(" horiz-adv-x="340" 
d="M302 -115h-59q-80 72 -122.5 176.5t-42.5 213.5t42.5 213.5t122.5 176.5h59q-84 -80 -125.5 -183.5t-41.5 -206.5t41.5 -206.5t125.5 -183.5z" />
    <glyph glyph-name="parenright" unicode=")" horiz-adv-x="340" 
d="M38 -115q84 80 125.5 183.5t41.5 206.5t-41.5 206.5t-125.5 183.5h59q80 -72 122.5 -176.5t42.5 -213.5t-42.5 -213.5t-122.5 -176.5h-59z" />
    <glyph glyph-name="comma" unicode="," horiz-adv-x="315" 
d="M138 -150h-40l46 150h-26v83h76v-76z" />
    <glyph glyph-name="hyphen" unicode="-" horiz-adv-x="312" 
d="M302 238h-292v47h292v-47z" />
    <glyph glyph-name="period" unicode="." horiz-adv-x="315" 
d="M120 83h75v-83h-75v83z" />
    <glyph glyph-name="slash" unicode="/" horiz-adv-x="622" 
d="M120 0h-66l448 700h66z" />
    <glyph glyph-name="zero" unicode="0" horiz-adv-x="964" 
d="M906 350q0 -165 -120 -264.5t-304 -99.5t-304 99.5t-120 264.5t120 265t304 100t304 -100t120 -265zM845 350q0 138 -103.5 223.5t-259.5 85.5q-155 0 -259 -85.5t-104 -223.5t104 -223t259 -85q156 0 259.5 85t103.5 223z" />
    <glyph glyph-name="one" unicode="1" horiz-adv-x="567" 
d="M418 0h-60v627h-4q-42 -57 -111 -112.5t-144 -93.5l-26 51q167 82 278 228h67v-700z" />
    <glyph glyph-name="two" unicode="2" horiz-adv-x="819" 
d="M192 55l582 -1v-54h-719v48q329 173 401 216q163 97 200 169q16 29 16 60q0 80 -74 122.5t-189 42.5q-230 0 -318 -156l-56 33q100 179 376 179q145 0 233.5 -56.5t88.5 -164.5q0 -22 -4.5 -42.5t-17 -41.5t-24.5 -38.5t-38.5 -40t-46.5 -38.5t-60.5 -41.5t-69 -42.5
t-83.5 -47t-91.5 -49.5t-105.5 -56.5z" />
    <glyph glyph-name="three" unicode="3" horiz-adv-x="875" 
d="M804 190q0 -95 -91 -149.5t-266 -54.5q-145 0 -242 42t-150 135l50 35q47 -84 131.5 -120t210.5 -36q144 0 220 41t76 113q0 137 -242 137h-229v54h229q109 0 166 36t57 95q0 140 -266 140q-117 0 -197 -33t-128 -109l-50 35q55 85 146.5 124t228.5 39q160 0 243 -48.5
t83 -142.5q0 -60 -38 -102t-106 -57v-4q77 -13 120.5 -55.5t43.5 -114.5z" />
    <glyph glyph-name="four" unicode="4" horiz-adv-x="891" 
d="M874 241v-55h-189v-186h-60v186h-576v47l560 467h76v-459h189zM148 241h477v394h-4z" />
    <glyph glyph-name="five" unicode="5" horiz-adv-x="876" 
d="M452 435q353 0 353 -224q0 -108 -91 -166.5t-266 -58.5q-145 0 -241.5 42t-150.5 135l50 36q86 -157 342 -157q146 0 221 43.5t75 125.5q0 167 -300 167q-94 0 -157 -11t-118 -40h-52v373h634v-55h-576v-259q99 49 277 49z" />
    <glyph glyph-name="six" unicode="6" horiz-adv-x="917" 
d="M482 441q186 0 285.5 -60.5t99.5 -167.5q0 -110 -104 -168.5t-280 -58.5q-201 0 -314 85t-113 267q0 183 108 279.5t289 96.5q266 0 372 -164l-50 -37q-93 145 -322 145q-151 0 -243 -81t-92 -239v-8h3q52 56 148.5 83.5t212.5 27.5zM483 42q144 0 233.5 43.5t89.5 127.5
q0 82 -86.5 127t-245.5 45q-243 0 -351 -112q38 -231 360 -231z" />
    <glyph glyph-name="seven" unicode="7" horiz-adv-x="739" 
d="M0 700h690v-51q-318 -353 -362 -649h-64q46 302 355 645h-619v55z" />
    <glyph glyph-name="eight" unicode="8" horiz-adv-x="864" 
d="M577 377q108 -23 169.5 -66.5t61.5 -124.5q0 -68 -53 -114.5t-137 -66t-193 -19.5q-101 0 -181.5 18.5t-134 61.5t-53.5 107q0 139 221 195q-89 21 -138.5 58t-49.5 102q0 87 95.5 136.5t246.5 49.5q153 0 248 -46t95 -129q0 -112 -197 -162zM150 531q0 -32 20 -54.5
t70.5 -37t84.5 -21t111 -17.5q9 -1 13 -2q132 21 198 53.5t66 83.5q0 55 -78.5 88.5t-206.5 33.5q-122 0 -200 -34.5t-78 -92.5zM430 42q136 0 226.5 36t90.5 106q0 40 -23 67t-75.5 44.5t-91.5 25t-118 19.5q-27 4 -40 6q-140 -23 -210.5 -61t-70.5 -105q0 -46 44 -78
t113 -46t155 -14z" />
    <glyph glyph-name="nine" unicode="9" horiz-adv-x="918" 
d="M435 714q201 0 314 -85t113 -267q0 -183 -108 -279.5t-289 -96.5q-266 0 -372 164l50 37q93 -145 322 -145q151 0 243 81t92 239v8h-3q-52 -56 -148.5 -83.5t-212.5 -27.5q-186 0 -285.5 60.5t-99.5 167.5q0 110 104 168.5t280 58.5zM444 315q243 0 351 112
q-38 231 -360 231q-144 0 -233.5 -43.5t-89.5 -127.5q0 -82 86.5 -127t245.5 -45z" />
    <glyph glyph-name="colon" unicode=":" horiz-adv-x="315" 
d="M120 502h75v-83h-75v83zM120 83h75v-83h-75v83z" />
    <glyph glyph-name="semicolon" unicode=";" horiz-adv-x="315" 
d="M120 502h75v-83h-75v83zM138 -150h-40l46 150h-26v83h76v-76z" />
    <glyph glyph-name="question" unicode="?" horiz-adv-x="694" 
d="M622 517q0 -75 -61 -148t-183 -168h-75q58 48 84 70t67 60.5t59 63.5t32.5 56.5t14.5 61.5q0 69 -63.5 107t-157.5 38q-198 0 -257 -157l-56 23q65 190 315 190q122 0 201.5 -51.5t79.5 -145.5zM306 82h74v-82h-74v82z" />
    <glyph glyph-name="at" unicode="@" horiz-adv-x="1040" 
d="M718 483h54v-264q0 -66 49 -66q46 0 77 46.5t31 116.5q0 136 -102 219.5t-301 83.5q-192 0 -303 -84t-111 -233q0 -148 114.5 -233.5t308.5 -85.5q87 0 171 19t127 52l29 -44q-50 -36 -139 -54.5t-188 -18.5q-217 0 -347 96t-130 269t127.5 268t346.5 95q221 0 335.5 -96
t114.5 -253q0 -98 -50 -153.5t-117 -55.5q-35 0 -60 19.5t-29 53.5h-4q-66 -79 -215 -79q-116 0 -191.5 54.5t-75.5 142.5t75.5 142t191.5 54q144 0 208 -76h3v65zM512 148q72 0 120 19t85 62v137q-36 44 -84 62.5t-121 18.5q-95 0 -154.5 -40.5t-59.5 -108.5
q0 -69 59 -109.5t155 -40.5z" />
    <glyph glyph-name="A" unicode="A" horiz-adv-x="869" 
d="M787 0l-126 232h-452l-126 -232h-68l382 700h76l382 -700h-68zM239 287h392l-194 356h-4z" />
    <glyph glyph-name="B" unicode="B" horiz-adv-x="900" 
d="M681 359q76 -14 117.5 -62t41.5 -113q0 -184 -259 -184h-432v700h413q132 0 195 -43t63 -134q0 -126 -139 -160v-4zM553 646h-344v-259h352q198 0 198 130q0 68 -48.5 98.5t-157.5 30.5zM574 54q107 0 156 33t49 104q0 69 -52.5 105.5t-152.5 36.5h-365v-279h365z" />
    <glyph glyph-name="C" unicode="C" horiz-adv-x="898" 
d="M119 350q0 -137 100.5 -222.5t249.5 -85.5q232 0 319 160l56 -33q-100 -183 -375 -183q-177 0 -294 99.5t-117 264.5q0 166 116.5 265t294.5 99q275 0 375 -179l-56 -33q-88 156 -319 156q-149 0 -249.5 -85t-100.5 -223z" />
    <glyph glyph-name="D" unicode="D" horiz-adv-x="963" 
d="M444 700q224 0 342.5 -91t118.5 -259t-118.5 -259t-342.5 -91h-295v700h295zM440 55q199 0 301.5 76.5t102.5 218.5t-102.5 218.5t-301.5 76.5h-231v-590h231z" />
    <glyph glyph-name="E" unicode="E" horiz-adv-x="875" 
d="M209 55h581v-55h-641v700h621v-55h-561v-262h429v-55h-429v-273z" />
    <glyph glyph-name="F" unicode="F" horiz-adv-x="796" 
d="M785 645h-576v-274h444v-55h-444v-316h-60v700h636v-55z" />
    <glyph glyph-name="G" unicode="G" horiz-adv-x="994" 
d="M904 363v-33q0 -154 -114.5 -249t-303.5 -95q-185 0 -306.5 99.5t-121.5 263.5q0 168 121.5 266.5t311.5 98.5q265 0 367 -164l-55 -37q-90 145 -314 145q-160 0 -265 -85t-105 -225q0 -137 105 -222.5t262 -85.5t255 77t101 191h-329v55h391z" />
    <glyph glyph-name="H" unicode="H" horiz-adv-x="1014" 
d="M806 700h59v-700h-59v326h-597v-326h-60v700h60v-317h597v317z" />
    <glyph glyph-name="I" unicode="I" horiz-adv-x="358" 
d="M209 0h-60v700h60v-700z" />
    <glyph glyph-name="J" unicode="J" horiz-adv-x="416" 
d="M36 -9v57q21 -5 54 -5q76 0 101.5 27.5t25.5 98.5v531h60v-551q0 -84 -41 -123.5t-142 -39.5q-38 0 -58 5z" />
    <glyph glyph-name="K" unicode="K" horiz-adv-x="895" 
d="M780 0l-412 351l-159 -116v-235h-60v700h60v-399l555 399h94l-439 -316l449 -384h-88z" />
    <glyph glyph-name="L" unicode="L" horiz-adv-x="756" 
d="M209 55h536v-55h-596v700h60v-645z" />
    <glyph glyph-name="M" unicode="M" horiz-adv-x="1170" 
d="M1021 700v-700h-60v618h-4l-341 -618h-62l-341 618h-4v-618h-60v700h85l349 -633h4l349 633h85z" />
    <glyph glyph-name="N" unicode="N" horiz-adv-x="996" 
d="M788 700h59v-700h-76l-558 626h-4v-626h-60v700h77l558 -628h4v628z" />
    <glyph glyph-name="O" unicode="O" horiz-adv-x="986" 
d="M928 350q0 -165 -122 -264.5t-313 -99.5q-190 0 -312.5 99.5t-122.5 264.5t122.5 265t312.5 100q191 0 313 -99.5t122 -265.5zM867 350q0 138 -106 223.5t-268 85.5t-268 -85.5t-106 -223.5t106 -223t268 -85t268 85t106 223z" />
    <glyph glyph-name="P" unicode="P" horiz-adv-x="855" 
d="M561 700q278 0 278 -212q0 -105 -66.5 -159t-211.5 -54h-352v-275h-60v700h412zM557 330q119 0 170 39.5t51 118.5q0 77 -51.5 117t-169.5 40h-348v-315h348z" />
    <glyph glyph-name="Q" unicode="Q" horiz-adv-x="1000" 
d="M935 350q0 -145 -98 -243l98 -79l-38 -45l-106 86q-115 -83 -291 -83q-190 0 -312.5 99.5t-122.5 264.5t122.5 265t312.5 100q191 0 313 -99.5t122 -265.5zM500 43q144 0 242 66l-129 105l38 45l138 -113q85 82 85 204q0 138 -106 223t-268 85t-268 -85t-106 -223
t106 -222.5t268 -84.5z" />
    <glyph glyph-name="R" unicode="R" horiz-adv-x="895" 
d="M763 0l-267 291h-287v-291h-60v700h409q142 0 206 -52.5t64 -152.5q0 -98 -60.5 -149.5t-194.5 -54.5l270 -291h-80zM209 645v-300h346q114 0 162.5 37.5t48.5 112.5q0 74 -48.5 112t-162.5 38h-346z" />
    <glyph glyph-name="S" unicode="S" horiz-adv-x="836" 
d="M762 190q0 -101 -93.5 -152.5t-236.5 -51.5q-266 0 -368 165l53 34q91 -143 315 -143q73 0 131 14t97.5 48t39.5 84q0 48 -34 77t-88.5 40t-120.5 16.5t-132 13.5t-120.5 24.5t-88.5 56.5t-34 103q0 96 86 145.5t221 49.5q262 0 362 -165l-52 -34q-90 143 -310 143
q-104 0 -175 -34.5t-71 -102.5q0 -43 26.5 -71t70 -39.5t99 -19.5t114 -10.5t114 -13.5t99 -28.5t70 -55.5t26.5 -93z" />
    <glyph glyph-name="T" unicode="T" horiz-adv-x="747" 
d="M734 700v-55h-331v-645h-60v645h-329v55h720z" />
    <glyph glyph-name="U" unicode="U" horiz-adv-x="995" 
d="M855 308q0 -158 -95.5 -240t-261.5 -82q-168 0 -263 81.5t-95 240.5v392h59v-385q0 -137 79.5 -205.5t219.5 -68.5q136 0 217 69t81 205v385h59v-392z" />
    <glyph glyph-name="V" unicode="V" horiz-adv-x="852" 
d="M464 0h-76l-373 700h69l340 -639h4l340 639h70z" />
    <glyph glyph-name="W" unicode="W" horiz-adv-x="1422" 
d="M1301 700h69l-297 -700h-76l-284 632h-4l-284 -632h-76l-297 700h69l264 -632h4l284 632h76l284 -632h4z" />
    <glyph glyph-name="X" unicode="X" horiz-adv-x="823" 
d="M788 0h-80l-293 315l-291 -315h-77l324 351l-324 349h79l292 -312l286 312h77l-320 -348z" />
    <glyph glyph-name="Y" unicode="Y" horiz-adv-x="770" 
d="M756 700l-341 -411v-289h-60v291l-341 409h77l294 -352h4l293 352h74z" />
    <glyph glyph-name="Z" unicode="Z" horiz-adv-x="770" 
d="M712 0h-654v51l559 594h-552v55h640v-50l-558 -595h565v-55z" />
    <glyph glyph-name="bracketleft" unicode="[" 
 />
    <glyph glyph-name="bracketright" unicode="]" 
 />
    <glyph glyph-name="underscore" unicode="_" horiz-adv-x="623" 
d="M613 -190h-603v48h603v-48z" />
    <glyph glyph-name="grave" unicode="`" 
 />
    <glyph glyph-name="a" unicode="a" horiz-adv-x="696" 
d="M600 105q0 -48 25 -101v-4h-59q-14 27 -22 57h-4q-88 -71 -244 -71q-106 0 -173.5 38t-67.5 117q0 66 49.5 99.5t161.5 45.5q108 10 276 14v29q0 73 -53.5 105.5t-141.5 32.5q-158 0 -216 -97l-45 31q70 116 261 116q115 0 184 -45.5t69 -147.5v-219zM300 34
q152 0 242 74v144q-167 -4 -265 -14q-90 -9 -127.5 -31.5t-37.5 -65.5q0 -54 53 -80.5t135 -26.5z" />
    <glyph glyph-name="b" unicode="b" horiz-adv-x="816" 
d="M441 517q140 0 229.5 -71.5t89.5 -194.5q0 -122 -89.5 -193.5t-229.5 -71.5q-174 0 -252 93h-4v-79h-55v730h57v-306h2q80 93 252 93zM432 38q116 0 192 57t76 156t-76 156.5t-192 57.5q-164 0 -245 -100v-228q81 -99 245 -99z" />
    <glyph glyph-name="c" unicode="c" horiz-adv-x="670" 
d="M115 252q0 -98 74.5 -155.5t186.5 -57.5q74 0 137 26.5t92 84.5l50 -27q-34 -69 -110.5 -103t-168.5 -34q-138 0 -229 72.5t-91 193.5q0 120 91 192.5t229 72.5q93 0 169 -32.5t110 -100.5l-50 -28q-28 57 -90.5 82.5t-138.5 25.5q-112 0 -186.5 -57.5t-74.5 -154.5z" />
    <glyph glyph-name="d" unicode="d" horiz-adv-x="816" 
d="M629 730h57v-730h-56v79h-4q-77 -93 -252 -93q-139 0 -228.5 71.5t-89.5 193.5q0 123 89.5 194.5t228.5 71.5q174 0 252 -93h3v306zM383 38q163 0 246 99v228q-82 100 -246 100q-116 0 -192 -57.5t-76 -156.5t76 -156t192 -57z" />
    <glyph glyph-name="e" unicode="e" horiz-adv-x="704" 
d="M377 37q76 0 138.5 25t92.5 78l49 -27q-38 -64 -113 -95.5t-167 -31.5q-140 0 -230.5 72.5t-90.5 193.5q0 119 89 192t218 73q132 0 216.5 -74.5t85.5 -204.5h-553q6 -93 80.5 -147t184.5 -54zM363 467q-96 0 -166 -49t-82 -132h491q-12 83 -78.5 132t-164.5 49z" />
    <glyph glyph-name="f" unicode="f" horiz-adv-x="414" 
d="M355 693q-77 0 -110.5 -31.5t-33.5 -108.5v-50h190v-52h-190v-451h-57v451h-104v52h104v55q0 96 48 141t150 45q37 0 67 -3v-51q-30 3 -64 3z" />
    <glyph glyph-name="g" unicode="g" horiz-adv-x="806" 
d="M620 503h56v-466q0 -126 -77.5 -183.5t-207.5 -57.5q-165 0 -235 94l43 35q57 -78 192 -78q228 0 228 190v62h-3q-80 -93 -244 -93q-137 0 -226.5 69.5t-89.5 185.5t89.5 186t226.5 70q164 0 244 -93h4v79zM379 58q157 0 240 99v209q-83 99 -240 99q-115 0 -189.5 -55.5
t-74.5 -148.5t74.5 -148t189.5 -55z" />
    <glyph glyph-name="h" unicode="h" horiz-adv-x="772" 
d="M416 517q261 0 261 -241v-276h-58v260q0 110 -55 157t-160 47q-136 0 -217 -100v-364h-57v730h57v-306h2q81 93 227 93z" />
    <glyph glyph-name="i" unicode="i" horiz-adv-x="317" 
d="M130 730h57v-94h-57v94zM130 503h57v-503h-57v503z" />
    <glyph glyph-name="j" unicode="j" horiz-adv-x="317" 
d="M130 730h57v-95h-57v95zM173 -190h-60v4q17 35 17 80v606h57v-620q0 -43 -14 -70z" />
    <glyph glyph-name="k" unicode="k" horiz-adv-x="696" 
d="M579 0l-285 245l-107 -77v-168h-57v730h57v-499l378 272h90l-313 -225l323 -278h-86z" />
    <glyph glyph-name="l" unicode="l" horiz-adv-x="317" 
d="M187 84q0 -45 17 -80v-4h-60q-14 27 -14 70v660h57v-646z" />
    <glyph glyph-name="m" unicode="m" horiz-adv-x="1225" 
d="M874 517q255 0 255 -241v-276h-58v260q0 110 -53 157t-152 47q-135 0 -216 -111q8 -37 8 -76v-277h-57v260q0 110 -53.5 157t-152.5 47q-127 0 -208 -100v-364h-57v503h55v-79h4q37 43 94.5 68t122.5 25q173 0 227 -114q38 52 104.5 83t136.5 31z" />
    <glyph glyph-name="n" unicode="n" horiz-adv-x="782" 
d="M421 517q265 0 265 -241v-276h-58v260q0 111 -55.5 157.5t-163.5 46.5q-141 0 -222 -100v-364h-57v503h55v-79h4q81 93 232 93z" />
    <glyph glyph-name="o" unicode="o" horiz-adv-x="767" 
d="M711 252q0 -122 -92 -194t-236 -72q-142 0 -234.5 72.5t-92.5 193.5t92.5 193t234.5 72q144 0 236 -72t92 -193zM651 252q0 99 -75.5 155.5t-192.5 56.5t-192.5 -56.5t-75.5 -155.5q0 -100 75.5 -156.5t192.5 -56.5t192.5 56.5t75.5 156.5z" />
    <glyph glyph-name="p" unicode="p" horiz-adv-x="816" 
d="M441 517q140 0 229.5 -71.5t89.5 -193.5q0 -123 -89.5 -194.5t-229.5 -71.5q-174 0 -252 93h-2v-269h-57v693h55v-79h4q80 93 252 93zM432 38q116 0 192 57.5t76 156.5t-76 156t-192 57q-164 0 -245 -100v-228q81 -99 245 -99z" />
    <glyph glyph-name="q" unicode="q" horiz-adv-x="816" 
d="M630 503h56v-693h-57v269h-3q-77 -93 -252 -93q-139 0 -228.5 71.5t-89.5 194.5q0 122 89.5 193.5t228.5 71.5q174 0 252 -93h4v79zM383 38q163 0 246 99v228q-82 100 -246 100q-116 0 -192 -57t-76 -156t76 -156.5t192 -57.5z" />
    <glyph glyph-name="r" unicode="r" horiz-adv-x="516" 
d="M423 517q35 0 62 -5v-52q-25 5 -67 5q-146 0 -231 -113v-353h-57v504h55v-91h4q79 105 234 105z" />
    <glyph glyph-name="s" unicode="s" horiz-adv-x="653" 
d="M592 141q0 -77 -70 -116t-184 -39q-91 0 -163.5 28.5t-107.5 88.5l46 31q57 -98 225 -98q85 0 140.5 25t55.5 75q0 33 -25 51.5t-65 25.5t-88.5 10t-97.5 8.5t-89 18t-65 42t-25 75.5q0 73 66.5 111.5t171.5 38.5q200 0 269 -117l-46 -31q-56 98 -223 98
q-78 0 -128.5 -24.5t-50.5 -71.5q0 -39 33.5 -59.5t84 -24t109.5 -9t109.5 -14t84 -39.5t33.5 -84z" />
    <glyph glyph-name="t" unicode="t" horiz-adv-x="391" 
d="M353 451h-142v-367q0 -45 17 -80v-4h-59q-15 28 -15 70v381h-104v52h104v147h57v-147h142v-52z" />
    <glyph glyph-name="u" unicode="u" horiz-adv-x="771" 
d="M586 503h57v-503h-55v79h-4q-81 -93 -227 -93q-260 0 -260 240v277h57v-261q0 -110 55 -156.5t160 -46.5q136 0 217 100v364z" />
    <glyph glyph-name="v" unicode="v" horiz-adv-x="663" 
d="M369 0h-75l-280 503h65l250 -450h4l251 450h65z" />
    <glyph glyph-name="w" unicode="w" horiz-adv-x="1074" 
d="M965 503h65l-218 -503h-75l-197 442h-4l-200 -442h-74l-218 503h65l188 -442h4l200 442h74l198 -442h4z" />
    <glyph glyph-name="x" unicode="x" horiz-adv-x="651" 
d="M616 0h-78l-215 218l-214 -218h-73l246 253l-246 250h77l215 -218l210 218h73l-242 -251z" />
    <glyph glyph-name="y" unicode="y" horiz-adv-x="659" 
d="M258 -190h-70v4q31 23 60 80l57 106l-301 503h66l265 -443h4l235 443h65l-332 -623q-30 -54 -49 -70z" />
    <glyph glyph-name="z" unicode="z" 
d="M542 0h-484v46l396 405h-391v52h474v-46l-396 -406h401v-51z" />
    <glyph glyph-name="braceleft" unicode="{" 
 />
    <glyph glyph-name="braceright" unicode="}" 
 />
    <glyph glyph-name="dieresis" unicode="&#xa8;" 
 />
    <glyph glyph-name="guillemotleft" unicode="&#xab;" 
 />
    <glyph glyph-name="acute" unicode="&#xb4;" 
 />
    <glyph glyph-name="periodcentered" unicode="&#xb7;" 
 />
    <glyph glyph-name="cedilla" unicode="&#xb8;" 
 />
    <glyph glyph-name="guillemotright" unicode="&#xbb;" 
 />
    <glyph glyph-name="Agrave" unicode="&#xc0;" 
 />
    <glyph glyph-name="Aacute" unicode="&#xc1;" 
 />
    <glyph glyph-name="Acircumflex" unicode="&#xc2;" 
 />
    <glyph glyph-name="Adieresis" unicode="&#xc4;" 
 />
    <glyph glyph-name="AE" unicode="&#xc6;" 
 />
    <glyph glyph-name="Ccedilla" unicode="&#xc7;" 
 />
    <glyph glyph-name="Egrave" unicode="&#xc8;" 
 />
    <glyph glyph-name="Eacute" unicode="&#xc9;" 
 />
    <glyph glyph-name="Ecircumflex" unicode="&#xca;" 
 />
    <glyph glyph-name="Edieresis" unicode="&#xcb;" 
 />
    <glyph glyph-name="Igrave" unicode="&#xcc;" 
 />
    <glyph glyph-name="Iacute" unicode="&#xcd;" 
 />
    <glyph glyph-name="Icircumflex" unicode="&#xce;" 
 />
    <glyph glyph-name="Idieresis" unicode="&#xcf;" 
 />
    <glyph glyph-name="Ograve" unicode="&#xd2;" 
 />
    <glyph glyph-name="Oacute" unicode="&#xd3;" 
 />
    <glyph glyph-name="Ocircumflex" unicode="&#xd4;" 
 />
    <glyph glyph-name="Odieresis" unicode="&#xd6;" 
 />
    <glyph glyph-name="Ugrave" unicode="&#xd9;" 
 />
    <glyph glyph-name="Uacute" unicode="&#xda;" 
 />
    <glyph glyph-name="Ucircumflex" unicode="&#xdb;" 
 />
    <glyph glyph-name="Udieresis" unicode="&#xdc;" 
 />
    <glyph glyph-name="germandbls" unicode="&#xdf;" 
 />
    <glyph glyph-name="agrave" unicode="&#xe0;" 
 />
    <glyph glyph-name="aacute" unicode="&#xe1;" 
 />
    <glyph glyph-name="acircumflex" unicode="&#xe2;" 
 />
    <glyph glyph-name="adieresis" unicode="&#xe4;" 
 />
    <glyph glyph-name="ae" unicode="&#xe6;" 
 />
    <glyph glyph-name="ccedilla" unicode="&#xe7;" 
 />
    <glyph glyph-name="egrave" unicode="&#xe8;" 
 />
    <glyph glyph-name="eacute" unicode="&#xe9;" 
 />
    <glyph glyph-name="ecircumflex" unicode="&#xea;" 
 />
    <glyph glyph-name="edieresis" unicode="&#xeb;" 
 />
    <glyph glyph-name="igrave" unicode="&#xec;" 
 />
    <glyph glyph-name="iacute" unicode="&#xed;" 
 />
    <glyph glyph-name="icircumflex" unicode="&#xee;" 
 />
    <glyph glyph-name="idieresis" unicode="&#xef;" 
 />
    <glyph glyph-name="ograve" unicode="&#xf2;" 
 />
    <glyph glyph-name="oacute" unicode="&#xf3;" 
 />
    <glyph glyph-name="ocircumflex" unicode="&#xf4;" 
 />
    <glyph glyph-name="odieresis" unicode="&#xf6;" 
 />
    <glyph glyph-name="ugrave" unicode="&#xf9;" 
 />
    <glyph glyph-name="uacute" unicode="&#xfa;" 
 />
    <glyph glyph-name="ucircumflex" unicode="&#xfb;" 
 />
    <glyph glyph-name="udieresis" unicode="&#xfc;" 
 />
    <glyph glyph-name="Cacute" unicode="&#x106;" 
 />
    <glyph glyph-name="cacute" unicode="&#x107;" 
 />
    <glyph glyph-name="Ccircumflex" unicode="&#x108;" 
 />
    <glyph glyph-name="ccircumflex" unicode="&#x109;" 
 />
    <glyph glyph-name="Gcircumflex" unicode="&#x11c;" 
 />
    <glyph glyph-name="gcircumflex" unicode="&#x11d;" 
 />
    <glyph glyph-name="Hcircumflex" unicode="&#x124;" 
 />
    <glyph glyph-name="hcircumflex" unicode="&#x125;" 
 />
    <glyph glyph-name="IJ" unicode="&#x132;" horiz-adv-x="774" 
d="M209 0h-60v700h60v-700zM394 -9v57q21 -5 54 -5q76 0 101.5 27.5t25.5 98.5v531h60v-551q0 -84 -41 -123.5t-142 -39.5q-38 0 -58 5z" />
    <glyph glyph-name="ij" unicode="&#x133;" horiz-adv-x="634" 
d="M130 730h57v-94h-57v94zM447 730h57v-95h-57v95zM130 503h57v-503h-57v503zM490 -190h-60v4q17 35 17 80v606h57v-620q0 -43 -14 -70z" />
    <glyph glyph-name="Jcircumflex" unicode="&#x134;" 
 />
    <glyph glyph-name="jcircumflex" unicode="&#x135;" 
 />
    <glyph glyph-name="Lacute" unicode="&#x139;" 
 />
    <glyph glyph-name="lacute" unicode="&#x13a;" 
 />
    <glyph glyph-name="Nacute" unicode="&#x143;" 
 />
    <glyph glyph-name="nacute" unicode="&#x144;" 
 />
    <glyph glyph-name="OE" unicode="&#x152;" 
 />
    <glyph glyph-name="oe" unicode="&#x153;" 
 />
    <glyph glyph-name="Racute" unicode="&#x154;" 
 />
    <glyph glyph-name="racute" unicode="&#x155;" 
 />
    <glyph glyph-name="AEacute" unicode="&#x1fc;" 
 />
    <glyph glyph-name="aeacute" unicode="&#x1fd;" 
 />
    <glyph glyph-name="circumflex" unicode="&#x2c6;" 
 />
    <glyph glyph-name="endash" unicode="&#x2013;" horiz-adv-x="623" 
d="M613 238h-603v47h603v-47z" />
    <glyph glyph-name="emdash" unicode="&#x2014;" horiz-adv-x="1247" 
d="M1237 238h-1227v47h1227v-47z" />
    <glyph glyph-name="quoteleft" unicode="&#x2018;" horiz-adv-x="311" 
d="M168 707h38l-39 -130h26v-83h-76v76z" />
    <glyph glyph-name="quoteright" unicode="&#x2019;" horiz-adv-x="311" 
d="M143 487h-38l39 130h-26v83h76v-76z" />
    <glyph glyph-name="quotesinglbase" unicode="&#x201a;" 
d="M138 -150h-40l46 150h-26v83h76v-76z" />
    <glyph glyph-name="quotedblleft" unicode="&#x201c;" horiz-adv-x="478" 
d="M168 707h38l-39 -130h26v-83h-76v76zM335 707h38l-39 -130h26v-83h-76v76z" />
    <glyph glyph-name="quotedblright" unicode="&#x201d;" horiz-adv-x="478" 
d="M143 487h-38l39 130h-26v83h76v-76zM310 487h-38l39 130h-26v83h76v-76z" />
    <glyph glyph-name="quotedblbase" unicode="&#x201e;" 
d="M118 83h76v-76l-56 -157h-40l46 150h-26v83z" />
    <glyph glyph-name="ellipsis" unicode="&#x2026;" 
d="M120 83h75v-83h-75v83z" />
    <glyph glyph-name="guilsinglleft" unicode="&#x2039;" 
 />
    <glyph glyph-name="guilsinglright" unicode="&#x203a;" 
 />
    <glyph glyph-name="Euro" unicode="&#x20ac;" horiz-adv-x="958" 
d="M536 42q221 0 308 160l56 -33q-100 -183 -364 -183q-149 0 -258 73.5t-140 200.5h-109v51h101q-2 26 -2 39t2 39h-101v52h110q30 127 139 200t258 73q264 0 364 -179l-56 -33q-88 156 -308 156q-120 0 -211.5 -58.5t-122.5 -158.5h473v-52h-484q-2 -26 -2 -39t2 -39h484
v-51h-473q30 -100 122 -159t212 -59z" />
    <glyph glyph-name="fi" unicode="&#xfb01;" horiz-adv-x="731" 
d="M154 558q0 96 48 141t150 45q37 0 67 -3v-51q-30 3 -64 3q-77 0 -110.5 -31.5t-33.5 -108.5v-50h190v-52h-190v-451h-57v451h-104v52h104v55zM544 730h57v-94h-57v94zM544 0v503h57v-503h-57z" />
    <glyph glyph-name="fl" unicode="&#xfb02;" horiz-adv-x="731" 
d="M154 558q0 96 48 141t150 45q37 0 67 -3v-51q-30 3 -64 3q-77 0 -110.5 -31.5t-33.5 -108.5v-50h190v-52h-190v-451h-57v451h-104v52h104v55zM601 84q0 -45 17 -80v-4h-60q-14 27 -14 70v660h57v-646z" />
    <glyph glyph-name="G.ss02" horiz-adv-x="994" 
d="M868 363v-363h-55v79h-3q-97 -93 -315 -93q-195 0 -316 99t-121 264q0 168 119 266.5t308 98.5q265 0 367 -164l-56 -37q-89 145 -313 145q-160 0 -262 -84.5t-102 -225.5q0 -138 106.5 -223t277.5 -85q212 0 308 99v169h-298v55h355z" />
    <glyph glyph-name="germandbls.cap" 
 />
    <glyph glyph-name="a.ss01" horiz-adv-x="818" 
d="M680 105q0 -48 25 -101v-4h-60q-19 42 -21 79h-4q-80 -93 -252 -93q-135 0 -223.5 71.5t-88.5 194.5q0 122 88.5 193.5t223.5 71.5q172 0 252 -93h4v79h56v-398zM379 38q83 0 141.5 23t101.5 76v228q-43 54 -101 77t-142 23q-113 0 -188.5 -57.5t-75.5 -155.5
q0 -99 75.5 -156.5t188.5 -57.5z" />
    <glyph glyph-name="y.ss01" horiz-adv-x="663" 
d="M584 503h65l-289 -503v-190h-57v190l-289 503h65l250 -441h4z" />
    <glyph glyph-name="j.ss02" horiz-adv-x="317" 
d="M130 730h57v-93h-57v93zM-19 -199v51q19 -5 47 -5q57 0 79.5 29t22.5 97v527h57v-532q0 -90 -35.5 -131t-117.5 -41q-34 0 -53 5z" />
    <glyph glyph-name="t.ss02" horiz-adv-x="470" 
d="M337 37q34 0 67 3v-51q-32 -3 -70 -3q-92 0 -136 44t-44 143v278h-104v52h104v147h58v-147h189v-52h-189v-272q0 -78 30 -110t95 -32z" />
    <glyph glyph-name="y.ss03" horiz-adv-x="771" 
d="M586 503h57v-466q0 -126 -75 -183.5t-203 -57.5q-142 0 -210 80l31 42q59 -71 179 -71q99 0 160 44t61 143v45h-2q-81 -93 -227 -93q-260 0 -260 240v277h57v-262q0 -110 55 -157t160 -47q135 0 217 100v366z" />
    <glyph glyph-name="f_f" horiz-adv-x="828" 
d="M154 558q0 96 48 141t150 45q37 0 67 -3v-51q-30 3 -64 3q-77 0 -110.5 -31.5t-33.5 -108.5v-50h190v-52h-190v-451h-57v451h-104v52h104v55zM769 693q-77 0 -110.5 -31.5t-33.5 -108.5v-50h190v-52h-190v-451h-57v451h-104v52h104v55q0 96 48 141t150 45q37 0 67 -3v-51
q-30 3 -64 3z" />
    <glyph glyph-name="f_f_i" horiz-adv-x="1145" 
d="M154 558q0 96 48 141t150 45q37 0 67 -3v-51q-30 3 -64 3q-77 0 -110.5 -31.5t-33.5 -108.5v-50h190v-52h-190v-451h-57v451h-104v52h104v55zM568 558q0 96 48 141t150 45q37 0 67 -3v-51q-30 3 -64 3q-77 0 -110.5 -31.5t-33.5 -108.5v-50h190v-52h-190v-451h-57v451
h-104v52h104v55zM958 730h57v-94h-57v94zM958 0v503h57v-503h-57z" />
    <glyph glyph-name="f_f_l" horiz-adv-x="1145" 
d="M154 558q0 96 48 141t150 45q37 0 67 -3v-51q-30 3 -64 3q-77 0 -110.5 -31.5t-33.5 -108.5v-50h190v-52h-190v-451h-57v451h-104v52h104v55zM568 558q0 96 48 141t150 45q37 0 67 -3v-51q-30 3 -64 3q-77 0 -110.5 -31.5t-33.5 -108.5v-50h190v-52h-190v-451h-57v451
h-104v52h104v55zM1015 84q0 -45 17 -80v-4h-60q-14 27 -14 70v660h57v-646z" />
    <glyph glyph-name="fi.cap" horiz-adv-x="731" 
d="M154 558q0 96 48 141t150 45q37 0 67 -3v-51q-30 3 -64 3q-77 0 -110.5 -31.5t-33.5 -108.5v-50h190v-52h-190v-451h-57v451h-104v52h104v55zM544 730h57v-94h-57v94zM544 0v503h57v-503h-57z" />
    <glyph glyph-name="fl.cap" horiz-adv-x="731" 
d="M154 558q0 96 48 141t150 45q37 0 67 -3v-51q-30 3 -64 3q-77 0 -110.5 -31.5t-33.5 -108.5v-50h190v-52h-190v-451h-57v451h-104v52h104v55zM601 84q0 -45 17 -80v-4h-60q-14 27 -14 70v660h57v-646z" />
    <glyph glyph-name="periodcentered.cap" 
 />
    <glyph glyph-name="exclamdown.cap" 
 />
    <glyph glyph-name="questiondown.cap" 
 />
    <glyph glyph-name="parenleft.cap" 
 />
    <glyph glyph-name="parenright.cap" 
 />
    <glyph glyph-name="emdash.cap" 
 />
    <glyph glyph-name="endash.cap" 
 />
    <glyph glyph-name="hyphen.cap" 
 />
    <glyph glyph-name="guillemotleft.cap" 
 />
    <glyph glyph-name="guillemotright.cap" 
 />
    <glyph glyph-name="guilsinglleft.cap" 
 />
    <glyph glyph-name="guilsinglright.cap" 
 />
    <glyph glyph-name="acute.cap" 
 />
    <glyph glyph-name="circumflex.cap" 
 />
    <glyph glyph-name="dieresis.cap" 
 />
    <glyph glyph-name="grave.cap" 
 />
  </font>
</defs>
</svg>
