<?xml version="1.0" standalone="no"?>
<!DOCTYPE svg PUBLIC "-//W3C//DTD SVG 1.1//EN" "http://www.w3.org/Graphics/SVG/1.1/DTD/svg11.dtd" >
<svg xmlns="http://www.w3.org/2000/svg" xmlns:xlink="http://www.w3.org/1999/xlink" version="1.1">
<metadata>
Created by FontForge 20170731 at Fri Feb 23 16:37:42 2018
 By Aleksey,,,
copyright missing
</metadata>
<defs>
<font id="IndusHtest-RegularExtended" horiz-adv-x="600" >
  <font-face 
    font-family="IndusHtest Extended"
    font-weight="400"
    font-stretch="expanded"
    units-per-em="1000"
    panose-1="0 0 5 5 0 0 0 0 0 0"
    ascent="800"
    descent="-200"
    x-height="505"
    cap-height="700"
    bbox="-27 -204 1417 831"
    underline-thickness="50"
    underline-position="-200"
    unicode-range="U+0020-FB02"
  />
<missing-glyph horiz-adv-x="460" 
d="M377 730v-920h-291v920h291zM306 668h-151v-30h59v-34h-60v-30h152v30h-60v34h60v30zM246 550h-92v-96h152v31h-60v65zM214 518v-33h-30v33h30zM306 429h-152v-30h60v-34h-60v-31h92v65h60v30zM306 374h-30v-61h-122v-31h152v92zM306 262h-92v-52h32v21h30v-43h-92v74
h-30v-104h152v104zM306 103h-152v-104h152v104zM276 72v-43h-92v43h92zM306 -23h-152v-30h64l-64 -43v-31h152v31h-93l64 43h29v30z" />
    <glyph glyph-name=".notdef" horiz-adv-x="460" 
d="M377 730v-920h-291v920h291zM306 668h-151v-30h59v-34h-60v-30h152v30h-60v34h60v30zM246 550h-92v-96h152v31h-60v65zM214 518v-33h-30v33h30zM306 429h-152v-30h60v-34h-60v-31h92v65h60v30zM306 374h-30v-61h-122v-31h152v92zM306 262h-92v-52h32v21h30v-43h-92v74
h-30v-104h152v104zM306 103h-152v-104h152v104zM276 72v-43h-92v43h92zM306 -23h-152v-30h64l-64 -43v-31h152v31h-93l64 43h29v30z" />
    <glyph glyph-name=".null" horiz-adv-x="0" 
 />
    <glyph glyph-name="nonmarkingreturn" horiz-adv-x="333" 
 />
    <glyph glyph-name="space" unicode=" " horiz-adv-x="319" 
 />
    <glyph glyph-name="exclam" unicode="!" horiz-adv-x="319" 
d="M195 211h-71l-12 304v185h95v-185zM110 102h100v-102h-100v102z" />
    <glyph glyph-name="quotedbl" unicode="&#x22;" horiz-adv-x="504" 
d="M186 466h-56l-16 234h89zM373 466h-56l-16 234h89z" />
    <glyph glyph-name="dollar" unicode="$" horiz-adv-x="967" 
d="M860 197q0 -103 -95.5 -155.5t-260.5 -55.5v-117h-85v119q-124 7 -208.5 44.5t-134.5 113.5l77 53q41 -58 105 -88t161 -38v241q-72 7 -121 16.5t-99.5 30t-76.5 58t-26 91.5q0 97 84.5 148t238.5 56v117h85v-118q125 -6 210.5 -43.5t136.5 -115.5l-78 -53
q-81 116 -269 126v-233q52 -4 87.5 -8.5t81 -13t75.5 -22.5t57.5 -34t41 -50t13.5 -69zM190 516q0 -30 17 -51t51.5 -33.5t70.5 -19t90 -11.5v228q-229 -8 -229 -113zM504 71q262 3 262 121q0 32 -19.5 53t-61 33t-79.5 18t-102 11v-236z" />
    <glyph glyph-name="quotesingle" unicode="'" horiz-adv-x="316" 
d="M186 466h-56l-16 234h89z" />
    <glyph glyph-name="parenleft" unicode="(" horiz-adv-x="364" 
d="M329 -115h-86q-82 72 -125 176.5t-43 213.5t43 213.5t125 176.5h86q-84 -79 -125.5 -183t-41.5 -207t41.5 -207t125.5 -183z" />
    <glyph glyph-name="parenright" unicode=")" horiz-adv-x="364" 
d="M35 -115q84 79 125.5 183t41.5 207t-41.5 207t-125.5 183h86q82 -72 125 -176.5t43 -213.5t-43 -213.5t-125 -176.5h-86z" />
    <glyph glyph-name="comma" unicode="," horiz-adv-x="319" 
d="M148 -156h-58l49 156h-32v105h103v-95z" />
    <glyph glyph-name="hyphen" unicode="-" horiz-adv-x="317" 
d="M307 228h-297v70h297v-70z" />
    <glyph glyph-name="period" unicode="." horiz-adv-x="319" 
d="M108 105h103v-105h-103v105z" />
    <glyph glyph-name="slash" unicode="/" horiz-adv-x="632" 
d="M147 0h-99l438 700h98z" />
    <glyph glyph-name="zero" unicode="0" horiz-adv-x="980" 
d="M925 350q0 -165 -122.5 -264.5t-312.5 -99.5q-189 0 -311.5 99.5t-122.5 264.5q0 166 122 265.5t312 99.5t312.5 -99.5t122.5 -265.5zM831 350q0 124 -96.5 201.5t-244.5 77.5q-147 0 -243.5 -77.5t-96.5 -201.5t96 -201t244 -77t244.5 77t96.5 201z" />
    <glyph glyph-name="one" unicode="1" horiz-adv-x="576" 
d="M436 0h-90v593h-4q-41 -53 -106.5 -106t-135.5 -89l-39 75q77 38 152 98.5t126 128.5h97v-700z" />
    <glyph glyph-name="two" unicode="2" horiz-adv-x="829" 
d="M268 82h520v-83l-734 1v69q332 166 422 220q143 87 169 155q8 20 8 41q0 70 -67.5 106.5t-172.5 36.5q-216 0 -299 -144l-84 53q105 177 386 177q149 0 240 -57.5t91 -171.5q0 -32 -11 -62t-27 -55t-50.5 -54t-66.5 -51.5t-90.5 -56t-105.5 -58t-128 -66.5z" />
    <glyph glyph-name="three" unicode="3" horiz-adv-x="877" 
d="M813 191q0 -95 -92 -150t-273 -55q-147 0 -247 39.5t-157 129.5l72 56q45 -75 127.5 -107t204.5 -32q132 0 201.5 35t69.5 96q0 60 -49.5 87t-157.5 27h-242v83h242q93 0 141.5 29t48.5 80q0 120 -247 120q-225 0 -313 -126l-72 56q111 155 385 155q164 0 251 -49
t87 -147q0 -58 -34.5 -99t-96.5 -56v-4q71 -12 111 -54.5t40 -113.5z" />
    <glyph glyph-name="four" unicode="4" horiz-adv-x="897" 
d="M879 255v-83h-182v-172h-90v172h-560v69l533 459h117v-445h182zM194 255h413v352h-4z" />
    <glyph glyph-name="five" unicode="5" horiz-adv-x="880" 
d="M466 444q349 0 349 -226q0 -111 -92.5 -171.5t-272.5 -60.5q-146 0 -246.5 40t-157.5 129l72 56q83 -139 332 -139q134 0 203 37.5t69 108.5q0 140 -273 140q-169 0 -264 -48h-78v390h654v-83h-567v-221q102 48 272 48z" />
    <glyph glyph-name="six" unicode="6" horiz-adv-x="925" 
d="M496 447q184 0 284 -62t100 -170q0 -111 -104.5 -170t-285.5 -59q-201 0 -319 87.5t-118 267.5q0 179 111.5 276t297.5 97q263 0 376 -158l-71 -58q-98 130 -305 130q-140 0 -227 -71.5t-88 -210.5h3q52 50 145.5 75.5t200.5 25.5zM490 72q133 0 215 35t82 108
q0 71 -79 108.5t-227 37.5q-226 0 -326 -94q43 -195 335 -195z" />
    <glyph glyph-name="seven" unicode="7" horiz-adv-x="734" 
d="M0 700h694v-77q-307 -338 -347 -623h-98q44 292 340 617h-589v83z" />
    <glyph glyph-name="eight" unicode="8" horiz-adv-x="877" 
d="M635 378q89 -24 139 -67.5t50 -117.5q0 -105 -107.5 -156t-287.5 -51q-165 0 -270.5 46.5t-105.5 141.5q0 129 185 187q-72 22 -112 59t-40 98q0 93 97 144.5t254 51.5q161 0 257 -47t96 -138q0 -99 -155 -151zM179 524q0 -27 20 -46.5t62.5 -31.5t80.5 -19t102 -15
l24 -3q118 21 173 47.5t55 67.5q0 47 -71 76t-193 29q-113 0 -183 -28.5t-70 -76.5zM436 72q129 0 211.5 29.5t82.5 87.5q0 33 -22.5 57t-66.5 37.5t-88.5 22t-108.5 17.5q-10 1 -15.5 2t-14 2t-15.5 2q-131 -26 -191.5 -58t-60.5 -85q0 -55 81 -84.5t208 -29.5z" />
    <glyph glyph-name="nine" unicode="9" horiz-adv-x="928" 
d="M438 714q201 0 319 -87.5t118 -267.5q0 -179 -111.5 -276t-297.5 -97q-263 0 -376 158l71 58q98 -130 305 -130q140 0 227 71.5t88 210.5h-3q-52 -50 -145.5 -75.5t-200.5 -25.5q-184 0 -284 62t-100 170q0 111 104.5 170t285.5 59zM141 485q0 -71 79 -108.5t227 -37.5
q226 0 326 94q-43 195 -335 195q-133 0 -215 -35t-82 -108z" />
    <glyph glyph-name="colon" unicode=":" horiz-adv-x="319" 
d="M108 505h103v-105h-103v105zM108 105h103v-105h-103v105z" />
    <glyph glyph-name="semicolon" unicode=";" horiz-adv-x="319" 
d="M108 505h103v-105h-103v105zM148 -156h-58l49 156h-32v105h103v-95z" />
    <glyph glyph-name="question" unicode="?" horiz-adv-x="696" 
d="M637 509q0 -73 -59 -142t-177 -156h-112q66 51 101 80t75.5 69t58 73.5t17.5 66.5q0 63 -58 96t-146 33q-182 0 -239 -138l-85 35q19 53 54.5 91.5t81.5 58.5t92.5 29t98.5 9q129 0 213 -54t84 -151zM293 102h100v-102h-100v102z" />
    <glyph glyph-name="at" unicode="@" horiz-adv-x="1075" 
d="M713 483h81v-245q0 -65 49 -65q42 0 70 40.5t28 106.5q0 128 -100.5 203t-294.5 75q-190 0 -299.5 -77.5t-109.5 -218.5t113.5 -219.5t309.5 -78.5q81 0 161 17t127 46l38 -66q-54 -31 -143 -47.5t-183 -16.5q-228 0 -366 95.5t-138 269.5q0 173 135 268t361 95
t346.5 -96t120.5 -249q0 -100 -55.5 -156.5t-130.5 -56.5q-38 0 -67 18t-38 51h-3q-70 -75 -207 -75q-112 0 -187 54.5t-75 142.5t75 142t187 54q129 0 192 -70h3v59zM529 168q121 0 183 73v113q-62 73 -183 73q-82 0 -135 -36t-53 -93q0 -61 52 -95.5t136 -34.5z" />
    <glyph glyph-name="A" unicode="A" horiz-adv-x="899" 
d="M782 0l-112 208h-442l-111 -208h-101l375 700h117l375 -700h-101zM272 290h354l-175 327h-4z" />
    <glyph glyph-name="B" unicode="B" horiz-adv-x="910" 
d="M697 358q76 -14 117.5 -62t41.5 -113q0 -93 -64.5 -138t-196.5 -45h-455v700h438q133 0 195.5 -43t62.5 -135q0 -60 -35.5 -102t-103.5 -58v-4zM563 619h-333v-219h340q173 0 173 110q0 58 -42.5 83.5t-137.5 25.5zM583 81q94 0 137 27.5t43 89.5q0 120 -180 120h-353
v-237h353z" />
    <glyph glyph-name="C" unicode="C" horiz-adv-x="897" 
d="M150 350q0 -123 93 -200.5t229 -77.5q211 0 293 146l84 -53q-105 -179 -377 -179q-179 0 -297.5 99.5t-118.5 264.5t118.5 264.5t297.5 99.5q272 0 377 -177l-84 -53q-83 144 -293 144q-136 0 -229 -77t-93 -201z" />
    <glyph glyph-name="D" unicode="D" horiz-adv-x="969" 
d="M449 700q229 0 346.5 -90.5t117.5 -259.5q0 -168 -117.5 -259t-346.5 -91h-309v700h309zM444 83q188 0 282 69.5t94 197.5q0 130 -94 198.5t-282 68.5h-214v-534h214z" />
    <glyph glyph-name="E" unicode="E" horiz-adv-x="873" 
d="M230 82h562v-82h-652v700h632v-82h-542v-221h410v-83h-410v-232z" />
    <glyph glyph-name="F" unicode="F" horiz-adv-x="799" 
d="M787 618h-557v-239h425v-82h-425v-297h-90v700h647v-82z" />
    <glyph glyph-name="G" unicode="G" horiz-adv-x="1000" 
d="M915 376v-38q0 -160 -115 -256t-308 -96q-190 0 -313 99t-123 264q0 169 123.5 267t318.5 98q263 0 372 -158l-84 -58q-43 64 -118.5 97t-172.5 33q-151 0 -248 -77.5t-97 -204.5q0 -122 97 -200.5t245 -78.5q145 0 234.5 66.5t95.5 160.5h-308v82h401z" />
    <glyph glyph-name="H" unicode="H" horiz-adv-x="1020" 
d="M790 700h90v-700h-90v312h-560v-312h-90v700h90v-302h560v302z" />
    <glyph glyph-name="I" unicode="I" horiz-adv-x="370" 
d="M230 0h-90v700h90v-700z" />
    <glyph glyph-name="J" unicode="J" horiz-adv-x="436" 
d="M37 -9v87q21 -5 56 -5q74 0 99 26t25 93v508h90v-538q0 -92 -46.5 -134t-159.5 -42q-41 0 -64 5z" />
    <glyph glyph-name="K" unicode="K" horiz-adv-x="908" 
d="M754 0l-373 334l-151 -115v-219h-90v700h90v-382l506 382h138l-416 -315l426 -385h-130z" />
    <glyph glyph-name="L" unicode="L" horiz-adv-x="759" 
d="M230 82h517v-82h-607v700h90v-618z" />
    <glyph glyph-name="M" unicode="M" horiz-adv-x="1190" 
d="M1050 700v-700h-91v571h-4l-315 -571h-90l-316 571h-4v-571h-90v700h124l329 -595h4l329 595h124z" />
    <glyph glyph-name="N" unicode="N" horiz-adv-x="1005" 
d="M775 700h90v-700h-111l-520 583h-4v-583h-90v700h112l519 -587h4v587z" />
    <glyph glyph-name="O" unicode="O" horiz-adv-x="1000" 
d="M944 349q0 -165 -124 -264t-320 -99t-320 99t-124 264q0 166 124 266t320 100t320 -100t124 -266zM851 349q0 125 -98.5 202.5t-252.5 77.5t-252 -77.5t-98 -202.5q0 -124 98 -200.5t252 -76.5t252.5 76.5t98.5 200.5z" />
    <glyph glyph-name="P" unicode="P" horiz-adv-x="868" 
d="M568 700q284 0 284 -220q0 -219 -284 -219h-338v-261h-90v700h428zM564 343q104 0 149.5 34.5t45.5 102.5t-45.5 103t-149.5 35h-334v-275h334z" />
    <glyph glyph-name="Q" unicode="Q" horiz-adv-x="1008" 
d="M948 349q0 -136 -87 -229l87 -71l-58 -70l-100 81q-117 -74 -286 -74q-196 0 -320 99t-124 264q0 166 124 266t320 100t320 -100t124 -266zM504 74q122 0 210 48l-124 101l58 70l141 -114q66 71 66 170q0 125 -98.5 201.5t-252.5 76.5t-252 -76.5t-98 -201.5
q0 -124 97.5 -199.5t252.5 -75.5z" />
    <glyph glyph-name="R" unicode="R" horiz-adv-x="902" 
d="M735 0l-250 272h-255v-272h-90v700h424q277 0 277 -215q0 -199 -240 -212l255 -273h-121zM230 618v-265h330q100 0 143.5 33t43.5 99t-43.5 99.5t-143.5 33.5h-330z" />
    <glyph glyph-name="S" unicode="S" horiz-adv-x="836" 
d="M771 197q0 -71 -47.5 -119.5t-121.5 -70t-169 -21.5q-268 0 -374 160l77 53q90 -128 297 -128q66 0 118.5 11t89 39t36.5 71q0 42 -33 66.5t-85.5 33.5t-116.5 14.5t-128 14.5t-116.5 26.5t-85.5 58.5t-33 104q0 100 87.5 152t231.5 52q258 0 364 -160l-78 -53
q-89 128 -286 128q-62 0 -110.5 -10.5t-81.5 -37t-33 -65.5q0 -43 33 -68t85.5 -34.5t116.5 -14.5t128 -14t116.5 -26.5t85.5 -58.5t33 -103z" />
    <glyph glyph-name="T" unicode="T" horiz-adv-x="765" 
d="M747 700v-82h-320v-618h-90v618h-319v82h729z" />
    <glyph glyph-name="U" unicode="U" horiz-adv-x="1002" 
d="M871 316q0 -165 -98 -247.5t-272 -82.5t-272 82.5t-98 247.5v384h90v-375q0 -129 74.5 -192.5t205.5 -63.5q130 0 204.5 64t74.5 192v375h91v-384z" />
    <glyph glyph-name="V" unicode="V" horiz-adv-x="885" 
d="M501 0h-118l-367 700h105l319 -610h4l320 610h105z" />
    <glyph glyph-name="W" unicode="W" horiz-adv-x="1468" 
d="M1313 700h104l-295 -700h-118l-268 599h-4l-269 -599h-117l-295 700h104l248 -599h4l269 599h117l268 -599h4z" />
    <glyph glyph-name="X" unicode="X" horiz-adv-x="841" 
d="M810 0h-120l-268 297l-266 -297h-116l317 352l-317 348h120l266 -292l261 292h116l-312 -348z" />
    <glyph glyph-name="Y" unicode="Y" horiz-adv-x="797" 
d="M783 700l-339 -417v-283h-91v284l-339 416h116l270 -330h4l269 330h110z" />
    <glyph glyph-name="Z" unicode="Z" horiz-adv-x="780" 
d="M724 0h-668v76l525 542h-518v82h654v-75l-526 -543h533v-82z" />
    <glyph glyph-name="bracketleft" unicode="[" 
 />
    <glyph glyph-name="bracketright" unicode="]" 
 />
    <glyph glyph-name="underscore" unicode="_" horiz-adv-x="635" 
d="M625 -190h-615v69h615v-69z" />
    <glyph glyph-name="grave" unicode="`" 
 />
    <glyph glyph-name="a" unicode="a" horiz-adv-x="702" 
d="M614 109q0 -54 24 -105v-4h-89q-13 26 -21 53h-4q-85 -67 -233 -67q-105 0 -173.5 40t-68.5 121q0 68 51.5 102.5t164.5 45.5q103 11 262 13v25q0 58 -49 85.5t-130 27.5q-147 0 -206 -85l-62 49q74 109 268 109q266 0 266 -200v-210zM299 56q143 0 228 68v115
q-142 -4 -251 -13q-78 -7 -111 -25.5t-33 -53.5q0 -46 47.5 -68.5t119.5 -22.5z" />
    <glyph glyph-name="b" unicode="b" horiz-adv-x="815" 
d="M447 519q138 0 227.5 -71.5t89.5 -195.5q0 -123 -89.5 -194.5t-227.5 -71.5q-163 0 -240 85h-4v-71h-86v730h87v-296h3q75 85 240 85zM429 63q105 0 175 51t70 138t-70 138.5t-175 51.5q-149 0 -225 -88v-202q76 -89 225 -89z" />
    <glyph glyph-name="c" unicode="c" horiz-adv-x="674" 
d="M142 253q0 -85 68 -136.5t170 -51.5q155 0 210 97l73 -45q-39 -67 -115.5 -99t-167.5 -32q-143 0 -236 72.5t-93 194.5q0 121 93 193.5t236 72.5q92 0 168 -31t115 -98l-73 -45q-53 95 -210 95q-102 0 -170 -51t-68 -136z" />
    <glyph glyph-name="d" unicode="d" horiz-adv-x="815" 
d="M611 730h87v-730h-85v71h-4q-78 -85 -240 -85q-139 0 -228.5 71.5t-89.5 194.5q0 124 89.5 195.5t228.5 71.5q163 0 240 -85h2v296zM387 63q149 0 224 89v202q-74 88 -224 88q-105 0 -175 -51.5t-70 -138.5t70 -138t175 -51z" />
    <glyph glyph-name="e" unicode="e" horiz-adv-x="717" 
d="M381 62q159 0 219 90l72 -44q-83 -122 -291 -122q-145 0 -237.5 72.5t-92.5 194.5q0 120 91 193t224 73q139 0 226 -76t88 -215h-542q9 -77 77.5 -121.5t165.5 -44.5zM366 446q-84 0 -146.5 -40.5t-78.5 -108.5h449q-15 69 -75 109t-149 40z" />
    <glyph glyph-name="f" unicode="f" horiz-adv-x="431" 
d="M369 668q-71 0 -102.5 -28.5t-31.5 -97.5v-37h184v-76h-184v-429h-87v429h-102v76h102v44q0 101 52 148t164 47q50 0 73 -2v-77q-33 3 -68 3z" />
    <glyph glyph-name="g" unicode="g" horiz-adv-x="805" 
d="M603 505h85v-455q0 -69 -22.5 -119.5t-64 -79t-93 -42t-115.5 -13.5q-168 0 -243 95l62 53q57 -72 181 -72q92 0 150 39.5t58 128.5v51h-2q-78 -85 -232 -85q-137 0 -226.5 70t-89.5 186q0 117 89.5 187t226.5 70q154 0 232 -85h4v71zM381 83q146 0 220 88v183
q-74 88 -220 88q-106 0 -172.5 -48.5t-66.5 -131.5q0 -81 66.5 -130t172.5 -49z" />
    <glyph glyph-name="h" unicode="h" horiz-adv-x="775" 
d="M425 519q261 0 261 -243v-276h-87v254q0 101 -50.5 143.5t-146.5 42.5q-122 0 -198 -89v-351h-87v730h87v-296h3q80 85 218 85z" />
    <glyph glyph-name="i" unicode="i" horiz-adv-x="322" 
d="M117 731h87v-109h-87v109zM117 505h87v-505h-87v505z" />
    <glyph glyph-name="j" unicode="j" horiz-adv-x="322" 
d="M117 730h87v-109h-87v109zM188 -190h-89v4q18 36 18 90v599h87v-617q0 -47 -16 -76z" />
    <glyph glyph-name="k" unicode="k" horiz-adv-x="711" 
d="M559 0l-256 231l-99 -74v-157h-87v730h87v-479l339 254h132l-299 -225l309 -280h-126z" />
    <glyph glyph-name="l" unicode="l" horiz-adv-x="322" 
d="M204 94q0 -52 19 -90v-4h-90q-16 32 -16 76v654h87v-636z" />
    <glyph glyph-name="m" unicode="m" horiz-adv-x="1222" 
d="M874 519q260 0 260 -243v-276h-87v254q0 100 -49 143t-139 43q-122 0 -196 -97q6 -31 6 -67v-276h-87v254q0 101 -48.5 143.5t-139.5 42.5q-115 0 -190 -89v-351h-87v505h86v-71h3q80 85 210 85q164 0 222 -104q39 49 103 76.5t133 27.5z" />
    <glyph glyph-name="n" unicode="n" horiz-adv-x="783" 
d="M430 519q264 0 264 -243v-276h-86v254q0 101 -51.5 143.5t-150.5 42.5q-126 0 -202 -89v-351h-87v505h86v-71h4q82 85 223 85z" />
    <glyph glyph-name="o" unicode="o" horiz-adv-x="773" 
d="M722 253q0 -122 -94.5 -194.5t-241.5 -72.5q-145 0 -240 72.5t-95 194.5t95 194t240 72q147 0 241.5 -72t94.5 -194zM631 253q0 88 -69 137.5t-176 49.5t-175.5 -49.5t-68.5 -137.5t69 -138t175 -50q107 0 176 50t69 138z" />
    <glyph glyph-name="p" unicode="p" horiz-adv-x="815" 
d="M447 519q138 0 227.5 -71.5t89.5 -194.5q0 -124 -89.5 -195.5t-227.5 -71.5q-163 0 -240 85h-3v-261h-87v695h86v-71h4q75 85 240 85zM429 63q105 0 175 51.5t70 138.5t-70 138t-175 51q-149 0 -225 -88v-202q76 -89 225 -89z" />
    <glyph glyph-name="q" unicode="q" horiz-adv-x="815" 
d="M613 505h85v-695h-87v261h-2q-78 -85 -240 -85q-139 0 -228.5 71.5t-89.5 195.5q0 123 89.5 194.5t228.5 71.5q163 0 240 -85h4v71zM387 63q149 0 224 89v202q-74 88 -224 88q-105 0 -175 -51t-70 -138t70 -138.5t175 -51.5z" />
    <glyph glyph-name="r" unicode="r" horiz-adv-x="525" 
d="M434 519q34 0 60 -5v-77q-32 6 -69 6q-136 0 -221 -107v-337h-87v506h86v-85h4q78 99 227 99z" />
    <glyph glyph-name="s" unicode="s" horiz-adv-x="655" 
d="M599 148q0 -80 -71.5 -121t-189.5 -41q-205 0 -279 107l66 51q57 -85 213 -85q74 0 123 20t49 60q0 31 -32.5 47.5t-80.5 19.5t-105 9.5t-105 16.5t-80.5 42.5t-32.5 85.5q0 77 67 118t178 41q203 0 277 -107l-66 -51q-57 85 -211 85q-67 0 -112 -19t-45 -57
q0 -32 32.5 -49t81 -20t105 -9t105 -16t81 -42.5t32.5 -85.5z" />
    <glyph glyph-name="t" unicode="t" horiz-adv-x="410" 
d="M374 429h-139v-335q0 -54 18 -90v-4h-89q-16 29 -16 76v353h-102v76h102v145h87v-145h139v-76z" />
    <glyph glyph-name="u" unicode="u" horiz-adv-x="772" 
d="M572 505h87v-505h-85v71h-4q-82 -85 -219 -85q-261 0 -261 244v275h87v-253q0 -102 50 -144.5t147 -42.5q123 0 198 89v351z" />
    <glyph glyph-name="v" unicode="v" horiz-adv-x="691" 
d="M403 0h-114l-277 505h99l233 -427h4l232 427h99z" />
    <glyph glyph-name="w" unicode="w" horiz-adv-x="1112" 
d="M972 505h99l-217 -505h-114l-181 418h-4l-182 -418h-115l-216 505h98l173 -418h4l183 418h115l180 -418h4z" />
    <glyph glyph-name="x" unicode="x" horiz-adv-x="676" 
d="M645 0h-118l-194 202l-192 -202h-110l242 254l-242 251h118l193 -200l189 200h109l-238 -253z" />
    <glyph glyph-name="y" unicode="y" horiz-adv-x="684" 
d="M284 -190h-104v4q33 25 68 90l51 96l-298 505h101l244 -415h4l220 415h98l-330 -619q-29 -55 -54 -76z" />
    <glyph glyph-name="z" unicode="z" horiz-adv-x="608" 
d="M552 0h-496v68l366 361h-361v76h486v-68l-365 -361h370v-76z" />
    <glyph glyph-name="braceleft" unicode="{" 
 />
    <glyph glyph-name="braceright" unicode="}" 
 />
    <glyph glyph-name="dieresis" unicode="&#xa8;" 
 />
    <glyph glyph-name="guillemotleft" unicode="&#xab;" 
 />
    <glyph glyph-name="acute" unicode="&#xb4;" 
 />
    <glyph glyph-name="periodcentered" unicode="&#xb7;" 
 />
    <glyph glyph-name="cedilla" unicode="&#xb8;" 
 />
    <glyph glyph-name="guillemotright" unicode="&#xbb;" 
 />
    <glyph glyph-name="Agrave" unicode="&#xc0;" 
 />
    <glyph glyph-name="Aacute" unicode="&#xc1;" 
 />
    <glyph glyph-name="Acircumflex" unicode="&#xc2;" 
 />
    <glyph glyph-name="Adieresis" unicode="&#xc4;" 
 />
    <glyph glyph-name="AE" unicode="&#xc6;" 
 />
    <glyph glyph-name="Ccedilla" unicode="&#xc7;" 
 />
    <glyph glyph-name="Egrave" unicode="&#xc8;" 
 />
    <glyph glyph-name="Eacute" unicode="&#xc9;" 
 />
    <glyph glyph-name="Ecircumflex" unicode="&#xca;" 
 />
    <glyph glyph-name="Edieresis" unicode="&#xcb;" 
 />
    <glyph glyph-name="Igrave" unicode="&#xcc;" 
 />
    <glyph glyph-name="Iacute" unicode="&#xcd;" 
 />
    <glyph glyph-name="Icircumflex" unicode="&#xce;" 
 />
    <glyph glyph-name="Idieresis" unicode="&#xcf;" 
 />
    <glyph glyph-name="Ograve" unicode="&#xd2;" 
 />
    <glyph glyph-name="Oacute" unicode="&#xd3;" 
 />
    <glyph glyph-name="Ocircumflex" unicode="&#xd4;" 
 />
    <glyph glyph-name="Odieresis" unicode="&#xd6;" 
 />
    <glyph glyph-name="Ugrave" unicode="&#xd9;" 
 />
    <glyph glyph-name="Uacute" unicode="&#xda;" 
 />
    <glyph glyph-name="Ucircumflex" unicode="&#xdb;" 
 />
    <glyph glyph-name="Udieresis" unicode="&#xdc;" 
 />
    <glyph glyph-name="germandbls" unicode="&#xdf;" 
 />
    <glyph glyph-name="agrave" unicode="&#xe0;" 
 />
    <glyph glyph-name="aacute" unicode="&#xe1;" 
 />
    <glyph glyph-name="acircumflex" unicode="&#xe2;" 
 />
    <glyph glyph-name="adieresis" unicode="&#xe4;" 
 />
    <glyph glyph-name="ae" unicode="&#xe6;" 
 />
    <glyph glyph-name="ccedilla" unicode="&#xe7;" 
 />
    <glyph glyph-name="egrave" unicode="&#xe8;" 
 />
    <glyph glyph-name="eacute" unicode="&#xe9;" 
 />
    <glyph glyph-name="ecircumflex" unicode="&#xea;" 
 />
    <glyph glyph-name="edieresis" unicode="&#xeb;" 
 />
    <glyph glyph-name="igrave" unicode="&#xec;" 
 />
    <glyph glyph-name="iacute" unicode="&#xed;" 
 />
    <glyph glyph-name="icircumflex" unicode="&#xee;" 
 />
    <glyph glyph-name="idieresis" unicode="&#xef;" 
 />
    <glyph glyph-name="ograve" unicode="&#xf2;" 
 />
    <glyph glyph-name="oacute" unicode="&#xf3;" 
 />
    <glyph glyph-name="ocircumflex" unicode="&#xf4;" 
 />
    <glyph glyph-name="odieresis" unicode="&#xf6;" 
 />
    <glyph glyph-name="ugrave" unicode="&#xf9;" 
 />
    <glyph glyph-name="uacute" unicode="&#xfa;" 
 />
    <glyph glyph-name="ucircumflex" unicode="&#xfb;" 
 />
    <glyph glyph-name="udieresis" unicode="&#xfc;" 
 />
    <glyph glyph-name="Cacute" unicode="&#x106;" 
 />
    <glyph glyph-name="cacute" unicode="&#x107;" 
 />
    <glyph glyph-name="Ccircumflex" unicode="&#x108;" 
 />
    <glyph glyph-name="ccircumflex" unicode="&#x109;" 
 />
    <glyph glyph-name="Gcircumflex" unicode="&#x11c;" 
 />
    <glyph glyph-name="gcircumflex" unicode="&#x11d;" 
 />
    <glyph glyph-name="Hcircumflex" unicode="&#x124;" 
 />
    <glyph glyph-name="hcircumflex" unicode="&#x125;" 
 />
    <glyph glyph-name="IJ" unicode="&#x132;" horiz-adv-x="806" 
d="M230 0h-90v700h90v-700zM407 -9v87q21 -5 56 -5q74 0 99 26t25 93v508h90v-538q0 -92 -46.5 -134t-159.5 -42q-41 0 -64 5z" />
    <glyph glyph-name="ij" unicode="&#x133;" horiz-adv-x="644" 
d="M117 731h87v-109h-87v109zM439 730h87v-109h-87v109zM117 505h87v-505h-87v505zM510 -190h-89v4q18 36 18 90v599h87v-617q0 -47 -16 -76z" />
    <glyph glyph-name="Jcircumflex" unicode="&#x134;" 
 />
    <glyph glyph-name="jcircumflex" unicode="&#x135;" 
 />
    <glyph glyph-name="Lacute" unicode="&#x139;" 
 />
    <glyph glyph-name="lacute" unicode="&#x13a;" 
 />
    <glyph glyph-name="Nacute" unicode="&#x143;" 
 />
    <glyph glyph-name="nacute" unicode="&#x144;" 
 />
    <glyph glyph-name="OE" unicode="&#x152;" 
 />
    <glyph glyph-name="oe" unicode="&#x153;" 
 />
    <glyph glyph-name="Racute" unicode="&#x154;" 
 />
    <glyph glyph-name="racute" unicode="&#x155;" 
 />
    <glyph glyph-name="AEacute" unicode="&#x1fc;" 
 />
    <glyph glyph-name="aeacute" unicode="&#x1fd;" 
 />
    <glyph glyph-name="circumflex" unicode="&#x2c6;" 
 />
    <glyph glyph-name="endash" unicode="&#x2013;" horiz-adv-x="635" 
d="M625 228h-615v70h615v-70z" />
    <glyph glyph-name="emdash" unicode="&#x2014;" horiz-adv-x="1270" 
d="M1260 228h-1250v70h1250v-70z" />
    <glyph glyph-name="quoteleft" unicode="&#x2018;" horiz-adv-x="316" 
d="M163 707h56l-42 -136h32v-105h-103v96z" />
    <glyph glyph-name="quoteright" unicode="&#x2019;" horiz-adv-x="316" 
d="M153 459h-56l42 136h-32v105h103v-96z" />
    <glyph glyph-name="quotesinglbase" unicode="&#x201a;" 
d="M148 -156h-58l49 156h-32v105h103v-95z" />
    <glyph glyph-name="quotedblleft" unicode="&#x201c;" horiz-adv-x="504" 
d="M163 707h56l-42 -136h32v-105h-103v96zM350 707h56l-42 -136h32v-105h-103v96z" />
    <glyph glyph-name="quotedblright" unicode="&#x201d;" horiz-adv-x="504" 
d="M153 459h-56l42 136h-32v105h103v-96zM340 459h-56l42 136h-32v105h103v-96z" />
    <glyph glyph-name="quotedblbase" unicode="&#x201e;" 
d="M107 105h103v-95l-62 -166h-58l49 156h-32v105z" />
    <glyph glyph-name="ellipsis" unicode="&#x2026;" 
d="M108 105h103v-105h-103v105z" />
    <glyph glyph-name="guilsinglleft" unicode="&#x2039;" 
 />
    <glyph glyph-name="guilsinglright" unicode="&#x203a;" 
 />
    <glyph glyph-name="Euro" unicode="&#x20ac;" horiz-adv-x="967" 
d="M543 72q205 0 287 146l84 -53q-105 -179 -371 -179q-145 0 -254 68t-145 187h-113v76h98q-1 11 -1 33t1 33h-98v77h113q37 118 145.5 186t253.5 68q266 0 371 -177l-84 -53q-83 144 -287 144q-102 0 -182 -45t-116 -123h438v-77h-459q-2 -22 -2 -33t2 -33h459v-76h-438
q35 -78 115.5 -123.5t182.5 -45.5z" />
    <glyph glyph-name="fi" unicode="&#xfb01;" horiz-adv-x="753" 
d="M148 549q0 101 52 148t164 47q50 0 73 -2v-77q-33 3 -68 3q-71 0 -102.5 -28.5t-31.5 -97.5v-37h184v-76h-184v-429h-87v429h-102v76h102v44zM548 731h87v-109h-87v109zM548 0v505h87v-505h-87z" />
    <glyph glyph-name="fl" unicode="&#xfb02;" horiz-adv-x="753" 
d="M148 549q0 101 52 148t164 47q50 0 73 -2v-77q-33 3 -68 3q-71 0 -102.5 -28.5t-31.5 -97.5v-37h184v-76h-184v-429h-87v429h-102v76h102v44zM635 94q0 -52 19 -90v-4h-90q-16 32 -16 76v654h87v-636z" />
    <glyph glyph-name="G.ss02" horiz-adv-x="1000" 
d="M880 376v-376h-84v71h-4q-95 -85 -299 -85q-193 0 -315 99t-122 264q0 169 122 267t316 98q265 0 372 -158l-84 -58q-87 130 -291 130q-150 0 -245.5 -77t-95.5 -205q0 -123 99 -201t259 -78q193 0 286 88v139h-280v82h366z" />
    <glyph glyph-name="germandbls.cap" 
 />
    <glyph glyph-name="a.ss01" horiz-adv-x="813" 
d="M690 109q0 -54 24 -105v-4h-89q-18 40 -20 71h-4q-78 -85 -241 -85q-133 0 -221 72t-88 195q0 122 88 194t221 72q163 0 241 -85h4v71h85v-396zM380 63q148 0 223 89v202q-74 88 -223 88q-101 0 -169.5 -51.5t-68.5 -137.5q0 -87 68.5 -138.5t169.5 -51.5z" />
    <glyph glyph-name="y.ss01" horiz-adv-x="691" 
d="M580 505h99l-290 -505v-190h-87v190l-290 505h99l233 -415h4z" />
    <glyph glyph-name="j.ss02" horiz-adv-x="322" 
d="M117 730h87v-106h-87v106zM-27 -200v77q19 -5 47 -5q54 0 75.5 27t21.5 92v512h87v-519q0 -99 -41 -143.5t-134 -44.5q-33 0 -56 4z" />
    <glyph glyph-name="t.ss02" horiz-adv-x="486" 
d="M355 62q32 0 67 3v-76q-35 -3 -74 -3q-103 0 -151 46.5t-48 153.5v243h-103v76h103v145h87v-145h183v-76h-183l-1 -234q0 -72 29 -102.5t91 -30.5z" />
    <glyph glyph-name="y.ss03" horiz-adv-x="772" 
d="M572 505h87v-455q0 -254 -295 -254q-138 0 -211 70l40 66q63 -60 171 -60q90 0 149 38.5t59 123.5v37h-2q-82 -85 -219 -85q-261 0 -261 244v275h87v-256q0 -102 50 -144.5t147 -42.5q123 0 198 89v354z" />
    <glyph glyph-name="f_f" horiz-adv-x="862" 
d="M148 549q0 101 52 148t164 47q50 0 73 -2v-77q-33 3 -68 3q-71 0 -102.5 -28.5t-31.5 -97.5v-37h184v-76h-184v-429h-87v429h-102v76h102v44zM800 668q-71 0 -102.5 -28.5t-31.5 -97.5v-37h184v-76h-184v-429h-87v429h-102v76h102v44q0 101 52 148t164 47q50 0 73 -2v-77
q-33 3 -68 3z" />
    <glyph glyph-name="f_f_i" horiz-adv-x="1184" 
d="M148 549q0 101 52 148t164 47q50 0 73 -2v-77q-33 3 -68 3q-71 0 -102.5 -28.5t-31.5 -97.5v-37h184v-76h-184v-429h-87v429h-102v76h102v44zM579 549q0 101 52 148t164 47q50 0 73 -2v-77q-33 3 -68 3q-71 0 -102.5 -28.5t-31.5 -97.5v-37h184v-76h-184v-429h-87v429
h-102v76h102v44zM979 731h87v-109h-87v109zM979 0v505h87v-505h-87z" />
    <glyph glyph-name="f_f_l" horiz-adv-x="1184" 
d="M148 549q0 101 52 148t164 47q50 0 73 -2v-77q-33 3 -68 3q-71 0 -102.5 -28.5t-31.5 -97.5v-37h184v-76h-184v-429h-87v429h-102v76h102v44zM579 549q0 101 52 148t164 47q50 0 73 -2v-77q-33 3 -68 3q-71 0 -102.5 -28.5t-31.5 -97.5v-37h184v-76h-184v-429h-87v429
h-102v76h102v44zM1066 94q0 -52 19 -90v-4h-90q-16 32 -16 76v654h87v-636z" />
    <glyph glyph-name="fi.cap" horiz-adv-x="753" 
d="M148 549q0 101 52 148t164 47q50 0 73 -2v-77q-33 3 -68 3q-71 0 -102.5 -28.5t-31.5 -97.5v-37h184v-76h-184v-429h-87v429h-102v76h102v44zM548 731h87v-109h-87v109zM548 0v505h87v-505h-87z" />
    <glyph glyph-name="fl.cap" horiz-adv-x="753" 
d="M148 549q0 101 52 148t164 47q50 0 73 -2v-77q-33 3 -68 3q-71 0 -102.5 -28.5t-31.5 -97.5v-37h184v-76h-184v-429h-87v429h-102v76h102v44zM635 94q0 -52 19 -90v-4h-90q-16 32 -16 76v654h87v-636z" />
    <glyph glyph-name="periodcentered.cap" 
 />
    <glyph glyph-name="exclamdown.cap" 
 />
    <glyph glyph-name="questiondown.cap" 
 />
    <glyph glyph-name="parenleft.cap" 
 />
    <glyph glyph-name="parenright.cap" 
 />
    <glyph glyph-name="emdash.cap" 
 />
    <glyph glyph-name="endash.cap" 
 />
    <glyph glyph-name="hyphen.cap" 
 />
    <glyph glyph-name="guillemotleft.cap" 
 />
    <glyph glyph-name="guillemotright.cap" 
 />
    <glyph glyph-name="guilsinglleft.cap" 
 />
    <glyph glyph-name="guilsinglright.cap" 
 />
    <glyph glyph-name="acute.cap" 
 />
    <glyph glyph-name="circumflex.cap" 
 />
    <glyph glyph-name="dieresis.cap" 
 />
    <glyph glyph-name="grave.cap" 
 />
  </font>
</defs>
</svg>
