<?xml version="1.0" encoding="UTF-8"?>
<svg width="2155px" height="886px" viewBox="0 0 2155 886" version="1.1" xmlns="http://www.w3.org/2000/svg" xmlns:xlink="http://www.w3.org/1999/xlink">
    <!-- Generator: Sketch 48.2 (47327) - http://www.bohemiancoding.com/sketch -->
    <title>background-intro</title>
    <desc>Created with Sketch.</desc>
    <defs></defs>
    <g id="Page-1" stroke="none" stroke-width="1" fill="none" fill-rule="evenodd">
        <g id="background-intro">
            <g id="Fill-3" transform="translate(2123.496602, 105.836017) rotate(20.000000) translate(-2123.496602, -105.836017) translate(2109.996602, 90.836017)">
                <g id="path-2-link" transform="translate(1.000000, 1.000000)" fill="#1DCC87">
                    <path d="M13.9484,0.5300676 C13.31987,0.2158526 12.59464,0.2158526 11.96611,0.5300676 L1.89756,6.3551287 C1.35364,6.6693436 0.93059,7.4427957 0.93059,8.083311 L0.93059,19.733433 C0.94268,20.361863 1.36572,21.1474 1.90964,21.461615 L11.99029,27.286676 C12.61882,27.600891 13.35601,27.600891 13.97245,27.286676 L24.02904,21.461615 C24.57296,21.1474 24.99601,20.373948 24.99601,19.733433 L24.99601,8.083311 C24.99601,7.4548809 24.57296,6.6693436 24.02904,6.3551287 L13.9484,0.5300676 Z" id="path-2"></path>
                </g>
                <path d="M15.39555,0.6356121 L15.44872,0.6642282 L25.52926,6.4892293 C26.38038,6.9809097 26.99601,8.0942205 26.99601,9.083311 L26.99601,20.733433 C26.99601,21.731134 26.38304,22.834293 25.53026,23.326936 L15.42658,29.177611 C14.526,29.636659 13.45433,29.636659 12.48996,29.152515 L2.40943,23.327514 C1.565,22.839701 0.9497,21.736576 0.93059,20.733433 L0.93059,9.083311 C0.93059,8.0856097 1.54355,6.9824501 2.39679,6.4895495 L12.51896,0.6356121 C13.42898,0.1806711 14.48553,0.1806711 15.39555,0.6356121 Z" id="Shape" stroke="#1DCC87" stroke-width="2"></path>
            </g>
            <g id="Fill-3" transform="translate(1831.816153, 363.712661) rotate(-20.000000) translate(-1831.816153, -363.712661) translate(1818.316153, 348.712661)">
                <g id="path-3-link" transform="translate(1.000000, 1.000000)" fill="#5C5EDC">
                    <path d="M13.9484,0.530068 C13.31987,0.215853 12.59464,0.215853 11.96611,0.530068 L1.89756,6.355129 C1.35364,6.669344 0.93059,7.442796 0.93059,8.083311 L0.93059,19.733433 C0.94268,20.361863 1.36572,21.1474 1.90964,21.461615 L11.99029,27.286676 C12.61882,27.600891 13.35601,27.600891 13.97245,27.286676 L24.02904,21.461615 C24.57296,21.1474 24.99601,20.373948 24.99601,19.733433 L24.99601,8.083311 C24.99601,7.454881 24.57296,6.669344 24.02904,6.355129 L13.9484,0.530068 Z" id="path-3"></path>
                </g>
                <path d="M15.39555,0.635612 L15.44872,0.664228 L25.52926,6.489229 C26.38038,6.98091 26.99601,8.094221 26.99601,9.083311 L26.99601,20.733433 C26.99601,21.731134 26.38304,22.834293 25.53026,23.326936 L15.42658,29.177611 C14.526,29.636659 13.45433,29.636659 12.48996,29.152515 L2.40943,23.327514 C1.565,22.839701 0.9497,21.736576 0.93059,20.733433 L0.93059,9.083311 C0.93059,8.08561 1.54355,6.98245 2.39679,6.489549 L12.51896,0.635612 C13.42898,0.180671 14.48553,0.180671 15.39555,0.635612 Z" id="Shape" stroke="#5C5EDC" stroke-width="2"></path>
            </g>
            <circle id="Oval" stroke="#5C5EDC" stroke-width="2" cx="334" cy="461" r="13"></circle>
            <g id="Fill-3" transform="translate(565.227413, 183.533428) rotate(7.000000) translate(-565.227413, -183.533428) translate(551.727413, 168.533428)">
                <g id="path-4-link" transform="translate(1.000000, 1.000000)" fill="#5C5EDC">
                    <path d="M13.587243,0.6006031 C12.958714,0.2863882 12.233488,0.2863882 11.604958,0.6006031 L1.536403,6.4256642 C0.992484,6.7398791 0.569435,7.5133312 0.569435,8.1538462 L0.569435,19.803968 C0.581522,20.432398 1.004571,21.217936 1.54849,21.53215 L11.629133,27.357212 C12.257662,27.671426 12.994854,27.671426 13.611296,27.357212 L23.667885,21.53215 C24.211805,21.217936 24.634854,20.444483 24.634854,19.803968 L24.634854,8.1538462 C24.634854,7.5254164 24.211805,6.7398791 23.667885,6.4256642 L13.587243,0.6006031 Z" id="path-4"></path>
                </g>
                <path d="M15.0344,0.7061476 L15.087565,0.7347637 L25.168104,6.5597649 C26.019224,7.0514453 26.634854,8.1647561 26.634854,9.1538462 L26.634854,20.803968 C26.634854,21.801669 26.02189,22.904829 25.169104,23.397471 L15.065427,29.248147 C14.164844,29.707195 13.093175,29.707195 12.128811,29.223051 L2.048272,23.39805 C1.203846,22.910236 0.588544,21.807112 0.569435,20.803968 L0.569435,9.1538462 C0.569435,8.1561452 1.182398,7.0529857 2.035631,6.560085 L12.157801,0.7061476 C13.067827,0.2512067 14.124374,0.2512067 15.0344,0.7061476 Z" id="Shape" stroke="#5C5EDC" stroke-width="2"></path>
            </g>
            <circle id="Oval" stroke="#5C5EDC" stroke-width="2" transform="translate(14.487401, 14.487401) rotate(7.000000) translate(-14.487401, -14.487401) " cx="14.4874013" cy="14.4874014" r="13"></circle>
            <circle id="Oval" stroke="#5C5EDC" stroke-width="2" cx="2141" cy="616" r="13"></circle>
            <circle id="Oval" stroke="#5C5EDC" stroke-width="2" cx="1455" cy="154" r="13"></circle>
            <circle id="Oval" stroke="#1DCC87" stroke-width="2" cx="1429" cy="854" r="13"></circle>
            <path d="M30.3949531,856.635718 L30.4481182,856.664334 L40.5286568,862.489335 C41.3797769,862.981016 41.9954067,864.094327 41.9954067,865.083417 L41.9954067,876.733539 C41.9954067,877.73124 41.3824433,878.834399 40.5296569,879.327042 L30.4259799,885.177717 C29.5253973,885.636765 28.4537282,885.636765 27.4893637,885.152621 L17.4088251,879.32762 C16.5643989,878.839807 15.9490975,877.736682 15.9299881,876.733539 L15.9299881,865.083417 C15.9299881,864.085716 16.5429515,862.982556 17.3961841,862.489655 L27.5183546,856.635718 C28.4283804,856.180777 29.4849273,856.180777 30.3949531,856.635718 Z" id="Fill-3" stroke="#1DCC87" stroke-width="2" transform="translate(28.962697, 870.906721) rotate(-20.000000) translate(-28.962697, -870.906721) "></path>
            <path d="M534.394953,822.635718 L534.448118,822.664334 L544.528657,828.489335 C545.379777,828.981016 545.995407,830.094327 545.995407,831.083417 L545.995407,842.733539 C545.995407,843.73124 545.382443,844.834399 544.529657,845.327042 L534.42598,851.177717 C533.525397,851.636765 532.453728,851.636765 531.489364,851.152621 L521.408825,845.32762 C520.564399,844.839807 519.949098,843.736682 519.929988,842.733539 L519.929988,831.083417 C519.929988,830.085716 520.542952,828.982556 521.396184,828.489655 L531.518355,822.635718 C532.42838,822.180777 533.484927,822.180777 534.394953,822.635718 Z" id="Fill-3" stroke="#5C5EDC" stroke-width="2" transform="translate(532.962697, 836.906721) rotate(-20.000000) translate(-532.962697, -836.906721) "></path>
            <g id="Fill-3" transform="translate(28.559279, 553.152932) rotate(-20.000000) translate(-28.559279, -553.152932) translate(15.059279, 538.152932)">
                <g id="path-5-link" transform="translate(1.000000, 1.000000)" fill="#5C5EDC">
                    <path d="M13.9483973,0.530068 C13.319868,0.215853 12.5946419,0.215853 11.9661127,0.530068 L1.8975573,6.355129 C1.3536378,6.669344 0.9305892,7.442796 0.9305892,8.083311 L0.9305892,19.733433 C0.9426763,20.361863 1.3657249,21.1474 1.9096444,21.461615 L11.9902869,27.286676 C12.6188161,27.600891 13.3560084,27.600891 13.9724506,27.286676 L24.0290397,21.461615 C24.5729592,21.1474 24.9960078,20.373948 24.9960078,19.733433 L24.9960078,8.083311 C24.9960078,7.454881 24.5729592,6.669344 24.0290397,6.355129 L13.9483973,0.530068 Z" id="path-5"></path>
                </g>
                <path d="M15.3955542,0.635612 L15.4487193,0.664228 L25.5292579,6.489229 C26.380378,6.98091 26.9960078,8.094221 26.9960078,9.083311 L26.9960078,20.733433 C26.9960078,21.731134 26.3830444,22.834293 25.530258,23.326936 L15.426581,29.177611 C14.5259984,29.636659 13.4543293,29.636659 12.4899648,29.152515 L2.4094262,23.327514 C1.565,22.839701 0.9496986,21.736576 0.9305892,20.733433 L0.9305892,9.083311 C0.9305892,8.08561 1.5435526,6.98245 2.3967852,6.489549 L12.5189557,0.635612 C13.4289815,0.180671 14.4855284,0.180671 15.3955542,0.635612 Z" id="Shape" stroke="#5C5EDC" stroke-width="2"></path>
            </g>
        </g>
    </g>
</svg>