<?xml version="1.0" encoding="UTF-8"?>
<svg width="1935px" height="1906px" viewBox="0 0 1935 1906" version="1.1" xmlns="http://www.w3.org/2000/svg" xmlns:xlink="http://www.w3.org/1999/xlink">
    <!-- Generator: Sketch 48.2 (47327) - http://www.bohemiancoding.com/sketch -->
    <title>Group 8</title>
    <desc>Created with Sketch.</desc>
    <defs></defs>
    <g id="Page-1" stroke="none" stroke-width="1" fill="none" fill-rule="evenodd">
        <g id="Group-8" transform="translate(-307.000000, -342.000000)">
            <path d="M2067.07731,756.191583 L1345.31862,339.033 C1300.31688,316.53067 1248.39179,316.53067 1203.39005,339.033 L482.496771,756.191583 C443.552957,778.693914 413.263323,834.084265 413.263323,879.9544 L413.263323,1714.27157 C414.128741,1759.27623 444.418375,1815.53205 483.362189,1838.03438 L1205.12089,2255.19297 C1250.12263,2277.6953 1302.90448,2277.6953 1347.0408,2255.19297 L2067.07731,1838.03438 C2106.02113,1815.53205 2136.31076,1760.1417 2136.31076,1714.27157 L2136.31076,879.9544 C2136.31076,834.949739 2106.02113,778.693914 2067.07731,756.191583 Z" id="Fill-3" fill="#1DCC87" transform="translate(1274.787042, 1297.112983) rotate(-37.000000) translate(-1274.787042, -1297.112983) "></path>
            <path d="M2092.89944,754.243661 L1371.14074,337.085078 C1326.139,314.582747 1274.21392,314.582747 1229.21218,337.085078 L508.318897,754.243661 C469.375083,776.745991 439.085449,832.136343 439.085449,878.006477 L439.085449,1712.32364 C439.950867,1757.3283 470.240501,1813.58413 509.184315,1836.08646 L1230.94301,2253.24504 C1275.94475,2275.74737 1328.7266,2275.74737 1372.86293,2253.24504 L2092.89944,1836.08646 C2131.84325,1813.58413 2162.13289,1758.19378 2162.13289,1712.32364 L2162.13289,878.006477 C2162.13289,833.001817 2131.84325,776.745991 2092.89944,754.243661 Z" id="Fill-3" fill="#5C5EDC" transform="translate(1300.609169, 1295.165061) rotate(-47.000000) translate(-1300.609169, -1295.165061) "></path>
        </g>
    </g>
</svg>