<?xml version="1.0" encoding="UTF-8"?>
<svg width="311px" height="193px" viewBox="0 0 311 193" version="1.1" xmlns="http://www.w3.org/2000/svg" xmlns:xlink="http://www.w3.org/1999/xlink">
    <!-- Generator: Sketch 48.2 (47327) - http://www.bohemiancoding.com/sketch -->
    <title>Fill 3</title>
    <desc>Created with Sketch.</desc>
    <defs>
        <linearGradient x1="50%" y1="0%" x2="50%" y2="98.3438297%" id="linearGradient-1">
            <stop stop-color="#5C5EDC" offset="0%"></stop>
            <stop stop-color="#4C4EC2" offset="100%"></stop>
        </linearGradient>
    </defs>
    <g id="Artboard" stroke="none" stroke-width="1" fill="none" fill-rule="evenodd" transform="translate(-164.000000, -30.000000)">
        <g id="PROFIL" transform="translate(25.000000, 30.000000)" fill="url(#linearGradient-1)">
            <g id="icon" transform="translate(-478.000000, -1713.000000)">
                <path d="M1159.60945,96.3200641 C1116.62706,74.83227 1067.032,74.83227 1024.04961,96.3200641 L335.504819,494.670708 C298.308521,516.158502 269.378068,569.051533 269.378068,612.853575 L269.378068,1409.55486 C270.204652,1452.53045 299.135106,1506.24994 336.331403,1527.73773 L1025.70278,1926.08837 C1068.68517,1947.57617 1119.09855,1947.57617 1161.25436,1926.08837 L1848.98083,1527.73773 C1886.17713,1506.24994 1915.10758,1453.3569 1915.10758,1409.55486 L1915.10758,612.853575 C1915.10758,569.877987 1886.17713,516.158502 1848.98083,494.670708 L1159.60945,96.3200641 Z" id="Fill-3" transform="translate(1092.242825, 1011.204219) rotate(77.000000) translate(-1092.242825, -1011.204219) "></path>
            </g>
        </g>
    </g>
</svg>