<?xml version="1.0" encoding="UTF-8"?>
<svg width="2140px" height="1843px" viewBox="0 0 2140 1843" version="1.1" xmlns="http://www.w3.org/2000/svg" xmlns:xlink="http://www.w3.org/1999/xlink">
    <!-- Generator: Sketch 48.2 (47327) - http://www.bohemiancoding.com/sketch -->
    <title>hexagone-2</title>
    <desc>Created with Sketch.</desc>
    <defs></defs>
    <g id="Page-1" stroke="none" stroke-width="1" fill="none" fill-rule="evenodd">
        <g id="hexagone-2" transform="translate(-309.000000, -406.000000)">
            <g id="Group-3" transform="translate(1285.766051, 1257.114223) scale(-1, 1) rotate(-6.000000) translate(-1285.766051, -1257.114223) translate(113.266051, 117.114223)" fill-rule="nonzero">
                <path d="M1845.54084,663.34727 L1209.25455,295.589614 C1169.58202,275.752064 1123.80603,275.752064 1084.1335,295.589614 L448.610151,663.34727 C414.278157,683.18482 387.575495,732.015712 387.575495,772.453795 L387.575495,1507.96911 C388.338428,1547.64421 415.04109,1597.23808 449.373084,1617.07563 L1085.65937,1984.83329 C1125.3319,2004.67084 1171.86319,2004.67084 1210.77278,1984.83329 L1845.54084,1617.07563 C1879.87283,1597.23808 1906.57549,1548.40719 1906.57549,1507.96911 L1906.57549,772.453795 C1906.57549,732.778695 1879.87283,683.18482 1845.54084,663.34727 Z" id="Fill-3" fill="#222370" transform="translate(1147.075494, 1140.211453) rotate(-48.000000) translate(-1147.075494, -1140.211453) "></path>
                <g id="Group-2" transform="translate(158.232816, 214.142627)" fill="#5C5EDC">
                    <g id="Fill-3" transform="translate(1093.012477, 1012.521339) rotate(77.000000) translate(-1093.012477, -1012.521339) translate(269.512477, 81.021339)">
                        <path d="M890.60945,16.3200641 C847.62706,-5.16773 798.032,-5.16773 755.04961,16.3200641 L66.504819,414.670708 C29.308521,436.158502 0.378068,489.051533 0.378068,532.853575 L0.378068,1329.55486 C1.204652,1372.53045 30.135106,1426.24994 67.331403,1447.73773 L756.70278,1846.08837 C799.68517,1867.57617 850.09855,1867.57617 892.25436,1846.08837 L1579.98083,1447.73773 C1617.17713,1426.24994 1646.10758,1373.3569 1646.10758,1329.55486 L1646.10758,532.853575 C1646.10758,489.877987 1617.17713,436.158502 1579.98083,414.670708 L890.60945,16.3200641 Z" id="path-1"></path>
                    </g>
                </g>
            </g>
            <g id="Group-5" transform="translate(354.000000, 430.000000)">
                <path d="M904.396155,599.635718 L904.44932,599.664334 L914.529859,605.489335 C915.380979,605.981016 915.996609,607.094327 915.996609,608.083417 L915.996609,619.733539 C915.996609,620.73124 915.383645,621.834399 914.530859,622.327042 L904.427182,628.177717 C903.526599,628.636765 902.45493,628.636765 901.490566,628.152621 L891.410027,622.32762 C890.565601,621.839807 889.9503,620.736682 889.93119,619.733539 L889.93119,608.083417 C889.93119,607.085716 890.544154,605.982556 891.397386,605.489655 L901.519557,599.635718 C902.429582,599.180777 903.486129,599.180777 904.396155,599.635718 Z" id="Fill-3" stroke="#5C5EDC" stroke-width="2" transform="translate(902.963900, 613.906720) rotate(20.000000) translate(-902.963900, -613.906720) "></path>
                <path d="M865.396155,836.635718 L865.44932,836.664334 L875.529859,842.489335 C876.380979,842.981016 876.996609,844.094327 876.996609,845.083417 L876.996609,856.733539 C876.996609,857.73124 876.383645,858.834399 875.530859,859.327042 L865.427182,865.177717 C864.526599,865.636765 863.45493,865.636765 862.490566,865.152621 L852.410027,859.32762 C851.565601,858.839807 850.9503,857.736682 850.93119,856.733539 L850.93119,845.083417 C850.93119,844.085716 851.544154,842.982556 852.397386,842.489655 L862.519557,836.635718 C863.429582,836.180777 864.486129,836.180777 865.396155,836.635718 Z" id="Fill-3" stroke="#5C5EDC" stroke-width="2" transform="translate(863.963900, 850.906720) rotate(20.000000) translate(-863.963900, -850.906720) "></path>
                <path d="M888.394953,448.635718 L888.448118,448.664334 L898.528657,454.489335 C899.379777,454.981016 899.995407,456.094327 899.995407,457.083417 L899.995407,468.733539 C899.995407,469.73124 899.382443,470.834399 898.529657,471.327042 L888.42598,477.177717 C887.525397,477.636765 886.453728,477.636765 885.489364,477.152621 L875.408825,471.32762 C874.564399,470.839807 873.949098,469.736682 873.929988,468.733539 L873.929988,457.083417 C873.929988,456.085716 874.542952,454.982556 875.396184,454.489655 L885.518355,448.635718 C886.42838,448.180777 887.484927,448.180777 888.394953,448.635718 Z" id="Fill-3" stroke="#5C5EDC" stroke-width="2" transform="translate(886.962697, 462.906721) rotate(-20.000000) translate(-886.962697, -462.906721) "></path>
                <g id="Fill-3" transform="translate(691.559279, 794.152932) rotate(-20.000000) translate(-691.559279, -794.152932) translate(678.059279, 779.152932)">
                    <g id="path-3-link" transform="translate(1.000000, 1.000000)" fill="#5C5EDC">
                        <path d="M13.9483973,0.530068 C13.319868,0.215853 12.5946419,0.215853 11.9661127,0.530068 L1.89755733,6.355129 C1.35363778,6.669344 0.93058923,7.442796 0.93058923,8.083311 L0.93058923,19.733433 C0.94267634,20.361863 1.36572488,21.1474 1.90964443,21.461615 L11.9902869,27.286676 C12.6188161,27.600891 13.3560084,27.600891 13.9724506,27.286676 L24.0290397,21.461615 C24.5729592,21.1474 24.9960078,20.373948 24.9960078,19.733433 L24.9960078,8.083311 C24.9960078,7.454881 24.5729592,6.669344 24.0290397,6.355129 L13.9483973,0.530068 Z" id="path-3"></path>
                    </g>
                    <path d="M15.3955542,0.635612 L15.4487193,0.664228 L25.5292579,6.489229 C26.380378,6.98091 26.9960078,8.094221 26.9960078,9.083311 L26.9960078,20.733433 C26.9960078,21.731134 26.3830444,22.834293 25.530258,23.326936 L15.426581,29.177611 C14.5259984,29.636659 13.4543293,29.636659 12.4899648,29.152515 L2.40942618,23.327514 C1.56499997,22.839701 0.94969855,21.736576 0.93058923,20.733433 L0.93058923,9.083311 C0.93058923,8.08561 1.54355264,6.98245 2.39678524,6.489549 L12.5189557,0.635612 C13.4289815,0.180671 14.4855284,0.180671 15.3955542,0.635612 Z" id="Shape" stroke="#5C5EDC" stroke-width="2"></path>
                </g>
                <path d="M1893.40015,690.249683 L1893.45331,690.2783 L1903.53385,696.103301 C1904.38497,696.594981 1905.0006,697.708292 1905.0006,698.697382 L1905.0006,710.347504 C1905.0006,711.345205 1904.38764,712.448365 1903.53485,712.941007 L1893.43117,718.791683 C1892.53059,719.250731 1891.45892,719.250731 1890.49456,718.766587 L1880.41402,712.941586 C1879.56959,712.453772 1878.95429,711.350648 1878.93518,710.347504 L1878.93518,698.697382 C1878.93518,697.699681 1879.54814,696.596521 1880.40138,696.103621 L1890.52355,690.249683 C1891.43357,689.794743 1892.49012,689.794743 1893.40015,690.249683 Z" id="Fill-3" stroke="#5C5EDC" stroke-width="2" transform="translate(1891.967891, 704.520686) rotate(20.000000) translate(-1891.967891, -704.520686) "></path>
                <path d="M18.676671,18.9174304 L18.729831,18.9460474 L28.810371,24.7710484 C29.661491,25.2627284 30.277121,26.3760394 30.277121,27.3651294 L30.277121,39.0152514 C30.277121,40.0129524 29.664161,41.1161124 28.811371,41.6087544 L18.707691,47.4594304 C17.807111,47.9184784 16.735441,47.9184784 15.771081,47.4343344 L5.69054099,41.6093334 C4.84611099,41.1215194 4.23081099,40.0183954 4.21170099,39.0152514 L4.21170099,27.3651294 C4.21170099,26.3674284 4.82466099,25.2642684 5.67790099,24.7713684 L15.800071,18.9174304 C16.710091,18.4624904 17.766641,18.4624904 18.676671,18.9174304 Z" id="Fill-3" stroke="#5C5EDC" stroke-width="2" transform="translate(17.244411, 33.188434) rotate(20.000000) translate(-17.244411, -33.188434) "></path>
                <g id="Fill-3" transform="translate(322.816153, 600.712661) rotate(-20.000000) translate(-322.816153, -600.712661) translate(309.316153, 585.712661)">
                    <g id="path-5-link" transform="translate(1.000000, 1.000000)" fill="#1DCC87">
                        <path d="M13.9484,0.530068 C13.31987,0.215853 12.59464,0.215853 11.96611,0.530068 L1.89756,6.355129 C1.35364,6.669344 0.93059,7.442796 0.93059,8.083311 L0.93059,19.733433 C0.94268,20.361863 1.36572,21.1474 1.90964,21.461615 L11.99029,27.286676 C12.61882,27.600891 13.35601,27.600891 13.97245,27.286676 L24.02904,21.461615 C24.57296,21.1474 24.99601,20.373948 24.99601,19.733433 L24.99601,8.083311 C24.99601,7.454881 24.57296,6.669344 24.02904,6.355129 L13.9484,0.530068 Z" id="path-5"></path>
                    </g>
                    <path d="M15.39555,0.635612 L15.44872,0.664228 L25.52926,6.489229 C26.38038,6.98091 26.99601,8.094221 26.99601,9.083311 L26.99601,20.733433 C26.99601,21.731134 26.38304,22.834293 25.53026,23.326936 L15.42658,29.177611 C14.526,29.636659 13.45433,29.636659 12.48996,29.152515 L2.40943,23.327514 C1.565,22.839701 0.9497,21.736576 0.93059,20.733433 L0.93059,9.083311 C0.93059,8.08561 1.54355,6.98245 2.39679,6.489549 L12.51896,0.635612 C13.42898,0.180671 14.48553,0.180671 15.39555,0.635612 Z" id="Shape" stroke="#1DCC87" stroke-width="2"></path>
                </g>
                <circle id="Oval" stroke="#5C5EDC" stroke-width="2" cx="699" cy="594" r="13"></circle>
                <path d="M965.034614,282.706161 L965.087779,282.734777 L975.168318,288.559778 C976.019438,289.051458 976.635068,290.164769 976.635068,291.153859 L976.635068,302.803981 C976.635068,303.801682 976.022104,304.904842 975.169318,305.397484 L965.065641,311.24816 C964.165058,311.707208 963.093389,311.707208 962.129025,311.223064 L952.048486,305.398063 C951.20406,304.910249 950.588758,303.807125 950.569649,302.803981 L950.569649,291.153859 C950.569649,290.156158 951.182612,289.052999 952.035845,288.560098 L962.158015,282.706161 C963.068041,282.25122 964.124588,282.25122 965.034614,282.706161 Z" id="Fill-3" stroke="#5C5EDC" stroke-width="2" transform="translate(963.602359, 296.977164) rotate(7.000000) translate(-963.602359, -296.977164) "></path>
                <path d="M805.394953,96.6357182 L805.448118,96.6643343 L815.528657,102.489335 C816.379777,102.981016 816.995407,104.094327 816.995407,105.083417 L816.995407,116.733539 C816.995407,117.73124 816.382443,118.8344 815.529657,119.327042 L805.42598,125.177717 C804.525397,125.636765 803.453728,125.636765 802.489364,125.152622 L792.408825,119.32762 C791.564399,118.839807 790.949098,117.736682 790.929988,116.733539 L790.929988,105.083417 C790.929988,104.085716 791.542952,102.982556 792.396184,102.489656 L802.518355,96.6357182 C803.42838,96.1807773 804.484927,96.1807773 805.394953,96.6357182 Z" id="Fill-3" stroke="#FFFFFF" stroke-width="2" transform="translate(803.962697, 110.906721) rotate(-20.000000) translate(-803.962697, -110.906721) "></path>
                <circle id="Oval" stroke="#5C5EDC" stroke-width="2" fill="#5C5EDC" fill-rule="nonzero" cx="1846" cy="882" r="13"></circle>
                <circle id="Oval" stroke="#5C5EDC" stroke-width="2" cx="1543" cy="130" r="13"></circle>
                <g id="Fill-3" transform="translate(2078.987163, 19.182508) rotate(-20.000000) translate(-2078.987163, -19.182508) translate(2065.487163, 3.682508)">
                    <g id="path-4-link" transform="translate(1.000000, 1.000000)" fill="#5C5EDC">
                        <path d="M13.95239,1.144033 C13.32386,0.829818 12.59863,0.829818 11.9701,1.144033 L1.90155,6.969094 C1.35763,7.283309 0.93458,8.056761 0.93458,8.697276 L0.93458,20.347398 C0.94667,20.975828 1.36972,21.761365 1.91364,22.07558 L11.99428,27.900641 C12.62281,28.214856 13.36,28.214856 13.97644,27.900641 L24.03303,22.07558 C24.57695,21.761365 25,20.987913 25,20.347398 L25,8.697276 C25,8.068846 24.57695,7.283309 24.03303,6.969094 L13.95239,1.144033 Z" id="path-4"></path>
                    </g>
                    <path d="M15.39955,1.249577 L15.45271,1.278194 L25.53325,7.103195 C26.38437,7.594875 27,8.708186 27,9.697276 L27,21.347398 C27,22.345099 26.38704,23.448259 25.53425,23.940901 L15.43057,29.791577 C14.52999,30.250625 13.45832,30.250625 12.49396,29.766481 L2.41342,23.94148 C1.56899,23.453666 0.95369,22.350542 0.93458,21.347398 L0.93458,9.697276 C0.93458,8.699575 1.54754,7.596415 2.40078,7.103515 L12.52295,1.249577 C13.43297,0.794637 14.48952,0.794637 15.39955,1.249577 Z" id="Shape" stroke="#5C5EDC" stroke-width="2"></path>
                </g>
                <g id="Fill-3" transform="translate(1992.816153, 227.712661) rotate(-20.000000) translate(-1992.816153, -227.712661) translate(1979.316153, 212.712661)">
                    <g id="path-5-link" transform="translate(1.000000, 1.000000)" fill="#1DCC87">
                        <path d="M13.9484,0.530068 C13.31987,0.215853 12.59464,0.215853 11.96611,0.530068 L1.89756,6.355129 C1.35364,6.669344 0.93059,7.442796 0.93059,8.083311 L0.93059,19.733433 C0.94268,20.361863 1.36572,21.1474 1.90964,21.461615 L11.99029,27.286676 C12.61882,27.600891 13.35601,27.600891 13.97245,27.286676 L24.02904,21.461615 C24.57296,21.1474 24.99601,20.373948 24.99601,19.733433 L24.99601,8.083311 C24.99601,7.454881 24.57296,6.669344 24.02904,6.355129 L13.9484,0.530068 Z" id="path-5"></path>
                    </g>
                    <path d="M15.39555,0.635612 L15.44872,0.664228 L25.52926,6.489229 C26.38038,6.98091 26.99601,8.094221 26.99601,9.083311 L26.99601,20.733433 C26.99601,21.731134 26.38304,22.834293 25.53026,23.326936 L15.42658,29.177611 C14.526,29.636659 13.45433,29.636659 12.48996,29.152515 L2.40943,23.327514 C1.565,22.839701 0.9497,21.736576 0.93059,20.733433 L0.93059,9.083311 C0.93059,8.08561 1.54355,6.98245 2.39679,6.489549 L12.51896,0.635612 C13.42898,0.180671 14.48553,0.180671 15.39555,0.635612 Z" id="Shape" stroke="#1DCC87" stroke-width="2"></path>
                </g>
                <path d="M394.676666,385.917431 L394.729831,385.946047 L404.81037,391.771048 C405.66149,392.262729 406.27712,393.376039 406.27712,394.36513 L406.27712,406.015252 C406.27712,407.012953 405.664156,408.116112 404.81137,408.608755 L394.707693,414.45943 C393.80711,414.918478 392.735441,414.918478 391.771077,414.434334 L381.690538,408.609333 C380.846112,408.12152 380.230811,407.018395 380.211701,406.015252 L380.211701,394.36513 C380.211701,393.367429 380.824665,392.264269 381.677897,391.771368 L391.800068,385.917431 C392.710093,385.46249 393.76664,385.46249 394.676666,385.917431 Z" id="Fill-3" stroke="#FFFFFF" stroke-width="2" transform="translate(393.244410, 400.188433) rotate(-20.000000) translate(-393.244410, -400.188433) "></path>
            </g>
        </g>
    </g>
</svg>