<?xml version="1.0" encoding="UTF-8"?>
<svg width="36px" height="39px" viewBox="0 0 36 39" version="1.1" xmlns="http://www.w3.org/2000/svg" xmlns:xlink="http://www.w3.org/1999/xlink">
    <!-- Generator: Sketch 49.3 (51167) - http://www.bohemiancoding.com/sketch -->
    <title>icon</title>
    <desc>Created with Sketch.</desc>
    <defs></defs>
    <g id="Page-1" stroke="none" stroke-width="1" fill="none" fill-rule="evenodd">
        <g id="Artboard-2" transform="translate(-112.000000, -110.000000)" fill="#FFFFFF" fill-rule="nonzero">
            <g id="icon" transform="translate(112.000000, 110.000000)">
                <path d="M20.9120253,0.919927858 L32.782054,7.22562398 C35.2775804,8.56341901 36,9.73573361 36,12.6930667 L36,26.3066426 C36,29.2639757 35.2775804,30.4362903 32.782054,31.7740854 L20.9120253,38.0797815 C18.5814033,39.3067395 17.4162849,39.3067395 15.0879747,38.0797815 L3.21601952,31.7740854 C0.720107881,30.4362903 0,29.2639757 0,26.3066426 L0,12.6930667 C0,9.73573361 0.720107881,8.56341901 3.21601952,7.22562398 L15.0879747,0.919927858 C17.4162849,-0.306642619 18.5814033,-0.306642619 20.9120253,0.919927858 Z M8.54073376,10.8510795 C6.82233829,11.7435888 6.26674943,12.6930667 6.26674943,14.812534 L6.26674943,24.520849 C6.26674943,26.1380618 7.15445867,26.9197341 8.65131213,27.7010188 L16.5281904,31.8306665 C18.1387046,32.6662071 19.2471852,32.3325334 20.8010617,31.49428 L28.1223511,27.5328256 C29.5656492,26.7511533 29.7301682,26.1380618 29.7301682,24.520849 L29.7301682,16.0960732 C29.7301682,14.3672482 28.8428443,13.9196372 27.4561839,14.6443408 L23.9061176,16.5432966 C22.6300355,17.2110315 22.2979152,17.713286 22.2979152,19.1646308 L22.2979152,21.6747405 C22.2979152,22.735443 22.0767584,23.0695042 21.0761591,23.5713711 L19.1905475,24.5754924 C18.3028383,25.0231035 17.8601396,25.0796846 17.0271416,24.6320736 L14.919988,23.5171152 C14.0889165,23.0695042 13.643906,22.6788618 13.643906,21.7317091 L13.643906,17.3796123 C13.643906,16.5436842 13.9217004,15.9282675 14.698446,15.5376251 L23.0746607,11.0739162 C24.6824778,10.2379881 24.6824778,9.2338667 23.1289867,8.39561332 L20.0239308,6.72143182 C18.4161137,5.88550369 17.4721521,6.10795281 15.8639497,7.00123715 L8.54073376,10.8510795 Z" id="Shape"></path>
            </g>
        </g>
    </g>
</svg>