<?xml version="1.0" encoding="UTF-8"?>
<svg version="1.1" viewBox="0 0 555 558" xmlns="http://www.w3.org/2000/svg">
<title>Group 80</title>
<desc>Created with Sketch.</desc>
<g fill="none" fill-rule="evenodd" opacity=".42312">
<g transform="translate(-885 -352)">
<g transform="translate(0 -10)">
<g transform="translate(572 362)">
<polygon points="485.44 46.82 485.44 0 416.47 0 416.47 46.82 382.67 46.82 382.67 0 313 0 313 46.82 313 112.92 313 252 502 252 502 46.82" fill="#6D6875"/>
<polygon points="695 112.92 695 46.82 695 0 626.07 0 626.07 46.82 588.85 46.82 588.85 0 519.92 0 519.92 46.82 502 46.82 502 252 695 249.93" fill="#4A474F"/>
<polygon points="334 191 362 191 362 94 334 94" fill="#E0FBFC"/>
<polygon points="346 458 666 458 666 250 346 250" fill="#4A474F"/>
<polygon points="698 281 655.3 281 655.3 302.24 612.6 302.24 612.6 281 569.9 281 569.9 302.24 526.51 302.24 526.51 281 483.8 281 483.8 302.24 440.41 302.24 440.41 281 397.71 281 397.71 302.24 355.7 302.24 355.7 282.37 313 282.37 313 302.24 313 311.15 313 355 698 355 698 309.78 698 309.78" fill="#6D6875"/>
<polygon points="437 191 465 191 465 94 437 94" fill="#E0FBFC"/>
<polygon points="539 191 567 191 567 94 539 94" fill="#E0FBFC"/>
<polygon points="642 191 670 191 670 94 642 94" fill="#E0FBFC"/>
<polygon points="346 459 503 459 503 374 346 374" fill="#6D6875"/>
<path d="m930.79 533.81c7.5313-16.079-6.3337-32.149-9.2567-35.278-31.394-5.3321-56.469 31.143-56.469 31.143-4.8961 8.2695-15.604 18.16-6.5275 27.105 7.3816 7.2746 38.079 17.57 69.553 17.211l-1.4951-0.21374s-4.1956-22.051 4.1956-39.967" fill="#585560"/>
<path d="m460 450.66c-3.9995-1.4784-8.3365-0.40205-11.164 2.3996-0.29578 0.29441-0.57549 0.60624-0.8359 0.93706" stroke="#6D6875" stroke-linecap="round" stroke-linejoin="round"/>
<path d="m485 476.31c-1.999-0.68019-4.1684-0.18514-5.5821 1.1028-0.14818 0.1355-0.28748 0.27905-0.41788 0.43199" stroke="#6D6875" stroke-linecap="round" stroke-linejoin="round"/>
</g>
</g>
</g>
</g>
</svg>
