<?xml version="1.0" standalone="no"?>
<!DOCTYPE svg PUBLIC "-//W3C//DTD SVG 1.1//EN" "http://www.w3.org/Graphics/SVG/1.1/DTD/svg11.dtd" >
<svg xmlns="http://www.w3.org/2000/svg" xmlns:xlink="http://www.w3.org/1999/xlink" version="1.1">
<metadata>
Created by FontForge 20170731 at Fri Feb 23 16:37:39 2018
 By Aleksey,,,
copyright missing
</metadata>
<defs>
<font id="IndusHtest-BoldCondensed" horiz-adv-x="600" >
  <font-face 
    font-family="IndusHtest Bold Condensed"
    font-weight="700"
    font-stretch="condensed"
    units-per-em="1000"
    panose-1="0 0 8 6 0 0 0 0 0 0"
    ascent="800"
    descent="-200"
    x-height="510"
    cap-height="700"
    bbox="-44 -204 711 804"
    underline-thickness="50"
    underline-position="-200"
    unicode-range="U+0020-FB02"
  />
<missing-glyph horiz-adv-x="460" 
d="M377 730v-920h-291v920h291zM306 668h-151v-30h59v-34h-60v-30h152v30h-60v34h60v30zM246 550h-92v-96h152v31h-60v65zM214 518v-33h-30v33h30zM306 429h-152v-30h60v-34h-60v-31h92v65h60v30zM306 374h-30v-61h-122v-31h152v92zM306 262h-92v-52h32v21h30v-43h-92v74
h-30v-104h152v104zM306 103h-152v-104h152v104zM276 72v-43h-92v43h92zM306 -23h-152v-30h64l-64 -43v-31h152v31h-93l64 43h29v30z" />
    <glyph glyph-name=".notdef" horiz-adv-x="460" 
d="M377 730v-920h-291v920h291zM306 668h-151v-30h59v-34h-60v-30h152v30h-60v34h60v30zM246 550h-92v-96h152v31h-60v65zM214 518v-33h-30v33h30zM306 429h-152v-30h60v-34h-60v-31h92v65h60v30zM306 374h-30v-61h-122v-31h152v92zM306 262h-92v-52h32v21h30v-43h-92v74
h-30v-104h152v104zM306 103h-152v-104h152v104zM276 72v-43h-92v43h92zM306 -23h-152v-30h64l-64 -43v-31h152v31h-93l64 43h29v30z" />
    <glyph glyph-name=".null" horiz-adv-x="0" 
 />
    <glyph glyph-name="nonmarkingreturn" horiz-adv-x="333" 
 />
    <glyph glyph-name="space" unicode=" " horiz-adv-x="180" 
 />
    <glyph glyph-name="exclam" unicode="!" horiz-adv-x="180" 
d="M129 196h-76l-11 319v185h99v-185zM42 107h100v-107h-100v107z" />
    <glyph glyph-name="quotedbl" unicode="&#x22;" horiz-adv-x="325" 
d="M120 457h-62l-17 243h95zM268 457h-62l-17 243h95z" />
    <glyph glyph-name="dollar" unicode="$" horiz-adv-x="446" 
d="M258 392q30 -23 49 -41t41 -46t32.5 -62.5t10.5 -76.5q0 -70 -35 -115.5t-98 -59.5v-95h-81v92q-124 15 -148 160l94 28q10 -76 54 -92v250q-29 23 -46.5 39.5t-38.5 42.5t-31 56.5t-10 67.5q0 70 33 114t93 56v94h81v-93q113 -17 139 -153l-95 -29q-12 67 -44 85v-222z
M146 540q0 -41 31 -79v150q-31 -19 -31 -71zM258 88q37 22 37 78q0 52 -37 96v-174z" />
    <glyph glyph-name="quotesingle" unicode="'" horiz-adv-x="180" 
d="M120 457h-62l-17 243h95z" />
    <glyph glyph-name="parenleft" unicode="(" horiz-adv-x="271" 
d="M250 -115h-79q-110 150 -110 390t110 390h79q-96 -153 -96 -390t96 -390z" />
    <glyph glyph-name="parenright" unicode=")" horiz-adv-x="270" 
d="M20 -115q96 153 96 390t-96 390h79q110 -150 110 -390t-110 -390h-79z" />
    <glyph glyph-name="comma" unicode="," horiz-adv-x="180" 
d="M88 -155h-56l39 155h-33v113h105v-102z" />
    <glyph glyph-name="hyphen" unicode="-" horiz-adv-x="180" 
d="M170 224h-160v83h160v-83z" />
    <glyph glyph-name="period" unicode="." horiz-adv-x="180" 
d="M38 113h105v-113h-105v113z" />
    <glyph glyph-name="slash" unicode="/" horiz-adv-x="361" 
d="M95 0h-95l266 700h95z" />
    <glyph glyph-name="zero" unicode="0" horiz-adv-x="446" 
d="M419 350q0 -173 -52 -268.5t-144 -95.5q-91 0 -143 95.5t-52 268.5t52 268.5t143 95.5t143.5 -95.5t52.5 -268.5zM320 350q0 270 -97 270t-97 -270q0 -269 97 -269t97 269z" />
    <glyph glyph-name="one" unicode="1" horiz-adv-x="332" 
d="M275 0h-96v564h-4q-41 -70 -121 -130l-50 79q116 89 168 187h103v-700z" />
    <glyph glyph-name="two" unicode="2" horiz-adv-x="372" 
d="M141 95h204v-95h-327v86q105 137 160 237.5t55 189.5q0 104 -63 104q-53 0 -69 -108l-92 18q25 187 164 187q71 0 114.5 -51t43.5 -150q0 -95 -52.5 -198t-137.5 -220z" />
    <glyph glyph-name="three" unicode="3" horiz-adv-x="416" 
d="M379 183q0 -94 -49 -145.5t-132 -51.5q-153 0 -178 189l92 19q16 -111 87 -111q37 0 59.5 29.5t22.5 82.5q0 60 -28.5 89.5t-98.5 29.5h-36v90h27q65 0 91.5 30.5t26.5 85.5q0 48 -19 74t-50 26q-57 0 -72 -94l-90 27q29 161 162 161q79 0 122.5 -48t43.5 -137
q0 -124 -100 -163v-4q58 -15 88.5 -62.5t30.5 -116.5z" />
    <glyph glyph-name="four" unicode="4" horiz-adv-x="440" 
d="M423 261v-94h-82v-167h-95v167h-231v85l186 448h140v-439h82zM121 261h125v329h-4z" />
    <glyph glyph-name="five" unicode="5" horiz-adv-x="418" 
d="M233 447q154 0 154 -231q0 -117 -47 -173.5t-132 -56.5q-157 0 -180 189l91 19q15 -111 88 -111q37 0 59.5 32.5t22.5 98.5q0 69 -21 102.5t-67 33.5q-42 0 -59 -30h-81l1 380h287v-94h-198v-188q29 29 82 29z" />
    <glyph glyph-name="six" unicode="6" horiz-adv-x="420" 
d="M243 449q67 0 109 -60t42 -169q0 -107 -50.5 -170.5t-127.5 -63.5q-89 0 -138.5 82.5t-49.5 239.5q0 406 197 406q62 0 102 -41.5t54 -119.5l-96 -29q-9 51 -25 73.5t-42 22.5q-79 0 -90 -238h2q39 67 113 67zM216 75q41 0 63.5 41t22.5 104t-22 102t-64 39
q-56 0 -90 -72q2 -109 23.5 -161.5t66.5 -52.5z" />
    <glyph glyph-name="seven" unicode="7" horiz-adv-x="337" 
d="M7 700h299v-85q-105 -321 -116 -615h-101q11 263 128 606h-210v94z" />
    <glyph glyph-name="eight" unicode="8" horiz-adv-x="424" 
d="M288 372q109 -88 109 -198q0 -84 -51 -136t-135 -52q-81 0 -132 48t-51 129q0 115 105 205q-92 79 -92 174q0 79 47.5 125.5t124.5 46.5t123.5 -44t46.5 -119q0 -98 -95 -179zM209 622q-33 0 -53 -21t-20 -58q0 -35 22.5 -62t67.5 -61q62 54 62 116q0 41 -21 63.5
t-58 22.5zM214 78q40 0 63.5 25.5t23.5 69.5q0 43 -26.5 75.5t-79.5 71.5q-72 -66 -72 -141q0 -45 24.5 -73t66.5 -28z" />
    <glyph glyph-name="nine" unicode="9" horiz-adv-x="420" 
d="M204 714q89 0 138.5 -82.5t49.5 -239.5q0 -406 -197 -406q-62 0 -102 41.5t-54 119.5l96 29q9 -51 25 -73.5t42 -22.5q79 0 90 238h-2q-39 -67 -113 -67q-67 0 -109 60t-42 169q0 107 50.5 170.5t127.5 63.5zM204 339q56 0 90 72q-2 109 -23.5 161.5t-66.5 52.5
q-41 0 -63.5 -41t-22.5 -104t22 -102t64 -39z" />
    <glyph glyph-name="colon" unicode=":" horiz-adv-x="180" 
d="M38 510h105v-113h-105v113zM38 113h105v-113h-105v113z" />
    <glyph glyph-name="semicolon" unicode=";" horiz-adv-x="180" 
d="M38 510h105v-113h-105v113zM88 -155h-56l39 155h-33v113h105v-102z" />
    <glyph glyph-name="question" unicode="?" horiz-adv-x="311" 
d="M290 527q0 -144 -108 -331h-83q96 189 96 331q0 92 -48 92q-26 0 -41.5 -29t-21.5 -100l-86 16q10 110 47.5 159t105.5 49q67 0 103 -47t36 -140zM94 107h100v-107h-100v107z" />
    <glyph glyph-name="at" unicode="@" horiz-adv-x="623" 
d="M341 6q104 0 169 54l37 -61q-77 -62 -206 -62q-150 0 -231.5 95t-81.5 270q0 172 79.5 267.5t213.5 95.5q70 0 124 -26t86 -71.5t48 -103t16 -123.5q0 -130 -39 -194.5t-101 -64.5q-58 0 -78 48h-3q-10 -22 -32 -35.5t-49 -13.5q-55 0 -91 55.5t-36 162.5q0 105 36 160
t91 55q23 0 43.5 -11t27.5 -28h2v28h81v-297q0 -45 24 -45q52 0 52 180q0 255 -203 255q-104 0 -157.5 -75t-53.5 -219q0 -145 59.5 -220.5t172.5 -75.5zM316 160q36 0 49 38v198q-13 39 -49 39q-30 0 -47.5 -35.5t-17.5 -100.5q0 -67 17.5 -103t47.5 -36z" />
    <glyph glyph-name="A" unicode="A" horiz-adv-x="422" 
d="M311 0l-31 193h-137l-32 -193h-99l125 700h148l125 -700h-99zM158 286h107l-51 320h-4z" />
    <glyph glyph-name="B" unicode="B" horiz-adv-x="443" 
d="M302 361q117 -39 117 -172q0 -93 -56.5 -141t-164.5 -48h-141v700h131q212 0 212 -179q0 -120 -98 -156v-4zM182 607h-30v-202h31q57 0 88 26t31 75q0 101 -120 101zM193 93q66 0 97 27t31 84q0 108 -123 108h-46v-219h41z" />
    <glyph glyph-name="C" unicode="C" horiz-adv-x="398" 
d="M126 350q0 -124 23.5 -195.5t66.5 -71.5q57 0 72 111l92 -19q-23 -189 -161 -189q-86 0 -138.5 96.5t-52.5 267.5q0 172 52.5 268t138.5 96q137 0 161 -187l-92 -18q-15 108 -72 108q-44 0 -67 -71.5t-23 -195.5z" />
    <glyph glyph-name="D" unicode="D" horiz-adv-x="467" 
d="M157 700q132 0 207.5 -88.5t75.5 -260.5q0 -173 -75.5 -262t-207.5 -89h-100v700h100zM157 93q184 0 184 258q0 257 -184 257h-4v-515h4z" />
    <glyph glyph-name="E" unicode="E" horiz-adv-x="362" 
d="M152 93h183v-93h-278v700h269v-93h-174v-206h134v-93h-134v-215z" />
    <glyph glyph-name="F" unicode="F" horiz-adv-x="339" 
d="M336 607h-184v-221h144v-94h-144v-292h-95v700h279v-93z" />
    <glyph glyph-name="G" unicode="G" horiz-adv-x="431" 
d="M414 383l-1 -82q-3 -315 -183 -315q-94 0 -148 94.5t-54 264.5q0 177 55 273t153 96q131 0 157 -164l-94 -21q-17 90 -69 90q-104 0 -104 -274q0 -270 104 -270q46 0 65.5 54t21.5 161h-84v93h181z" />
    <glyph glyph-name="H" unicode="H" horiz-adv-x="461" 
d="M308 700h95v-700h-95v307h-155v-307h-96v700h96v-298h155v298z" />
    <glyph glyph-name="I" unicode="I" horiz-adv-x="210" 
d="M153 0h-96v700h96v-700z" />
    <glyph glyph-name="J" unicode="J" horiz-adv-x="256" 
d="M9 -11v95q17 -3 33 -3q38 0 52 17.5t14 63.5v538h96v-566q0 -80 -39 -114t-116 -34q-23 0 -40 3z" />
    <glyph glyph-name="K" unicode="K" horiz-adv-x="436" 
d="M323 0l-116 308l-54 -114v-194h-96v700h96v-345l163 345h101l-145 -299l155 -401h-104z" />
    <glyph glyph-name="L" unicode="L" horiz-adv-x="314" 
d="M152 93h158v-93h-253v700h95v-607z" />
    <glyph glyph-name="M" unicode="M" horiz-adv-x="632" 
d="M575 700l-4 -700h-91v503h-4l-110 -503h-102l-110 503h-4v-503h-93v700h147l109 -523h4l108 523h150z" />
    <glyph glyph-name="N" unicode="N" horiz-adv-x="489" 
d="M340 700h92v-700h-138l-140 510h-2l-2 -510h-93v700h138l141 -515h4v515z" />
    <glyph glyph-name="O" unicode="O" horiz-adv-x="462" 
d="M435 350q0 -173 -54 -268.5t-149 -95.5t-149.5 95.5t-54.5 269.5q0 173 54.5 269t149.5 96t149 -96t54 -270zM337 351q0 270 -105 270q-106 0 -106 -270t106 -270q105 0 105 270z" />
    <glyph glyph-name="P" unicode="P" horiz-adv-x="430" 
d="M196 700q106 0 166.5 -58t60.5 -168q0 -112 -59.5 -168t-167.5 -56h-43v-250h-96v700h139zM190 342q135 0 135 133q0 132 -135 132h-37v-265h37z" />
    <glyph glyph-name="Q" unicode="Q" horiz-adv-x="459" 
d="M435 350q0 -161 -51 -258l51 -63l-66 -54l-39 48q-45 -37 -98 -37q-95 0 -149.5 95.5t-54.5 269.5q0 173 54.5 269t149.5 96t149 -96t54 -270zM232 80q23 0 41 12l-77 94l66 54l57 -69q18 62 18 179q0 271 -105 271q-106 0 -106 -270q0 -271 106 -271z" />
    <glyph glyph-name="R" unicode="R" horiz-adv-x="448" 
d="M435 0h-104l-105 271q-11 -1 -33 -1h-41v-270h-95v700h136q106 0 166.5 -56.5t60.5 -159.5q0 -138 -103 -189zM188 362q134 0 134 123q0 122 -133 122h-37v-245h36z" />
    <glyph glyph-name="S" unicode="S" horiz-adv-x="366" 
d="M335 175q0 -88 -46 -138.5t-118 -50.5q-133 0 -158 162l92 28q13 -95 71 -95q29 0 46.5 22.5t17.5 62.5q0 44 -21.5 80t-52 62.5t-60.5 55t-51.5 71t-21.5 96.5q0 87 43 135t111 48q61 0 100 -40t52 -116l-93 -29q-15 91 -63 91q-26 0 -40.5 -22t-14.5 -59
q0 -39 21.5 -71.5t51.5 -58t60.5 -54.5t52 -75t21.5 -105z" />
    <glyph glyph-name="T" unicode="T" horiz-adv-x="349" 
d="M338 700v-93h-117v-607h-95v607h-116v93h328z" />
    <glyph glyph-name="U" unicode="U" horiz-adv-x="450" 
d="M400 195q0 -99 -43 -154t-131 -55t-131 55t-43 154v505h95v-507q0 -112 79 -112t79 112v507h95v-505z" />
    <glyph glyph-name="V" unicode="V" horiz-adv-x="401" 
d="M274 0h-148l-114 700h98l88 -595h4l87 595h100z" />
    <glyph glyph-name="W" unicode="W" horiz-adv-x="695" 
d="M572 700h99l-92 -700h-147l-83 581h-4l-82 -581h-147l-92 700h99l65 -581h4l82 581h148l81 -581h4z" />
    <glyph glyph-name="X" unicode="X" horiz-adv-x="395" 
d="M381 0h-99l-92 264l-83 -264h-93l118 358l-118 342h99l86 -257l84 257h93l-120 -350z" />
    <glyph glyph-name="Y" unicode="Y" horiz-adv-x="377" 
d="M372 700l-135 -426v-274h-96v274l-136 426h99l84 -295h4l84 295h96z" />
    <glyph glyph-name="Z" unicode="Z" horiz-adv-x="339" 
d="M314 0h-288v89l184 518h-173v93h274v-89l-183 -518h186v-93z" />
    <glyph glyph-name="bracketleft" unicode="[" 
 />
    <glyph glyph-name="bracketright" unicode="]" 
 />
    <glyph glyph-name="underscore" unicode="_" horiz-adv-x="361" 
d="M351 -190h-341v83h341v-83z" />
    <glyph glyph-name="grave" unicode="`" 
 />
    <glyph glyph-name="a" unicode="a" horiz-adv-x="356" 
d="M312 104q0 -39 3.5 -58t15.5 -41v-5h-95q-7 18 -11 33h-4q-23 -47 -80 -47q-52 0 -87.5 41.5t-35.5 111.5q0 65 29.5 105t98.5 61q34 10 77 16v52q0 70 -50 70q-41 0 -54 -59l-81 25q13 55 49 85t91 30q63 0 98.5 -36t35.5 -108v-276zM166 63q40 0 57 45v135
q-25 -3 -54 -11q-61 -20 -61 -93q0 -35 17 -55.5t41 -20.5z" />
    <glyph glyph-name="b" unicode="b" horiz-adv-x="400" 
d="M223 524q68 0 111 -67t43 -202t-43 -202t-111 -67q-28 0 -51.5 14t-32.5 35h-5v-35h-87v730h90v-255h2q9 22 32.5 35.5t51.5 13.5zM197 75q87 0 87 180q0 88 -22.5 134t-64.5 46q-45 0 -60 -47v-265q14 -48 60 -48z" />
    <glyph glyph-name="c" unicode="c" horiz-adv-x="337" 
d="M116 255q0 -180 68 -180q23 0 36.5 16.5t20.5 56.5l87 -18q-26 -144 -141 -144q-74 0 -118.5 72.5t-44.5 196.5t44.5 196.5t118.5 72.5q115 0 141 -143l-87 -17q-12 71 -57 71q-68 0 -68 -180z" />
    <glyph glyph-name="d" unicode="d" horiz-adv-x="400" 
d="M264 730h90v-730h-88v35h-4q-9 -21 -33 -35t-52 -14q-67 0 -110 67t-43 202q0 136 43 203t110 67q28 0 52 -14t33 -35h2v254zM204 75q45 0 60 48v265q-16 48 -60 48q-87 0 -87 -181q0 -180 87 -180z" />
    <glyph glyph-name="e" unicode="e" horiz-adv-x="353" 
d="M190 75q46 0 59 66l87 -19q-27 -136 -145 -136q-76 0 -121.5 72.5t-45.5 198.5q0 122 44 194.5t115 72.5q156 0 156 -305h-225q8 -144 76 -144zM183 437q-59 0 -68 -135h134q-7 135 -66 135z" />
    <glyph glyph-name="f" unicode="f" horiz-adv-x="239" 
d="M223 656q-39 0 -54.5 -17.5t-15.5 -62.5v-66h88v-85h-88v-425h-89v425h-53v85h53v76q0 87 38.5 122.5t114.5 35.5q27 0 42 -2v-87q-14 1 -36 1z" />
    <glyph glyph-name="g" unicode="g" horiz-adv-x="400" 
d="M267 510h88v-548q0 -82 -40.5 -124t-109.5 -42q-105 0 -138 90l85 40q18 -43 55 -43q58 0 58 85v85h-2q-10 -21 -34 -34t-53 -13q-65 0 -108.5 66.5t-43.5 191.5q0 126 43.5 193t108.5 67q28 0 52.5 -13.5t34.5 -34.5h4v34zM204 95q40 0 61 46v247q-18 47 -61 47
q-42 0 -64.5 -45t-22.5 -126q0 -80 22.5 -124.5t64.5 -44.5z" />
    <glyph glyph-name="h" unicode="h" horiz-adv-x="381" 
d="M227 524q52 0 81.5 -33.5t29.5 -98.5v-392h-89v367q0 68 -54 68q-43 0 -58 -48v-387h-90v730h90v-255h2q10 21 35.5 35t52.5 14z" />
    <glyph glyph-name="i" unicode="i" horiz-adv-x="182" 
d="M47 730h90v-110h-90v110zM47 510h90v-510h-90v510z" />
    <glyph glyph-name="j" unicode="j" horiz-adv-x="182" 
d="M47 730h90v-110h-90v110zM118 -190h-93v5q22 41 22 107v588h90v-611q0 -60 -19 -89z" />
    <glyph glyph-name="k" unicode="k" horiz-adv-x="358" 
d="M257 0l-79 202l-41 -86v-116h-90v730h90v-472l112 252h99l-107 -228l117 -282h-101z" />
    <glyph glyph-name="l" unicode="l" horiz-adv-x="182" 
d="M137 112q0 -39 3.5 -60t17.5 -47v-5h-93q-18 28 -18 89v641h90v-618z" />
    <glyph glyph-name="m" unicode="m" horiz-adv-x="582" 
d="M417 524q56 0 89 -33.5t33 -98.5v-392h-90v367q0 68 -53 68q-43 0 -58 -48v-387h-90v367q0 68 -53 68q-43 0 -58 -48v-387h-90v510h88v-35h4q11 21 35 35t51 14q65 0 95 -54q13 24 39.5 39t57.5 15z" />
    <glyph glyph-name="n" unicode="n" horiz-adv-x="384" 
d="M229 524q52 0 82 -33.5t30 -98.5v-392h-89v367q0 68 -55 68q-45 0 -60 -48v-387h-90v510h88v-35h4q10 21 35.5 35t54.5 14z" />
    <glyph glyph-name="o" unicode="o" horiz-adv-x="386" 
d="M363 255q0 -125 -45.5 -197t-124.5 -72q-78 0 -123.5 72t-45.5 197q0 124 46 196.5t124 72.5t123.5 -72.5t45.5 -196.5zM271 255q0 180 -77 180q-78 0 -78 -180t78 -180q77 0 77 180z" />
    <glyph glyph-name="p" unicode="p" horiz-adv-x="400" 
d="M223 524q68 0 111 -67t43 -202t-43 -202t-111 -67q-28 0 -51.5 14t-32.5 35h-2v-225h-90v700h87v-35h5q9 21 32.5 35t51.5 14zM197 75q87 0 87 180q0 88 -22.5 134t-64.5 46q-46 0 -60 -48v-264q14 -48 60 -48z" />
    <glyph glyph-name="q" unicode="q" horiz-adv-x="400" 
d="M266 510h88v-700h-90v225h-2q-9 -21 -33.5 -35t-52.5 -14q-66 0 -109 68.5t-43 199.5q0 133 43 201.5t109 68.5q28 0 52.5 -14t33.5 -35h4v35zM204 75q44 0 60 48v264q-16 48 -60 48q-87 0 -87 -181q0 -87 22.5 -133t64.5 -46z" />
    <glyph glyph-name="r" unicode="r" horiz-adv-x="267" 
d="M235 524q18 0 30 -3v-105q-17 7 -41 7q-60 0 -87 -66v-357h-90v510h88v-62h4q28 76 96 76z" />
    <glyph glyph-name="s" unicode="s" horiz-adv-x="293" 
d="M273 127q0 -69 -37.5 -105t-100.5 -36q-110 0 -128 121l89 25q5 -32 14 -45.5t29 -13.5q43 0 43 53q0 27 -16 49.5t-39 40t-46 38t-39 54.5t-16 78q0 59 34.5 98.5t93.5 39.5q105 0 124 -121l-89 -25q-5 32 -14 45.5t-27 13.5q-32 0 -32 -50q0 -27 16 -48.5t39 -39.5
t46.5 -38.5t39.5 -54.5t16 -79z" />
    <glyph glyph-name="t" unicode="t" horiz-adv-x="235" 
d="M230 422h-77v-310q0 -66 22 -107v-5h-93q-18 28 -18 89v333h-53v88h53v140h89v-140h77v-88z" />
    <glyph glyph-name="u" unicode="u" horiz-adv-x="382" 
d="M245 510h90v-510h-88v35h-4q-11 -21 -35.5 -35t-52.5 -14q-52 0 -82 33.5t-30 98.5v392h90v-367q0 -68 54 -68q40 0 58 48v387z" />
    <glyph glyph-name="v" unicode="v" horiz-adv-x="358" 
d="M237 0h-116l-113 510h94l75 -394h4l75 394h94z" />
    <glyph glyph-name="w" unicode="w" 
d="M492 510h94l-100 -510h-115l-68 392h-4l-69 -392h-116l-99 510h94l61 -392h4l69 392h116l67 -392h4z" />
    <glyph glyph-name="x" unicode="x" horiz-adv-x="344" 
d="M332 0h-102l-64 177l-61 -177h-93l100 263l-100 247h101l62 -173l59 173h93l-97 -259z" />
    <glyph glyph-name="y" unicode="y" horiz-adv-x="348" 
d="M164 -190h-95v5q29 37 44 102l20 83l-135 510h95l83 -360h4l68 360h94l-141 -611q-14 -63 -37 -89z" />
    <glyph glyph-name="z" unicode="z" horiz-adv-x="270" 
d="M244 0h-218v81l117 341h-109v88h208v-81l-117 -341h119v-88z" />
    <glyph glyph-name="braceleft" unicode="{" 
 />
    <glyph glyph-name="braceright" unicode="}" 
 />
    <glyph glyph-name="dieresis" unicode="&#xa8;" 
 />
    <glyph glyph-name="guillemotleft" unicode="&#xab;" 
 />
    <glyph glyph-name="acute" unicode="&#xb4;" 
 />
    <glyph glyph-name="periodcentered" unicode="&#xb7;" 
 />
    <glyph glyph-name="cedilla" unicode="&#xb8;" 
 />
    <glyph glyph-name="guillemotright" unicode="&#xbb;" 
 />
    <glyph glyph-name="Agrave" unicode="&#xc0;" 
 />
    <glyph glyph-name="Aacute" unicode="&#xc1;" 
 />
    <glyph glyph-name="Acircumflex" unicode="&#xc2;" 
 />
    <glyph glyph-name="Adieresis" unicode="&#xc4;" 
 />
    <glyph glyph-name="AE" unicode="&#xc6;" 
 />
    <glyph glyph-name="Ccedilla" unicode="&#xc7;" 
 />
    <glyph glyph-name="Egrave" unicode="&#xc8;" 
 />
    <glyph glyph-name="Eacute" unicode="&#xc9;" 
 />
    <glyph glyph-name="Ecircumflex" unicode="&#xca;" 
 />
    <glyph glyph-name="Edieresis" unicode="&#xcb;" 
 />
    <glyph glyph-name="Igrave" unicode="&#xcc;" 
 />
    <glyph glyph-name="Iacute" unicode="&#xcd;" 
 />
    <glyph glyph-name="Icircumflex" unicode="&#xce;" 
 />
    <glyph glyph-name="Idieresis" unicode="&#xcf;" 
 />
    <glyph glyph-name="Ograve" unicode="&#xd2;" 
 />
    <glyph glyph-name="Oacute" unicode="&#xd3;" 
 />
    <glyph glyph-name="Ocircumflex" unicode="&#xd4;" 
 />
    <glyph glyph-name="Odieresis" unicode="&#xd6;" 
 />
    <glyph glyph-name="Ugrave" unicode="&#xd9;" 
 />
    <glyph glyph-name="Uacute" unicode="&#xda;" 
 />
    <glyph glyph-name="Ucircumflex" unicode="&#xdb;" 
 />
    <glyph glyph-name="Udieresis" unicode="&#xdc;" 
 />
    <glyph glyph-name="germandbls" unicode="&#xdf;" 
 />
    <glyph glyph-name="agrave" unicode="&#xe0;" 
 />
    <glyph glyph-name="aacute" unicode="&#xe1;" 
 />
    <glyph glyph-name="acircumflex" unicode="&#xe2;" 
 />
    <glyph glyph-name="adieresis" unicode="&#xe4;" 
 />
    <glyph glyph-name="ae" unicode="&#xe6;" 
 />
    <glyph glyph-name="ccedilla" unicode="&#xe7;" 
 />
    <glyph glyph-name="egrave" unicode="&#xe8;" 
 />
    <glyph glyph-name="eacute" unicode="&#xe9;" 
 />
    <glyph glyph-name="ecircumflex" unicode="&#xea;" 
 />
    <glyph glyph-name="edieresis" unicode="&#xeb;" 
 />
    <glyph glyph-name="igrave" unicode="&#xec;" 
 />
    <glyph glyph-name="iacute" unicode="&#xed;" 
 />
    <glyph glyph-name="icircumflex" unicode="&#xee;" 
 />
    <glyph glyph-name="idieresis" unicode="&#xef;" 
 />
    <glyph glyph-name="ograve" unicode="&#xf2;" 
 />
    <glyph glyph-name="oacute" unicode="&#xf3;" 
 />
    <glyph glyph-name="ocircumflex" unicode="&#xf4;" 
 />
    <glyph glyph-name="odieresis" unicode="&#xf6;" 
 />
    <glyph glyph-name="ugrave" unicode="&#xf9;" 
 />
    <glyph glyph-name="uacute" unicode="&#xfa;" 
 />
    <glyph glyph-name="ucircumflex" unicode="&#xfb;" 
 />
    <glyph glyph-name="udieresis" unicode="&#xfc;" 
 />
    <glyph glyph-name="Cacute" unicode="&#x106;" 
 />
    <glyph glyph-name="cacute" unicode="&#x107;" 
 />
    <glyph glyph-name="Ccircumflex" unicode="&#x108;" 
 />
    <glyph glyph-name="ccircumflex" unicode="&#x109;" 
 />
    <glyph glyph-name="Gcircumflex" unicode="&#x11c;" 
 />
    <glyph glyph-name="gcircumflex" unicode="&#x11d;" 
 />
    <glyph glyph-name="Hcircumflex" unicode="&#x124;" 
 />
    <glyph glyph-name="hcircumflex" unicode="&#x125;" 
 />
    <glyph glyph-name="IJ" unicode="&#x132;" horiz-adv-x="466" 
d="M153 0h-96v700h96v-700zM219 -11v95q16 -3 33 -3q38 0 52 17.5t14 63.5v538h96v-566q0 -80 -39 -114t-116 -34q-23 0 -40 3z" />
    <glyph glyph-name="ij" unicode="&#x133;" horiz-adv-x="364" 
d="M47 730h90v-110h-90v110zM229 730h90v-110h-90v110zM47 510h90v-510h-90v510zM300 -190h-93v5q22 41 22 107v588h90v-611q0 -60 -19 -89z" />
    <glyph glyph-name="Jcircumflex" unicode="&#x134;" 
 />
    <glyph glyph-name="jcircumflex" unicode="&#x135;" 
 />
    <glyph glyph-name="Lacute" unicode="&#x139;" 
 />
    <glyph glyph-name="lacute" unicode="&#x13a;" 
 />
    <glyph glyph-name="Nacute" unicode="&#x143;" 
 />
    <glyph glyph-name="nacute" unicode="&#x144;" 
 />
    <glyph glyph-name="OE" unicode="&#x152;" 
 />
    <glyph glyph-name="oe" unicode="&#x153;" 
 />
    <glyph glyph-name="Racute" unicode="&#x154;" 
 />
    <glyph glyph-name="racute" unicode="&#x155;" 
 />
    <glyph glyph-name="AEacute" unicode="&#x1fc;" 
 />
    <glyph glyph-name="aeacute" unicode="&#x1fd;" 
 />
    <glyph glyph-name="circumflex" unicode="&#x2c6;" 
 />
    <glyph glyph-name="endash" unicode="&#x2013;" horiz-adv-x="361" 
d="M351 224h-341v83h341v-83z" />
    <glyph glyph-name="emdash" unicode="&#x2014;" horiz-adv-x="721" 
d="M711 224h-701v83h701v-83z" />
    <glyph glyph-name="quoteleft" unicode="&#x2018;" horiz-adv-x="180" 
d="M78 705h56l-25 -135h33v-113h-105v102z" />
    <glyph glyph-name="quoteright" unicode="&#x2019;" horiz-adv-x="180" 
d="M102 452h-56l25 135h-33v113h105v-102z" />
    <glyph glyph-name="quotesinglbase" unicode="&#x201a;" 
d="M88 -155h-56l39 155h-33v113h105v-102z" />
    <glyph glyph-name="quotedblleft" unicode="&#x201c;" horiz-adv-x="325" 
d="M78 705h56l-25 -135h33v-113h-105v102zM222 705h56l-25 -135h33v-113h-105v102z" />
    <glyph glyph-name="quotedblright" unicode="&#x201d;" horiz-adv-x="325" 
d="M102 452h-56l25 135h-33v113h105v-102zM246 452h-56l25 135h-33v113h105v-102z" />
    <glyph glyph-name="quotedblbase" unicode="&#x201e;" 
d="M38 113h105v-102l-55 -166h-56l39 155h-33v113z" />
    <glyph glyph-name="ellipsis" unicode="&#x2026;" 
d="M38 113h105v-113h-105v113z" />
    <glyph glyph-name="guilsinglleft" unicode="&#x2039;" 
 />
    <glyph glyph-name="guilsinglright" unicode="&#x203a;" 
 />
    <glyph glyph-name="Euro" unicode="&#x20ac;" horiz-adv-x="446" 
d="M251 83q53 0 68 111l92 -19q-23 -189 -157 -189q-70 0 -117 66.5t-62 189.5h-60v86h54v22v22h-54v87h60q15 123 62 189t117 66q133 0 157 -187l-92 -18q-15 108 -68 108q-60 0 -78 -158h159v-87h-164v-22v-22h164v-86h-159q18 -159 78 -159z" />
    <glyph glyph-name="fi" unicode="&#xfb01;" horiz-adv-x="421" 
d="M64 586q0 87 38.5 122.5t114.5 35.5q27 0 42 -2v-87q-14 1 -36 1q-39 0 -54.5 -17.5t-15.5 -62.5v-66h88v-85h-88v-425h-89v425h-53v85h53v76zM286 730h90v-110h-90v110zM286 0v510h90v-510h-90z" />
    <glyph glyph-name="fl" unicode="&#xfb02;" horiz-adv-x="421" 
d="M64 586q0 87 38.5 122.5t114.5 35.5q27 0 42 -2v-87q-14 1 -36 1q-39 0 -54.5 -17.5t-15.5 -62.5v-66h88v-85h-88v-425h-89v425h-53v85h53v76zM376 112q0 -39 3.5 -60t17.5 -47v-5h-93q-18 28 -18 89v641h90v-618z" />
    <glyph glyph-name="G.ss02" horiz-adv-x="431" 
d="M390 383v-383h-94v36h-4q-11 -24 -36.5 -37t-56.5 -13q-83 0 -127 92.5t-44 266.5q0 177 54.5 273t148.5 96q131 0 157 -164l-94 -21q-17 90 -69 90q-99 0 -99 -274q0 -270 105 -270q47 0 63 45v170h-75v93h171z" />
    <glyph glyph-name="germandbls.cap" 
 />
    <glyph glyph-name="a.ss01" horiz-adv-x="392" 
d="M350 104q0 -63 18 -99v-5h-95q-8 18 -11 35h-4q-9 -21 -32 -35t-50 -14q-65 0 -108.5 68.5t-43.5 201.5q0 131 43.5 199.5t108.5 68.5q27 0 50 -14t32 -35h4v36h88v-407zM202 75q43 0 58 48v264q-17 48 -58 48t-63 -46t-22 -133q0 -89 22 -135t63 -46z" />
    <glyph glyph-name="y.ss01" horiz-adv-x="358" 
d="M256 510h94l-126 -510v-190h-90v190l-126 510h94l75 -375h4z" />
    <glyph glyph-name="j.ss02" horiz-adv-x="182" 
d="M47 730h90v-110h-90v110zM-44 -201v87q14 -2 28 -2q35 0 49 17.5t14 62.5v546h90v-557q0 -86 -37 -121.5t-107 -35.5q-23 0 -37 3z" />
    <glyph glyph-name="t.ss02" horiz-adv-x="260" 
d="M213 74q22 0 38 2v-88q-19 -2 -54 -2q-70 0 -102 35t-32 123v281h-52v85h52v140h90v-140h88v-85h-88v-271q0 -45 12.5 -62.5t47.5 -17.5z" />
    <glyph glyph-name="y.ss03" horiz-adv-x="382" 
d="M246 510h89v-558q0 -80 -40 -118t-107 -38q-45 0 -80.5 19t-49.5 54l80 48q14 -33 50 -33q58 0 58 80v72h-2q-11 -21 -36 -35t-53 -14q-51 0 -81.5 33.5t-30.5 98.5v391h90v-365q0 -69 54 -69q41 0 59 48v386z" />
    <glyph glyph-name="f_f" horiz-adv-x="478" 
d="M153 576v-66h88v-85h-88v-425h-89v425h-53v85h53v76q0 87 38.5 122.5t114.5 35.5q27 0 42 -2v-87q-14 1 -36 1q-39 0 -54.5 -17.5t-15.5 -62.5zM462 656q-39 0 -54.5 -17.5t-15.5 -62.5v-66h88v-85h-88v-425h-89v425h-53v85h53v76q0 87 38.5 122.5t114.5 35.5q27 0 42 -2
v-87q-14 1 -36 1z" />
    <glyph glyph-name="f_f_i" horiz-adv-x="660" 
d="M153 576v-66h88v-85h-88v-425h-89v425h-53v85h53v76q0 87 38.5 122.5t114.5 35.5q27 0 42 -2v-87q-14 1 -36 1q-39 0 -54.5 -17.5t-15.5 -62.5zM303 586q0 87 38.5 122.5t114.5 35.5q27 0 42 -2v-87q-14 1 -36 1q-39 0 -54.5 -17.5t-15.5 -62.5v-66h88v-85h-88v-425h-89
v425h-53v85h53v76zM525 730h90v-110h-90v110zM525 0v510h90v-510h-90z" />
    <glyph glyph-name="f_f_l" horiz-adv-x="660" 
d="M153 576v-66h88v-85h-88v-425h-89v425h-53v85h53v76q0 87 38.5 122.5t114.5 35.5q27 0 42 -2v-87q-14 1 -36 1q-39 0 -54.5 -17.5t-15.5 -62.5zM303 586q0 87 38.5 122.5t114.5 35.5q27 0 42 -2v-87q-14 1 -36 1q-39 0 -54.5 -17.5t-15.5 -62.5v-66h88v-85h-88v-425h-89
v425h-53v85h53v76zM615 112q0 -39 3.5 -60t17.5 -47v-5h-93q-18 28 -18 89v641h90v-618z" />
    <glyph glyph-name="fi.cap" horiz-adv-x="421" 
d="M64 586q0 87 38.5 122.5t114.5 35.5q27 0 42 -2v-87q-14 1 -36 1q-39 0 -54.5 -17.5t-15.5 -62.5v-66h88v-85h-88v-425h-89v425h-53v85h53v76zM286 730h90v-110h-90v110zM286 0v510h90v-510h-90z" />
    <glyph glyph-name="fl.cap" horiz-adv-x="421" 
d="M64 586q0 87 38.5 122.5t114.5 35.5q27 0 42 -2v-87q-14 1 -36 1q-39 0 -54.5 -17.5t-15.5 -62.5v-66h88v-85h-88v-425h-89v425h-53v85h53v76zM376 112q0 -39 3.5 -60t17.5 -47v-5h-93q-18 28 -18 89v641h90v-618z" />
    <glyph glyph-name="periodcentered.cap" 
 />
    <glyph glyph-name="exclamdown.cap" 
 />
    <glyph glyph-name="questiondown.cap" 
 />
    <glyph glyph-name="parenleft.cap" 
 />
    <glyph glyph-name="parenright.cap" 
 />
    <glyph glyph-name="emdash.cap" 
 />
    <glyph glyph-name="endash.cap" 
 />
    <glyph glyph-name="hyphen.cap" 
 />
    <glyph glyph-name="guillemotleft.cap" 
 />
    <glyph glyph-name="guillemotright.cap" 
 />
    <glyph glyph-name="guilsinglleft.cap" 
 />
    <glyph glyph-name="guilsinglright.cap" 
 />
    <glyph glyph-name="acute.cap" 
 />
    <glyph glyph-name="circumflex.cap" 
 />
    <glyph glyph-name="dieresis.cap" 
 />
    <glyph glyph-name="grave.cap" 
 />
  </font>
</defs>
</svg>
