<?xml version="1.0" standalone="no"?>
<!DOCTYPE svg PUBLIC "-//W3C//DTD SVG 1.1//EN" "http://www.w3.org/Graphics/SVG/1.1/DTD/svg11.dtd" >
<svg xmlns="http://www.w3.org/2000/svg" xmlns:xlink="http://www.w3.org/1999/xlink" version="1.1">
<metadata>
Created by FontForge 20170731 at Fri Feb 23 16:37:40 2018
 By Aleksey,,,
copyright missing
</metadata>
<defs>
<font id="IndusHtest-Light" horiz-adv-x="600" >
  <font-face 
    font-family="IndusHtest Light"
    font-weight="300"
    font-stretch="normal"
    units-per-em="1000"
    panose-1="0 0 4 0 0 0 0 0 0 0"
    ascent="800"
    descent="-200"
    x-height="503"
    cap-height="700"
    bbox="-28 -204 1020 820"
    underline-thickness="50"
    underline-position="-200"
    unicode-range="U+0020-FB02"
  />
<missing-glyph horiz-adv-x="460" 
d="M377 730v-920h-291v920h291zM306 668h-151v-30h59v-34h-60v-30h152v30h-60v34h60v30zM246 550h-92v-96h152v31h-60v65zM214 518v-33h-30v33h30zM306 429h-152v-30h60v-34h-60v-31h92v65h60v30zM306 374h-30v-61h-122v-31h152v92zM306 262h-92v-52h32v21h30v-43h-92v74
h-30v-104h152v104zM306 103h-152v-104h152v104zM276 72v-43h-92v43h92zM306 -23h-152v-30h64l-64 -43v-31h152v31h-93l64 43h29v30z" />
    <glyph glyph-name=".notdef" horiz-adv-x="460" 
d="M377 730v-920h-291v920h291zM306 668h-151v-30h59v-34h-60v-30h152v30h-60v34h60v30zM246 550h-92v-96h152v31h-60v65zM214 518v-33h-30v33h30zM306 429h-152v-30h60v-34h-60v-31h92v65h60v30zM306 374h-30v-61h-122v-31h152v92zM306 262h-92v-52h32v21h30v-43h-92v74
h-30v-104h152v104zM306 103h-152v-104h152v104zM276 72v-43h-92v43h92zM306 -23h-152v-30h64l-64 -43v-31h152v31h-93l64 43h29v30z" />
    <glyph glyph-name=".null" horiz-adv-x="0" 
 />
    <glyph glyph-name="nonmarkingreturn" horiz-adv-x="333" 
 />
    <glyph glyph-name="space" unicode=" " horiz-adv-x="242" 
 />
    <glyph glyph-name="exclam" unicode="!" horiz-adv-x="242" 
d="M142 187h-42l-8 328v185h58v-185zM88 79h68v-79h-68v79z" />
    <glyph glyph-name="quotedbl" unicode="&#x22;" horiz-adv-x="381" 
d="M136 494h-35l-11 206h57zM280 494h-35l-11 206h57z" />
    <glyph glyph-name="dollar" unicode="$" horiz-adv-x="707" 
d="M614 175q0 -91 -68.5 -139t-185.5 -50v-106h-49v107q-188 12 -249 167l50 23q51 -126 199 -138v303q-53 13 -86 25t-69.5 33.5t-54.5 55t-18 78.5q0 83 61 129t167 51v106h49v-107q189 -9 252 -163l-50 -23q-53 126 -202 135v-279q34 -8 54 -13.5t50 -15.5t48.5 -20
t40 -26t33.5 -34t20 -43.5t8 -55.5zM138 536q0 -31 13 -54.5t39 -39.5t53.5 -26.5t67.5 -20.5v268q-80 -4 -126.5 -36.5t-46.5 -90.5zM360 37q91 2 145 36t54 101q0 29 -11 52t-28 38t-45.5 28.5t-53 21t-61.5 16.5v-293z" />
    <glyph glyph-name="quotesingle" unicode="'" horiz-adv-x="240" 
d="M136 494h-35l-11 206h57z" />
    <glyph glyph-name="parenleft" unicode="(" horiz-adv-x="288" 
d="M258 -115h-52q-68 73 -102 176.5t-34 213.5t34 213.5t102 176.5h52q-69 -78 -102.5 -180.5t-33.5 -209.5t33.5 -209.5t102.5 -180.5z" />
    <glyph glyph-name="parenright" unicode=")" horiz-adv-x="288" 
d="M30 -115q69 78 102.5 180.5t33.5 209.5t-33.5 209.5t-102.5 180.5h52q68 -73 102 -176.5t34 -213.5t-34 -213.5t-102 -176.5h-52z" />
    <glyph glyph-name="comma" unicode="," horiz-adv-x="242" 
d="M105 -149h-36l40 149h-24v80h71v-72z" />
    <glyph glyph-name="hyphen" unicode="-" horiz-adv-x="241" 
d="M231 239h-221v45h221v-45z" />
    <glyph glyph-name="period" unicode="." horiz-adv-x="242" 
d="M87 80h69v-80h-69v80z" />
    <glyph glyph-name="slash" unicode="/" horiz-adv-x="481" 
d="M100 0h-58l339 700h57z" />
    <glyph glyph-name="zero" unicode="0" horiz-adv-x="710" 
d="M663 350q0 -169 -84.5 -266.5t-223.5 -97.5t-223 97t-84 267q0 169 84 267t223 98t223.5 -97.5t84.5 -267.5zM608 350q0 140 -69.5 226.5t-183.5 86.5q-113 0 -182.5 -86.5t-69.5 -226.5q0 -141 69.5 -226.5t182.5 -85.5q114 0 183.5 85.5t69.5 226.5z" />
    <glyph glyph-name="one" unicode="1" horiz-adv-x="433" 
d="M323 0h-55v627h-4q-69 -98 -195 -175l-27 44q138 83 219 204h62v-700z" />
    <glyph glyph-name="two" unicode="2" horiz-adv-x="599" 
d="M142 51l417 -1v-50h-520v45q229 160 333 264t104 199q0 71 -50.5 112.5t-133.5 41.5q-161 0 -217 -150l-51 22q64 180 271 180q108 0 172.5 -53.5t64.5 -152.5q0 -104 -93 -207t-297 -250z" />
    <glyph glyph-name="three" unicode="3" horiz-adv-x="651" 
d="M591 186q0 -96 -69 -148t-195 -52q-218 0 -283 181l48 23q56 -152 235 -152q101 0 155 39.5t54 112.5q0 75 -47.5 110t-153.5 35h-132v50h131q93 0 138.5 38.5t45.5 101.5q0 138 -186 138q-162 0 -219 -136l-48 24q68 163 267 163q115 0 177 -47t62 -139
q0 -127 -121 -163v-4q68 -13 104.5 -58.5t36.5 -116.5z" />
    <glyph glyph-name="four" unicode="4" horiz-adv-x="662" 
d="M643 239v-51h-143v-188h-54v188h-413v45l397 467h70v-461h143zM110 239h336v389h-4z" />
    <glyph glyph-name="five" unicode="5" horiz-adv-x="653" 
d="M337 432q258 0 258 -223q0 -110 -68.5 -166.5t-195.5 -56.5q-218 0 -283 181l48 23q55 -152 236 -152q208 0 208 171q0 84 -50.5 128t-162.5 44q-117 0 -183 -46h-48l1 365h452v-51h-400v-256q69 39 188 39z" />
    <glyph glyph-name="six" unicode="6" horiz-adv-x="672" 
d="M356 440q132 0 203.5 -61t71.5 -167q0 -105 -76 -165.5t-203 -60.5q-145 0 -225 82t-80 256q0 190 77.5 290t213.5 100q196 0 264 -164l-49 -25q-60 138 -216 138q-104 0 -167.5 -83.5t-67.5 -235.5h3q38 47 104.5 71.5t146.5 24.5zM352 37q100 0 162 48t62 127
q0 80 -59.5 128.5t-168.5 48.5q-164 0 -244 -110q19 -242 248 -242z" />
    <glyph glyph-name="seven" unicode="7" horiz-adv-x="547" 
d="M6 700h497v-47q-226 -355 -256 -653h-58q34 302 256 649h-439v51z" />
    <glyph glyph-name="eight" unicode="8" horiz-adv-x="648" 
d="M402 377q94 -32 146.5 -77.5t52.5 -124.5q0 -91 -79 -140t-203 -49q-117 0 -194.5 47t-77.5 133q0 136 192 207q-79 28 -123.5 66.5t-44.5 102.5q0 78 70.5 125t182.5 47t182 -44.5t70 -119.5q0 -111 -174 -173zM125 544q0 -24 12.5 -44t28 -33t48.5 -27t54 -21t64 -20
q95 29 142 64t47 83q0 53 -54.5 85t-145.5 32q-86 0 -141 -32.5t-55 -86.5zM323 37q95 0 159 36.5t64 100.5q0 22 -8 41.5t-17.5 33.5t-31.5 28.5t-36.5 22.5t-46.5 19.5t-46.5 16t-51.5 15.5q-102 -32 -154 -74.5t-52 -104.5q0 -63 63 -99t158 -36z" />
    <glyph glyph-name="nine" unicode="9" horiz-adv-x="673" 
d="M321 714q145 0 225 -82t80 -256q0 -190 -77.5 -290t-213.5 -100q-196 0 -264 164l49 25q60 -138 216 -138q104 0 167.5 83.5t67.5 235.5h-3q-38 -47 -104.5 -71.5t-146.5 -24.5q-132 0 -203.5 61t-71.5 167q0 105 76 165.5t203 60.5zM325 311q164 0 244 110
q-19 242 -248 242q-100 0 -162 -48t-62 -127q0 -80 59.5 -128.5t168.5 -48.5z" />
    <glyph glyph-name="colon" unicode=":" horiz-adv-x="242" 
d="M87 503h69v-80h-69v80zM87 80h69v-80h-69v80z" />
    <glyph glyph-name="semicolon" unicode=";" horiz-adv-x="242" 
d="M87 503h69v-80h-69v80zM105 -149h-36l40 149h-24v80h71v-72z" />
    <glyph glyph-name="question" unicode="?" horiz-adv-x="497" 
d="M443 526q0 -142 -176 -339h-60q90 107 135.5 184.5t45.5 152.5q0 66 -41.5 102.5t-107.5 36.5q-136 0 -171 -160l-51 16q40 195 224 195q91 0 146.5 -48t55.5 -140zM205 79h68v-79h-68v79z" />
    <glyph glyph-name="at" unicode="@" horiz-adv-x="820" 
d="M549 492h48v-298q0 -55 38 -55q40 0 65.5 53.5t25.5 134.5q0 130 -78 213t-233 83q-151 0 -235 -85t-84 -236q0 -150 88 -236.5t241 -86.5q70 0 132.5 17.5t97.5 51.5l29 -36q-82 -75 -259 -75q-175 0 -276 96t-101 269t99 268t272 95t263 -94.5t90 -243.5
q0 -112 -41 -171.5t-101 -59.5q-65 0 -76 62h-3q-45 -66 -153 -66q-88 0 -144 56t-56 150t55.5 149.5t144.5 55.5q105 0 148 -63h3v52zM403 136q97 0 145 72v179q-48 72 -145 72q-70 0 -112 -44t-42 -117q0 -75 42 -118.5t112 -43.5z" />
    <glyph glyph-name="A" unicode="A" horiz-adv-x="644" 
d="M573 0l-92 236h-318l-92 -236h-59l274 700h72l274 -700h-59zM182 287h280l-138 355h-4z" />
    <glyph glyph-name="B" unicode="B" horiz-adv-x="677" 
d="M485 360q70 -15 107.5 -61.5t37.5 -113.5q0 -185 -242 -185h-277v700h263q236 0 236 -177q0 -123 -125 -159v-4zM369 650h-204v-264h210q180 0 180 132q0 68 -45 100t-141 32zM384 50q99 0 144.5 33.5t45.5 107.5q0 144 -188 144h-221v-285h219z" />
    <glyph glyph-name="C" unicode="C" horiz-adv-x="655" 
d="M103 350q0 -140 68 -226t177 -86q162 0 217 154l52 -22q-65 -184 -268 -184q-134 0 -217.5 97.5t-83.5 266.5t83.5 266.5t217.5 97.5q202 0 268 -180l-52 -22q-56 150 -217 150q-109 0 -177 -86t-68 -226z" />
    <glyph glyph-name="D" unicode="D" horiz-adv-x="720" 
d="M299 700q184 0 278.5 -89t94.5 -261t-94.5 -261t-278.5 -89h-188v700h188zM296 51q162 0 241.5 77.5t79.5 221.5q0 145 -79.5 222.5t-241.5 77.5h-131v-599h131z" />
    <glyph glyph-name="E" unicode="E" horiz-adv-x="631" 
d="M165 50h403v-50h-457v700h442v-50h-388v-270h294v-50h-294v-280z" />
    <glyph glyph-name="F" unicode="F" horiz-adv-x="574" 
d="M566 650h-401v-282h307v-50h-307v-318h-54v700h455v-50z" />
    <glyph glyph-name="G" unicode="G" horiz-adv-x="723" 
d="M662 360v-39q0 -154 -79.5 -244.5t-220.5 -90.5q-142 0 -228 97t-86 266q0 171 87 268t230 97q195 0 262 -165l-52 -23q-56 136 -212 136q-117 0 -188.5 -85.5t-71.5 -228.5q0 -140 71.5 -226t187.5 -86q115 0 179.5 77.5t65.5 196.5h-231v50h286z" />
    <glyph glyph-name="H" unicode="H" horiz-adv-x="749" 
d="M584 700h54v-700h-54v329h-419v-329h-54v700h54v-320h419v320z" />
    <glyph glyph-name="I" unicode="I" horiz-adv-x="275" 
d="M165 0h-54v700h54v-700z" />
    <glyph glyph-name="J" unicode="J" horiz-adv-x="327" 
d="M24 -10v52q21 -4 47 -4q60 0 80 24t20 87v551h54v-567q0 -78 -34 -112.5t-117 -34.5q-30 0 -50 4z" />
    <glyph glyph-name="K" unicode="K" horiz-adv-x="666" 
d="M572 0l-291 357l-116 -124v-233h-54v700h54v-393l394 393h74l-309 -305l319 -395h-71z" />
    <glyph glyph-name="L" unicode="L" horiz-adv-x="543" 
d="M165 50h370v-50h-424v700h54v-650z" />
    <glyph glyph-name="M" unicode="M" horiz-adv-x="900" 
d="M789 700v-700h-54v617h-4l-252 -617h-59l-252 617h-4v-617h-53v700h82l255 -625h4l255 625h82z" />
    <glyph glyph-name="N" unicode="N" horiz-adv-x="742" 
d="M578 700h54v-700h-76l-388 622h-3l-1 -622h-53v700h75l388 -624h4v624z" />
    <glyph glyph-name="O" unicode="O" horiz-adv-x="731" 
d="M684 350q0 -169 -87 -266.5t-231 -97.5t-231 97t-87 267q0 169 87 267t231 98t231 -97.5t87 -267.5zM629 350q0 141 -72.5 227.5t-190.5 86.5t-190.5 -86.5t-72.5 -227.5t72 -226.5t191 -85.5t191 85.5t72 226.5z" />
    <glyph glyph-name="P" unicode="P" horiz-adv-x="644" 
d="M379 700q251 0 251 -212q0 -106 -61 -158.5t-190 -52.5h-214v-277h-54v700h268zM377 327q104 0 151 40t47 121t-47 121.5t-152 40.5h-211v-323h212z" />
    <glyph glyph-name="Q" unicode="Q" horiz-adv-x="736" 
d="M688 350q0 -160 -79 -256l78 -73l-36 -38l-78 73q-82 -70 -204 -70q-144 0 -230.5 97t-86.5 267t86.5 267.5t230.5 97.5t231.5 -97.5t87.5 -267.5zM369 38q95 0 163 56l-106 99l36 38l106 -99q65 86 65 218q0 141 -72.5 227t-191.5 86q-118 0 -190 -86t-72 -227
t72 -226.5t190 -85.5z" />
    <glyph glyph-name="R" unicode="R" horiz-adv-x="675" 
d="M570 0l-201 294h-204v-294h-54v700h265q246 0 246 -203q0 -180 -190 -200l205 -297h-67zM165 650v-306h209q101 0 147 38t46 115q0 153 -194 153h-208z" />
    <glyph glyph-name="S" unicode="S" horiz-adv-x="617" 
d="M555 176q0 -93 -68.5 -141.5t-174.5 -48.5q-199 0 -265 168l50 23q57 -140 216 -140q80 0 133.5 35t53.5 102q0 45 -24 76t-62 47.5t-84 29t-92 26.5t-84 33.5t-62 56.5t-24 90q0 86 63.5 133.5t163.5 47.5q191 0 257 -164l-50 -23q-58 136 -208 136q-74 0 -123 -33
t-49 -94q0 -43 24 -72t62 -44.5t84 -27.5t92.5 -26.5t84.5 -35t62 -59.5t24 -95z" />
    <glyph glyph-name="T" unicode="T" horiz-adv-x="552" 
d="M541 700v-50h-239v-650h-53v650h-238v50h530z" />
    <glyph glyph-name="U" unicode="U" horiz-adv-x="733" 
d="M630 247q0 -127 -70 -194t-193 -67q-124 0 -194 66.5t-70 194.5v453h54v-448q0 -107 55.5 -161t154.5 -54q97 0 153 54.5t56 160.5v448h54v-453z" />
    <glyph glyph-name="V" unicode="V" horiz-adv-x="625" 
d="M349 0h-72l-265 700h60l239 -638h4l238 638h60z" />
    <glyph glyph-name="W" unicode="W" horiz-adv-x="1058" 
d="M960 700h60l-211 -700h-72l-206 630h-4l-206 -630h-72l-210 700h59l186 -630h4l206 630h72l205 -630h4z" />
    <glyph glyph-name="X" unicode="X" horiz-adv-x="616" 
d="M587 0h-66l-213 317l-209 -317h-63l235 357l-235 343h65l210 -309l207 309h63l-234 -349z" />
    <glyph glyph-name="Y" unicode="Y" horiz-adv-x="572" 
d="M561 700l-248 -411v-289h-54v289l-249 411h65l210 -348h4l210 348h62z" />
    <glyph glyph-name="Z" unicode="Z" horiz-adv-x="562" 
d="M517 0h-472v47l394 603h-387v50h458v-47l-394 -603h401v-50z" />
    <glyph glyph-name="bracketleft" unicode="[" horiz-adv-x="477" 
 />
    <glyph glyph-name="bracketright" unicode="]" horiz-adv-x="477" 
 />
    <glyph glyph-name="underscore" unicode="_" horiz-adv-x="481" 
d="M471 -190h-461v45h461v-45z" />
    <glyph glyph-name="grave" unicode="`" 
 />
    <glyph glyph-name="a" unicode="a" horiz-adv-x="530" 
d="M454 95q0 -46 21 -91v-4h-53q-7 15 -18 51h-4q-57 -65 -173 -65q-80 0 -132.5 38t-52.5 112q0 64 40.5 99.5t130.5 50.5q64 9 190 15v51q0 119 -139 119q-113 0 -152 -84l-44 22q50 108 197 108q86 0 137.5 -38.5t51.5 -124.5v-259zM232 30q109 0 171 74v152
q-111 -4 -180 -14q-70 -10 -100 -35.5t-30 -70.5q0 -52 40 -79t99 -27z" />
    <glyph glyph-name="b" unicode="b" horiz-adv-x="612" 
d="M329 517q107 0 172.5 -70.5t65.5 -195.5t-65.5 -195t-172.5 -70q-125 0 -179 77h-4v-63h-50v730h52v-291h2q53 78 179 78zM321 34q86 0 139.5 59t53.5 158q0 100 -53.5 159t-139.5 59q-116 0 -173 -88v-260q57 -87 173 -87z" />
    <glyph glyph-name="c" unicode="c" horiz-adv-x="503" 
d="M98 252q0 -99 51 -158.5t132 -59.5q55 0 98 26.5t61 83.5l48 -19q-23 -72 -78.5 -105.5t-127.5 -33.5q-104 0 -170.5 71.5t-66.5 194.5q0 122 66.5 193.5t170.5 71.5q73 0 128 -32.5t78 -103.5l-48 -18q-33 105 -159 105q-80 0 -131.5 -59.5t-51.5 -156.5z" />
    <glyph glyph-name="d" unicode="d" horiz-adv-x="612" 
d="M465 730h51v-730h-50v63h-4q-52 -77 -178 -77q-107 0 -173 70t-66 195t66 195.5t173 70.5q126 0 178 -77h3v290zM292 34q115 0 173 87v260q-59 88 -173 88q-87 0 -140 -59t-53 -159t53 -158.5t140 -58.5z" />
    <glyph glyph-name="e" unicode="e" horiz-adv-x="530" 
d="M285 34q125 0 162 100l47 -18q-25 -67 -80.5 -98.5t-128.5 -31.5q-106 0 -173 71.5t-67 194.5q0 121 65.5 193t164.5 72q103 0 163 -72t61 -206h-403q4 -94 56 -149.5t133 -55.5zM275 470q-71 0 -120 -51t-57 -135h348q-7 86 -52.5 136t-118.5 50z" />
    <glyph glyph-name="f" unicode="f" horiz-adv-x="317" 
d="M279 696q-59 0 -84.5 -26t-25.5 -92v-75h144v-47h-144v-456h-52v456h-81v47h81v80q0 85 39 123t121 38q20 0 54 -2v-48q-16 2 -52 2z" />
    <glyph glyph-name="g" unicode="g" horiz-adv-x="607" 
d="M461 503h50v-514q0 -100 -57.5 -146.5t-153.5 -46.5q-129 0 -180 88l43 27q39 -67 137 -67q159 0 159 149v90h-2q-54 -77 -176 -77q-105 0 -170.5 68t-65.5 187q0 120 65.5 188t170.5 68q123 0 176 -78h4v64zM289 54q113 0 170 87v241q-58 87 -170 87q-86 0 -138 -56.5
t-52 -151.5t52 -151t138 -56z" />
    <glyph glyph-name="h" unicode="h" horiz-adv-x="580" 
d="M314 517q91 0 141 -46t50 -140v-331h-52v317q0 80 -38.5 115.5t-110.5 35.5q-99 0 -156 -87v-381h-52v730h52v-291h2q24 36 68 57t96 21z" />
    <glyph glyph-name="i" unicode="i" horiz-adv-x="244" 
d="M96 730h52v-92h-52v92zM96 503h52v-503h-52v503z" />
    <glyph glyph-name="j" unicode="j" horiz-adv-x="244" 
d="M96 730h52v-92h-52v92zM133 -190h-54v4q17 35 17 81v606h52v-621q0 -42 -15 -70z" />
    <glyph glyph-name="k" unicode="k" horiz-adv-x="520" 
d="M432 0l-201 247l-83 -90v-157h-52v730h52v-508l272 281h72l-220 -220l230 -283h-70z" />
    <glyph glyph-name="l" unicode="l" horiz-adv-x="244" 
d="M148 85q0 -46 17 -81v-4h-54q-15 28 -15 70v660h52v-645z" />
    <glyph glyph-name="m" unicode="m" horiz-adv-x="914" 
d="M650 517q89 0 139 -46t50 -140v-331h-52v317q0 151 -143 151q-98 0 -154 -91q3 -23 3 -46v-331h-51v317q0 151 -144 151q-93 0 -150 -87v-381h-52v503h50v-64h4q24 35 67 56.5t91 21.5q126 0 167 -92h1q26 41 74 66.5t100 25.5z" />
    <glyph glyph-name="n" unicode="n" horiz-adv-x="587" 
d="M318 517q93 0 143.5 -46t50.5 -140v-331h-52v317q0 81 -39 116t-114 35q-102 0 -159 -87v-381h-52v503h50v-64h4q24 36 68.5 57t99.5 21z" />
    <glyph glyph-name="o" unicode="o" horiz-adv-x="580" 
d="M535 251q0 -123 -68 -194t-178 -71q-108 0 -176 71.5t-68 193.5q0 123 68 194.5t177 71.5q110 0 177.5 -71.5t67.5 -194.5zM481 251q0 99 -52.5 158t-138.5 59q-87 0 -139.5 -59t-52.5 -158t52.5 -158t139.5 -59q86 0 138.5 59t52.5 158z" />
    <glyph glyph-name="p" unicode="p" horiz-adv-x="612" 
d="M329 517q107 0 172.5 -70.5t65.5 -194.5q0 -125 -65.5 -195.5t-172.5 -70.5q-125 0 -179 77h-2v-253h-52v693h50v-64h4q53 78 179 78zM321 34q86 0 139.5 59t53.5 159q0 99 -53.5 158t-139.5 59q-116 0 -173 -88v-260q57 -87 173 -87z" />
    <glyph glyph-name="q" unicode="q" horiz-adv-x="612" 
d="M466 503h50v-693h-51v253h-3q-52 -77 -179 -77q-106 0 -172 70.5t-66 194.5q0 125 66 195.5t172 70.5q128 0 179 -78h4v64zM292 34q114 0 173 87v260q-59 88 -173 88q-87 0 -140 -59t-53 -159t53 -158.5t140 -58.5z" />
    <glyph glyph-name="r" unicode="r" horiz-adv-x="389" 
d="M324 517q27 0 47 -4v-50q-25 5 -51 5q-112 0 -172 -103v-366h-52v504h50v-77h4q56 91 174 91z" />
    <glyph glyph-name="s" unicode="s" horiz-adv-x="483" 
d="M435 128q0 -71 -52 -106.5t-138 -35.5q-153 0 -199 119l46 21q36 -93 154 -93q60 0 98.5 23t38.5 69q0 36 -24 58.5t-60 31.5t-77.5 20t-77.5 23t-60 43t-24 78q0 64 49.5 101t128.5 37q150 0 196 -119l-46 -22q-37 94 -151 94q-55 0 -90 -23.5t-35 -64.5q0 -42 33.5 -65
t80.5 -32.5t94.5 -22t81 -45t33.5 -89.5z" />
    <glyph glyph-name="t" unicode="t" horiz-adv-x="305" 
d="M282 455h-113v-370q0 -46 17 -81v-4h-54q-15 28 -15 70v385h-81v48h81v147h52v-147h113v-48z" />
    <glyph glyph-name="u" unicode="u" horiz-adv-x="579" 
d="M433 503h52v-503h-50v63h-4q-25 -35 -68.5 -56t-95.5 -21q-91 0 -141 45.5t-50 139.5v332h52v-317q0 -152 149 -152q99 0 156 88v381z" />
    <glyph glyph-name="v" unicode="v" horiz-adv-x="505" 
d="M285 0h-66l-207 503h56l182 -445h4l182 445h57z" />
    <glyph glyph-name="w" unicode="w" horiz-adv-x="832" 
d="M744 503h57l-168 -503h-66l-148 440h-4l-150 -440h-67l-167 503h57l141 -440h4l151 440h66l148 -440h4z" />
    <glyph glyph-name="x" unicode="x" horiz-adv-x="492" 
d="M463 0h-65l-155 216l-153 -216h-61l180 257l-180 246h65l153 -213l150 213h61l-176 -253z" />
    <glyph glyph-name="y" unicode="y" horiz-adv-x="500" 
d="M197 -190h-60v4q28 26 49 80l42 106l-225 503h58l193 -433h4l170 433h57l-248 -623q-20 -50 -40 -70z" />
    <glyph glyph-name="z" unicode="z" horiz-adv-x="437" 
d="M393 0h-348v43l275 412h-270v48h338v-44l-275 -411h280v-48z" />
    <glyph glyph-name="braceleft" unicode="{" horiz-adv-x="477" 
 />
    <glyph glyph-name="braceright" unicode="}" horiz-adv-x="477" 
 />
    <glyph glyph-name="dieresis" unicode="&#xa8;" 
 />
    <glyph glyph-name="guillemotleft" unicode="&#xab;" 
 />
    <glyph glyph-name="acute" unicode="&#xb4;" 
 />
    <glyph glyph-name="periodcentered" unicode="&#xb7;" 
 />
    <glyph glyph-name="cedilla" unicode="&#xb8;" 
 />
    <glyph glyph-name="guillemotright" unicode="&#xbb;" 
 />
    <glyph glyph-name="Agrave" unicode="&#xc0;" 
 />
    <glyph glyph-name="Aacute" unicode="&#xc1;" 
 />
    <glyph glyph-name="Acircumflex" unicode="&#xc2;" 
 />
    <glyph glyph-name="Adieresis" unicode="&#xc4;" 
 />
    <glyph glyph-name="AE" unicode="&#xc6;" 
 />
    <glyph glyph-name="Ccedilla" unicode="&#xc7;" 
 />
    <glyph glyph-name="Egrave" unicode="&#xc8;" 
 />
    <glyph glyph-name="Eacute" unicode="&#xc9;" 
 />
    <glyph glyph-name="Ecircumflex" unicode="&#xca;" 
 />
    <glyph glyph-name="Edieresis" unicode="&#xcb;" 
 />
    <glyph glyph-name="Igrave" unicode="&#xcc;" 
 />
    <glyph glyph-name="Iacute" unicode="&#xcd;" 
 />
    <glyph glyph-name="Icircumflex" unicode="&#xce;" 
 />
    <glyph glyph-name="Idieresis" unicode="&#xcf;" 
 />
    <glyph glyph-name="Ograve" unicode="&#xd2;" 
 />
    <glyph glyph-name="Oacute" unicode="&#xd3;" 
 />
    <glyph glyph-name="Ocircumflex" unicode="&#xd4;" 
 />
    <glyph glyph-name="Odieresis" unicode="&#xd6;" 
 />
    <glyph glyph-name="Ugrave" unicode="&#xd9;" 
 />
    <glyph glyph-name="Uacute" unicode="&#xda;" 
 />
    <glyph glyph-name="Ucircumflex" unicode="&#xdb;" 
 />
    <glyph glyph-name="Udieresis" unicode="&#xdc;" 
 />
    <glyph glyph-name="germandbls" unicode="&#xdf;" 
 />
    <glyph glyph-name="agrave" unicode="&#xe0;" 
 />
    <glyph glyph-name="aacute" unicode="&#xe1;" 
 />
    <glyph glyph-name="acircumflex" unicode="&#xe2;" 
 />
    <glyph glyph-name="adieresis" unicode="&#xe4;" 
 />
    <glyph glyph-name="ae" unicode="&#xe6;" 
 />
    <glyph glyph-name="ccedilla" unicode="&#xe7;" 
 />
    <glyph glyph-name="egrave" unicode="&#xe8;" 
 />
    <glyph glyph-name="eacute" unicode="&#xe9;" 
 />
    <glyph glyph-name="ecircumflex" unicode="&#xea;" 
 />
    <glyph glyph-name="edieresis" unicode="&#xeb;" 
 />
    <glyph glyph-name="igrave" unicode="&#xec;" 
 />
    <glyph glyph-name="iacute" unicode="&#xed;" 
 />
    <glyph glyph-name="icircumflex" unicode="&#xee;" 
 />
    <glyph glyph-name="idieresis" unicode="&#xef;" 
 />
    <glyph glyph-name="ograve" unicode="&#xf2;" 
 />
    <glyph glyph-name="oacute" unicode="&#xf3;" 
 />
    <glyph glyph-name="ocircumflex" unicode="&#xf4;" 
 />
    <glyph glyph-name="odieresis" unicode="&#xf6;" 
 />
    <glyph glyph-name="ugrave" unicode="&#xf9;" 
 />
    <glyph glyph-name="uacute" unicode="&#xfa;" 
 />
    <glyph glyph-name="ucircumflex" unicode="&#xfb;" 
 />
    <glyph glyph-name="udieresis" unicode="&#xfc;" 
 />
    <glyph glyph-name="Cacute" unicode="&#x106;" 
 />
    <glyph glyph-name="cacute" unicode="&#x107;" 
 />
    <glyph glyph-name="Ccircumflex" unicode="&#x108;" 
 />
    <glyph glyph-name="ccircumflex" unicode="&#x109;" 
 />
    <glyph glyph-name="Gcircumflex" unicode="&#x11c;" 
 />
    <glyph glyph-name="gcircumflex" unicode="&#x11d;" 
 />
    <glyph glyph-name="Hcircumflex" unicode="&#x124;" 
 />
    <glyph glyph-name="hcircumflex" unicode="&#x125;" 
 />
    <glyph glyph-name="IJ" unicode="&#x132;" horiz-adv-x="602" 
d="M165 0h-54v700h54v-700zM299 -10v52q21 -4 47 -4q60 0 80 24t20 87v551h54v-567q0 -78 -34 -112.5t-117 -34.5q-30 0 -50 4z" />
    <glyph glyph-name="ij" unicode="&#x133;" horiz-adv-x="488" 
d="M96 730h52v-92h-52v92zM340 730h52v-92h-52v92zM96 503h52v-503h-52v503zM377 -190h-54v4q17 35 17 81v606h52v-621q0 -42 -15 -70z" />
    <glyph glyph-name="Jcircumflex" unicode="&#x134;" 
 />
    <glyph glyph-name="jcircumflex" unicode="&#x135;" 
 />
    <glyph glyph-name="Lacute" unicode="&#x139;" 
 />
    <glyph glyph-name="lacute" unicode="&#x13a;" 
 />
    <glyph glyph-name="Nacute" unicode="&#x143;" 
 />
    <glyph glyph-name="nacute" unicode="&#x144;" 
 />
    <glyph glyph-name="OE" unicode="&#x152;" 
 />
    <glyph glyph-name="oe" unicode="&#x153;" 
 />
    <glyph glyph-name="Racute" unicode="&#x154;" 
 />
    <glyph glyph-name="racute" unicode="&#x155;" 
 />
    <glyph glyph-name="AEacute" unicode="&#x1fc;" 
 />
    <glyph glyph-name="aeacute" unicode="&#x1fd;" 
 />
    <glyph glyph-name="circumflex" unicode="&#x2c6;" 
 />
    <glyph glyph-name="endash" unicode="&#x2013;" horiz-adv-x="481" 
d="M471 239h-461v45h461v-45z" />
    <glyph glyph-name="emdash" unicode="&#x2014;" horiz-adv-x="963" 
d="M953 239h-943v45h943v-45z" />
    <glyph glyph-name="quoteleft" unicode="&#x2018;" horiz-adv-x="240" 
d="M126 704h35l-31 -128h24v-80h-70v73z" />
    <glyph glyph-name="quoteright" unicode="&#x2019;" horiz-adv-x="240" 
d="M114 492h-35l31 128h-24v80h70v-73z" />
    <glyph glyph-name="quotesinglbase" unicode="&#x201a;" 
d="M105 -149h-36l40 149h-24v80h71v-72z" />
    <glyph glyph-name="quotedblleft" unicode="&#x201c;" horiz-adv-x="381" 
d="M126 704h35l-31 -128h24v-80h-70v73zM267 704h35l-31 -128h24v-80h-70v73z" />
    <glyph glyph-name="quotedblright" unicode="&#x201d;" horiz-adv-x="381" 
d="M114 492h-35l31 128h-24v80h70v-73zM255 492h-35l31 128h-24v80h70v-73z" />
    <glyph glyph-name="quotedblbase" unicode="&#x201e;" 
d="M85 80h71v-72l-51 -157h-36l40 149h-24v80z" />
    <glyph glyph-name="ellipsis" unicode="&#x2026;" 
d="M87 80h69v-80h-69v80z" />
    <glyph glyph-name="guilsinglleft" unicode="&#x2039;" 
 />
    <glyph glyph-name="guilsinglright" unicode="&#x203a;" 
 />
    <glyph glyph-name="Euro" unicode="&#x20ac;" horiz-adv-x="707" 
d="M394 38q155 0 209 154l52 -22q-65 -184 -260 -184q-114 0 -192.5 73.5t-99.5 204.5h-86v47h81q-1 13 -1 39t1 39h-81v48h87q20 130 98.5 203.5t192.5 73.5q194 0 260 -180l-52 -22q-28 77 -83 113.5t-126 36.5q-88 0 -151.5 -61t-82.5 -164h336v-48h-342q-2 -26 -2 -39
t2 -39h342v-47h-336q20 -104 83 -165t151 -61z" />
    <glyph glyph-name="fi" unicode="&#xfb01;" horiz-adv-x="561" 
d="M117 583q0 85 39 123t121 38q20 0 54 -2v-48q-16 2 -52 2q-59 0 -84.5 -26t-25.5 -92v-75h144v-47h-144v-456h-52v456h-81v47h81v80zM413 730h52v-92h-52v92zM413 0v503h52v-503h-52z" />
    <glyph glyph-name="fl" unicode="&#xfb02;" horiz-adv-x="561" 
d="M117 583q0 85 39 123t121 38q20 0 54 -2v-48q-16 2 -52 2q-59 0 -84.5 -26t-25.5 -92v-75h144v-47h-144v-456h-52v456h-81v47h81v80zM465 85q0 -46 17 -81v-4h-54q-15 28 -15 70v660h52v-645z" />
    <glyph glyph-name="G.ss02" horiz-adv-x="723" 
d="M634 360v-360h-51v63h-4q-31 -37 -89 -57t-128 -20q-145 0 -229.5 96.5t-84.5 266.5q0 172 85 268.5t228 96.5q195 0 262 -165l-52 -23q-57 136 -213 136q-116 0 -185.5 -85.5t-69.5 -228.5q0 -142 71.5 -227t195.5 -85q144 0 211 87v187h-207v50h260z" />
    <glyph glyph-name="germandbls.cap" 
 />
    <glyph glyph-name="a.ss01" horiz-adv-x="611" 
d="M511 95q0 -46 21 -91v-4h-54q-15 34 -17 63h-4q-54 -77 -177 -77q-104 0 -169.5 71t-65.5 195t65.5 194.5t169.5 70.5q124 0 177 -78h4v64h50v-408zM289 34q113 0 170 87v260q-57 88 -170 88q-84 0 -137 -59t-53 -158q0 -100 53 -159t137 -59z" />
    <glyph glyph-name="y.ss01" horiz-adv-x="505" 
d="M436 503h57l-215 -503v-190h-52v190l-214 503h56l182 -434h4z" />
    <glyph glyph-name="j.ss02" horiz-adv-x="244" 
d="M96 730h52v-91h-52v91zM-28 -200v47q18 -3 40 -3q48 0 66 24.5t18 86.5v546h52v-552q0 -81 -31 -117t-101 -36q-28 0 -44 4z" />
    <glyph glyph-name="t.ss02" horiz-adv-x="359" 
d="M267 34q17 0 55 2v-47q-28 -3 -59 -3q-76 0 -111 37t-35 124v309h-81v47h81v147h52v-147h144v-47h-144v-303q0 -67 22 -93t76 -26z" />
    <glyph glyph-name="y.ss03" horiz-adv-x="580" 
d="M433 503h52v-516q0 -99 -56 -145t-150 -46q-113 0 -164 79l36 31q43 -62 128 -62q154 0 154 147v72h-2q-25 -35 -68.5 -56t-95.5 -21q-91 0 -141 45.5t-50 139.5v332h52v-318q0 -80 38.5 -115.5t110.5 -35.5q99 0 156 87v382z" />
    <glyph glyph-name="f_f" horiz-adv-x="634" 
d="M117 583q0 85 39 123t121 38q20 0 54 -2v-48q-16 2 -52 2q-59 0 -84.5 -26t-25.5 -92v-75h144v-47h-144v-456h-52v456h-81v47h81v80zM596 696q-59 0 -84.5 -26t-25.5 -92v-75h144v-47h-144v-456h-52v456h-81v47h81v80q0 85 39 123t121 38q20 0 54 -2v-48q-16 2 -52 2z
" />
    <glyph glyph-name="f_f_i" horiz-adv-x="878" 
d="M117 583q0 85 39 123t121 38q20 0 54 -2v-48q-16 2 -52 2q-59 0 -84.5 -26t-25.5 -92v-75h144v-47h-144v-456h-52v456h-81v47h81v80zM434 583q0 85 39 123t121 38q20 0 54 -2v-48q-16 2 -52 2q-59 0 -84.5 -26t-25.5 -92v-75h144v-47h-144v-456h-52v456h-81v47h81v80z
M730 730h52v-92h-52v92zM730 0v503h52v-503h-52z" />
    <glyph glyph-name="f_f_l" horiz-adv-x="878" 
d="M117 583q0 85 39 123t121 38q20 0 54 -2v-48q-16 2 -52 2q-59 0 -84.5 -26t-25.5 -92v-75h144v-47h-144v-456h-52v456h-81v47h81v80zM434 583q0 85 39 123t121 38q20 0 54 -2v-48q-16 2 -52 2q-59 0 -84.5 -26t-25.5 -92v-75h144v-47h-144v-456h-52v456h-81v47h81v80z
M782 85q0 -46 17 -81v-4h-54q-15 28 -15 70v660h52v-645z" />
    <glyph glyph-name="fi.cap" horiz-adv-x="561" 
d="M117 583q0 85 39 123t121 38q20 0 54 -2v-48q-16 2 -52 2q-59 0 -84.5 -26t-25.5 -92v-75h144v-47h-144v-456h-52v456h-81v47h81v80zM413 730h52v-92h-52v92zM413 0v503h52v-503h-52z" />
    <glyph glyph-name="fl.cap" horiz-adv-x="561" 
d="M117 583q0 85 39 123t121 38q20 0 54 -2v-48q-16 2 -52 2q-59 0 -84.5 -26t-25.5 -92v-75h144v-47h-144v-456h-52v456h-81v47h81v80zM465 85q0 -46 17 -81v-4h-54q-15 28 -15 70v660h52v-645z" />
    <glyph glyph-name="periodcentered.cap" 
 />
    <glyph glyph-name="exclamdown.cap" 
 />
    <glyph glyph-name="questiondown.cap" 
 />
    <glyph glyph-name="parenleft.cap" 
 />
    <glyph glyph-name="parenright.cap" 
 />
    <glyph glyph-name="emdash.cap" 
 />
    <glyph glyph-name="endash.cap" 
 />
    <glyph glyph-name="hyphen.cap" 
 />
    <glyph glyph-name="guillemotleft.cap" 
 />
    <glyph glyph-name="guillemotright.cap" 
 />
    <glyph glyph-name="guilsinglleft.cap" 
 />
    <glyph glyph-name="guilsinglright.cap" 
 />
    <glyph glyph-name="acute.cap" 
 />
    <glyph glyph-name="circumflex.cap" 
 />
    <glyph glyph-name="dieresis.cap" 
 />
    <glyph glyph-name="grave.cap" 
 />
  </font>
</defs>
</svg>
