<?xml version="1.0" standalone="no"?>
<!DOCTYPE svg PUBLIC "-//W3C//DTD SVG 1.1//EN" "http://www.w3.org/Graphics/SVG/1.1/DTD/svg11.dtd" >
<svg xmlns="http://www.w3.org/2000/svg" xmlns:xlink="http://www.w3.org/1999/xlink" version="1.1">
<metadata>
Created by FontForge 20170731 at Fri Feb 23 16:37:38 2018
 By Aleksey,,,
copyright missing
</metadata>
<defs>
<font id="IndusHtest-ExtralightCondensed" horiz-adv-x="600" >
  <font-face 
    font-family="IndusHtest Extralight Condensed"
    font-weight="250"
    font-stretch="condensed"
    units-per-em="1000"
    panose-1="0 0 3 6 0 0 0 0 0 0"
    ascent="800"
    descent="-200"
    x-height="500"
    cap-height="700"
    bbox="-38 -204 566 804"
    underline-thickness="50"
    underline-position="-200"
    unicode-range="U+0020-FB02"
  />
<missing-glyph horiz-adv-x="460" 
d="M377 730v-920h-291v920h291zM306 668h-151v-30h59v-34h-60v-30h152v30h-60v34h60v30zM246 550h-92v-96h152v31h-60v65zM214 518v-33h-30v33h30zM306 429h-152v-30h60v-34h-60v-31h92v65h60v30zM306 374h-30v-61h-122v-31h152v92zM306 262h-92v-52h32v21h30v-43h-92v74
h-30v-104h152v104zM306 103h-152v-104h152v104zM276 72v-43h-92v43h92zM306 -23h-152v-30h64l-64 -43v-31h152v31h-93l64 43h29v30z" />
    <glyph glyph-name=".notdef" horiz-adv-x="460" 
d="M377 730v-920h-291v920h291zM306 668h-151v-30h59v-34h-60v-30h152v30h-60v34h60v30zM246 550h-92v-96h152v31h-60v65zM214 518v-33h-30v33h30zM306 429h-152v-30h60v-34h-60v-31h92v65h60v30zM306 374h-30v-61h-122v-31h152v92zM306 262h-92v-52h32v21h30v-43h-92v74
h-30v-104h152v104zM306 103h-152v-104h152v104zM276 72v-43h-92v43h92zM306 -23h-152v-30h64l-64 -43v-31h152v31h-93l64 43h29v30z" />
    <glyph glyph-name=".null" horiz-adv-x="0" 
 />
    <glyph glyph-name="nonmarkingreturn" horiz-adv-x="333" 
 />
    <glyph glyph-name="space" unicode=" " horiz-adv-x="144" 
 />
    <glyph glyph-name="exclam" unicode="!" horiz-adv-x="144" 
d="M82 161h-21l-5 354v185h31v-185zM49 61h46v-61h-46v61z" />
    <glyph glyph-name="quotedbl" unicode="&#x22;" horiz-adv-x="240" 
d="M78 515h-20l-7 185h34zM182 515h-20l-7 185h34z" />
    <glyph glyph-name="dollar" unicode="$" horiz-adv-x="383" 
d="M196 382q28 -26 42.5 -41.5t34.5 -44t29 -63.5t9 -79q0 -76 -30 -118.5t-85 -48.5v-91h-26v90q-55 3 -86 45t-41 130l29 3q8 -76 31.5 -111.5t66.5 -39.5v353q-33 30 -50.5 49.5t-34 58t-16.5 85.5q0 64 26.5 104.5t74.5 48.5v92h26v-90q103 -3 122 -165l-29 -3
q-9 72 -30.5 105.5t-62.5 35.5v-305zM97 559q0 -50 19 -85t54 -68v279q-73 -15 -73 -126zM196 14q86 13 86 140q0 65 -22.5 107t-63.5 81v-328z" />
    <glyph glyph-name="quotesingle" unicode="'" horiz-adv-x="144" 
d="M78 515h-20l-7 185h34z" />
    <glyph glyph-name="parenleft" unicode="(" horiz-adv-x="206" 
d="M185 -115h-28q-96 140 -96 390t96 390h28q-96 -140 -96 -390t96 -390z" />
    <glyph glyph-name="parenright" unicode=")" horiz-adv-x="206" 
d="M21 -115q96 140 96 390t-96 390h28q96 -140 96 -390t-96 -390h-28z" />
    <glyph glyph-name="comma" unicode="," horiz-adv-x="144" 
d="M55 -144h-20l31 144h-20v61h49v-54z" />
    <glyph glyph-name="hyphen" unicode="-" horiz-adv-x="144" 
d="M134 247h-124v26h124v-26z" />
    <glyph glyph-name="period" unicode="." horiz-adv-x="144" 
d="M49 61h46v-61h-46v61z" />
    <glyph glyph-name="slash" unicode="/" horiz-adv-x="288" 
d="M69 0h-29l179 700h29z" />
    <glyph glyph-name="zero" unicode="0" horiz-adv-x="383" 
d="M345 349q0 -181 -37 -272t-117 -91q-79 0 -116 91t-37 272q0 365 153 365q154 0 154 -365zM316 349q0 338 -125 338q-124 0 -124 -338q0 -336 124 -336q125 0 125 336z" />
    <glyph glyph-name="one" unicode="1" horiz-adv-x="246" 
d="M180 0h-29v652h-4q-50 -75 -123 -142l-19 20q91 82 139 170h36v-700z" />
    <glyph glyph-name="two" unicode="2" horiz-adv-x="312" 
d="M54 27h222v-27h-257v25q220 324 220 506q0 68 -23.5 112t-74.5 44q-86 0 -102 -156l-29 3q18 180 134 180q62 0 93 -48t31 -135q0 -181 -214 -504z" />
    <glyph glyph-name="three" unicode="3" horiz-adv-x="361" 
d="M313 179q0 -94 -40 -143.5t-99 -49.5q-122 0 -140 185l29 3q16 -161 112 -161q48 0 78.5 42t30.5 124q0 91 -36 130t-125 39h-5v27h5q143 0 143 163q0 74 -27 111.5t-69 37.5q-78 0 -95 -142l-29 4q10 82 42 123.5t83 41.5q53 0 87.5 -44.5t34.5 -131.5q0 -132 -91 -171
v-4q111 -24 111 -184z" />
    <glyph glyph-name="four" unicode="4" horiz-adv-x="360" 
d="M337 227v-27h-87v-200h-29v200h-208v25l201 475h36v-473h87zM45 227h176v405h-4z" />
    <glyph glyph-name="five" unicode="5" horiz-adv-x="367" 
d="M181 423q140 0 140 -220q0 -110 -39.5 -163.5t-99.5 -53.5q-122 0 -140 185l29 3q16 -161 112 -161q49 0 79 46t30 144t-25.5 145.5t-88.5 47.5q-26 0 -47.5 -11t-28.5 -30h-27l1 345h207v-27h-178v-275q30 25 76 25z" />
    <glyph glyph-name="six" unicode="6" horiz-adv-x="355" 
d="M186 435q66 0 101.5 -62.5t35.5 -164.5q0 -98 -37.5 -160t-102.5 -62q-72 0 -108.5 75.5t-36.5 244.5q0 408 150 408q103 0 122 -165l-29 -4q-9 74 -31.5 108t-62.5 34q-112 0 -119 -334h1q41 82 117 82zM183 13q55 0 83 57t28 138q0 85 -27 142.5t-81 57.5
q-38 0 -69 -31t-50 -89q3 -275 116 -275z" />
    <glyph glyph-name="seven" unicode="7" horiz-adv-x="303" 
d="M16 700h247v-25q-120 -365 -132 -675h-30q13 304 135 673h-220v27z" />
    <glyph glyph-name="eight" unicode="8" horiz-adv-x="368" 
d="M207 380q59 -49 91 -98t32 -124q0 -77 -40.5 -124.5t-107.5 -47.5q-65 0 -104.5 47t-39.5 123q0 131 121 227q-53 43 -80.5 83.5t-27.5 98.5q0 63 37 106t96 43q58 0 95 -42t37 -105q0 -101 -109 -187zM79 565q0 -36 17 -68.5t35.5 -51t54.5 -48.5q101 81 101 170
q0 53 -28 86.5t-77 33.5q-45 0 -74 -35t-29 -87zM184 13q53 0 85 41t32 104q0 48 -19.5 89t-41 63.5t-60.5 54.5q-113 -90 -113 -209q0 -63 31.5 -103t85.5 -40z" />
    <glyph glyph-name="nine" unicode="9" horiz-adv-x="355" 
d="M172 714q72 0 108.5 -75.5t36.5 -244.5q0 -408 -150 -408q-103 0 -122 165l29 4q9 -74 31.5 -108t62.5 -34q112 0 119 334h-1q-41 -82 -117 -82q-66 0 -101.5 62.5t-35.5 164.5q0 98 37.5 160t102.5 62zM169 292q38 0 69 31t50 89q-3 275 -116 275q-55 0 -83 -57
t-28 -138q0 -85 27 -142.5t81 -57.5z" />
    <glyph glyph-name="colon" unicode=":" horiz-adv-x="144" 
d="M49 500h46v-61h-46v61zM49 61h46v-61h-46v61z" />
    <glyph glyph-name="semicolon" unicode=";" horiz-adv-x="144" 
d="M49 500h46v-61h-46v61zM55 -144h-20l31 144h-20v61h49v-54z" />
    <glyph glyph-name="question" unicode="?" horiz-adv-x="234" 
d="M199 540q0 -149 -88 -379h-27q86 234 86 379q0 148 -64 148q-66 0 -69 -177l-29 3q4 200 98 200q49 0 71 -41.5t22 -132.5zM77 61h46v-61h-46v61z" />
    <glyph glyph-name="at" unicode="@" horiz-adv-x="524" 
d="M273 -38q96 0 137 72l24 -13q-48 -84 -161 -84q-114 0 -174.5 95t-60.5 270q0 176 57.5 269.5t170.5 93.5q108 0 164 -92.5t56 -231.5q0 -258 -103 -258q-43 0 -51 48h-2q-7 -22 -28.5 -36t-47.5 -14q-55 0 -85 57t-30 160t30 159.5t85 56.5q26 0 47.5 -14t28.5 -36h2v39
h27v-355q0 -39 26 -39q35 0 54.5 65t19.5 167q0 81 -19 146t-64.5 109t-112.5 44q-98 0 -148 -89t-50 -249q0 -158 54 -249t154 -91zM254 107q55 0 77 68v244q-21 69 -77 69q-43 0 -64.5 -51t-21.5 -139q0 -89 21.5 -140t64.5 -51z" />
    <glyph glyph-name="A" unicode="A" horiz-adv-x="348" 
d="M311 0l-53 259h-168l-53 -259h-29l148 700h36l148 -700h-29zM96 286h156l-76 369h-4z" />
    <glyph glyph-name="B" unicode="B" horiz-adv-x="390" 
d="M224 362q62 -15 96.5 -62t34.5 -114q0 -186 -219 -186h-70v700h63q98 0 152 -44.5t54 -130.5q0 -119 -111 -159v-4zM129 673h-34v-298h40q79 0 125 38t46 112q0 148 -177 148zM137 27q98 0 143.5 36.5t45.5 122.5q0 162 -184 162h-47v-321h42z" />
    <glyph glyph-name="C" unicode="C" horiz-adv-x="345" 
d="M67 350q0 -157 30.5 -247t95.5 -90q87 0 103 161l29 -3q-18 -185 -130 -185q-157 0 -157 364t157 364q112 0 130 -180l-29 -3q-8 78 -35.5 117t-67.5 39q-65 0 -95.5 -90t-30.5 -247z" />
    <glyph glyph-name="D" unicode="D" horiz-adv-x="406" 
d="M108 700q135 0 197.5 -85.5t62.5 -264.5t-62.5 -264.5t-197.5 -85.5h-42v700h42zM108 27q124 0 177.5 83t53.5 240t-53.5 240t-177.5 83h-13v-646h13z" />
    <glyph glyph-name="E" unicode="E" horiz-adv-x="321" 
d="M95 27h189v-27h-218v700h209v-27h-180v-305h129v-27h-129v-314z" />
    <glyph glyph-name="F" unicode="F" horiz-adv-x="290" 
d="M285 673h-190v-315h139v-27h-139v-331h-29v700h219v-27z" />
    <glyph glyph-name="G" unicode="G" horiz-adv-x="377" 
d="M350 348v-33q0 -160 -34.5 -244.5t-113.5 -84.5q-164 0 -164 364t163 364q49 0 81.5 -41.5t42.5 -123.5l-29 -4q-17 142 -97 142q-132 0 -132 -337t135 -337q35 0 59.5 23.5t37 67.5t17.5 94t5 117v6h-122v27h151z" />
    <glyph glyph-name="H" unicode="H" horiz-adv-x="410" 
d="M315 700h29v-700h-29v341h-220v-341h-29v700h29v-332h220v332z" />
    <glyph glyph-name="I" unicode="I" horiz-adv-x="161" 
d="M95 0h-29v700h29v-700z" />
    <glyph glyph-name="J" unicode="J" horiz-adv-x="206" 
d="M10 -10v27q20 -4 41 -4q41 0 53 20t12 77v590h29v-596q0 -66 -20.5 -92t-73.5 -26q-24 0 -41 4z" />
    <glyph glyph-name="K" unicode="K" horiz-adv-x="368" 
d="M317 0l-154 378l-68 -126v-252h-29v700h29v-393l211 393h32l-157 -290l167 -410h-31z" />
    <glyph glyph-name="L" unicode="L" horiz-adv-x="272" 
d="M95 27h172v-27h-201v700h29v-673z" />
    <glyph glyph-name="M" unicode="M" horiz-adv-x="546" 
d="M480 700v-700h-29v658h-4l-156 -658h-36l-156 658h-4v-658h-29v700h52l153 -651h4l153 651h52z" />
    <glyph glyph-name="N" unicode="N" horiz-adv-x="410" 
d="M315 700h29v-700h-49l-196 658h-4v-658h-29v700h49l196 -660h4v660z" />
    <glyph glyph-name="O" unicode="O" horiz-adv-x="405" 
d="M367 349q0 -363 -165 -363q-164 0 -164 363q0 365 164 365q165 0 165 -365zM338 349q0 157 -33 247.5t-103 90.5q-47 0 -78 -44.5t-44 -118t-13 -175.5q0 -336 135 -336q136 0 136 336z" />
    <glyph glyph-name="P" unicode="P" horiz-adv-x="371" 
d="M143 700q214 0 214 -206q0 -205 -214 -205h-48v-289h-29v700h77zM144 316q93 0 138.5 43t45.5 135q0 179 -185 179h-48v-357h49z" />
    <glyph glyph-name="Q" unicode="Q" horiz-adv-x="396" 
d="M367 350q0 -197 -49 -288l48 -58l-21 -18l-42 51q-39 -51 -101 -51q-164 0 -164 364t164 364q165 0 165 -364zM202 13q49 0 82 47l-84 102l21 18l77 -94q40 86 40 264q0 337 -136 337q-135 0 -135 -337t135 -337z" />
    <glyph glyph-name="R" unicode="R" horiz-adv-x="391" 
d="M367 0h-31l-131 315q-32 -6 -67 -6h-43v-309h-29v700h72q214 0 214 -196q0 -145 -118 -182zM95 336h44q184 0 184 168q0 169 -185 169h-43v-337z" />
    <glyph glyph-name="S" unicode="S" horiz-adv-x="343" 
d="M290 154q0 -82 -34.5 -125t-93.5 -43q-111 0 -130 175l29 3q9 -80 33.5 -115.5t69.5 -35.5t71 36.5t26 104.5q0 51 -15 91.5t-37.5 64.5t-49 50.5t-49 50t-37.5 62t-15 86.5q0 71 31.5 113t87.5 42q101 0 120 -165l-29 -3q-9 73 -31 107t-62 34q-42 0 -65.5 -34
t-23.5 -94q0 -51 21 -90t51 -66.5t60 -57t51 -78t21 -113.5z" />
    <glyph glyph-name="T" unicode="T" horiz-adv-x="300" 
d="M294 700v-27h-130v-673h-29v673h-130v27h289z" />
    <glyph glyph-name="U" unicode="U" horiz-adv-x="398" 
d="M337 164q0 -85 -36.5 -131.5t-101.5 -46.5q-64 0 -101 46.5t-37 131.5v536h29v-531q0 -76 28.5 -116t80.5 -40q109 0 109 156v531h29v-536z" />
    <glyph glyph-name="V" unicode="V" horiz-adv-x="328" 
d="M182 0h-36l-138 700h29l125 -652h4l125 652h29z" />
    <glyph glyph-name="W" unicode="W" horiz-adv-x="583" 
d="M533 700h29l-111 -700h-36l-121 646h-4l-122 -646h-36l-111 700h29l99 -646h4l121 646h36l120 -646h4z" />
    <glyph glyph-name="X" unicode="X" horiz-adv-x="351" 
d="M326 0h-30l-127 332l-115 -332h-29l128 363l-128 337h30l121 -319l117 319h28l-129 -350z" />
    <glyph glyph-name="Y" unicode="Y" horiz-adv-x="311" 
d="M306 700l-136 -403v-297h-29v297l-136 403h30l119 -362h4l118 362h30z" />
    <glyph glyph-name="Z" unicode="Z" horiz-adv-x="294" 
d="M264 0h-234v25l196 648h-189v27h220v-25l-196 -648h203v-27z" />
    <glyph glyph-name="bracketleft" unicode="[" horiz-adv-x="210" 
d="M189 639h-95v-728h95v-26h-123v780h123v-26z" />
    <glyph glyph-name="bracketright" unicode="]" horiz-adv-x="210" 
d="M144 665v-780h-123v26h95v728h-95v26h123z" />
    <glyph glyph-name="underscore" unicode="_" horiz-adv-x="288" 
d="M278 -190h-268v26h268v-26z" />
    <glyph glyph-name="grave" unicode="`" 
 />
    <glyph glyph-name="a" unicode="a" horiz-adv-x="316" 
d="M263 75q0 -38 15 -72v-3h-27q-9 19 -14 47h-4q-20 -61 -90 -61q-49 0 -82.5 37t-33.5 104q0 119 123 152q33 9 85 15v89q0 57 -18.5 81t-57.5 24q-69 0 -82 -70l-28 5q8 42 37 66.5t73 24.5q104 0 104 -121v-318zM143 12q37 0 58 21t34 64v171q-50 -6 -81 -15
q-99 -26 -99 -126q0 -54 26.5 -84.5t61.5 -30.5z" />
    <glyph glyph-name="b" unicode="b" horiz-adv-x="350" 
d="M179 514q66 0 101 -69t35 -195t-35 -195t-101 -69q-31 0 -56.5 17t-34.5 44h-4v-47h-26v730h28v-277h2q9 27 34.5 44t56.5 17zM179 12q107 0 107 238t-107 238q-67 0 -93 -82v-312q26 -82 93 -82z" />
    <glyph glyph-name="c" unicode="c" horiz-adv-x="285" 
d="M63 250q0 -109 24.5 -173.5t71.5 -64.5q71 0 79 120l28 -3q-12 -143 -107 -143q-57 0 -90.5 69.5t-33.5 194.5t33.5 194.5t90.5 69.5q95 0 107 -138l-28 -3q-8 115 -79 115q-47 0 -71.5 -64.5t-24.5 -173.5z" />
    <glyph glyph-name="d" unicode="d" horiz-adv-x="350" 
d="M264 730h28v-730h-26v47h-4q-9 -27 -34.5 -44t-56.5 -17q-66 0 -101 69t-35 195t35 195t101 69q31 0 56.5 -17t34.5 -44h2v277zM171 12q67 0 93 82v312q-26 82 -93 82q-107 0 -107 -238t107 -238z" />
    <glyph glyph-name="e" unicode="e" horiz-adv-x="304" 
d="M167 12q73 0 84 110l28 -3q-14 -133 -112 -133q-63 0 -97.5 69t-34.5 195q0 125 34 194.5t92 69.5q62 0 90 -65t28 -201h-216q0 -109 25.5 -172.5t78.5 -63.5zM161 488q-46 0 -70.5 -57.5t-27.5 -156.5h188q-3 214 -90 214z" />
    <glyph glyph-name="f" unicode="f" horiz-adv-x="185" 
d="M173 718q-39 0 -54.5 -21t-15.5 -76v-121h88v-26h-88v-474h-28v474h-54v26h54v124q0 66 24 93t74 27q16 0 36 -2v-26q-18 2 -36 2z" />
    <glyph glyph-name="g" unicode="g" horiz-adv-x="350" 
d="M266 500h26v-583q0 -121 -109 -121q-84 0 -105 78l27 8q17 -60 78 -60q41 0 61 24.5t20 80.5v140h-2q-9 -27 -35 -44t-59 -17q-64 0 -98.5 65t-34.5 189t34.5 189t98.5 65q33 0 59 -17t35 -44h4v47zM168 32q70 0 96 82v292q-26 82 -96 82q-104 0 -104 -228t104 -228z" />
    <glyph glyph-name="h" unicode="h" horiz-adv-x="332" 
d="M176 514q48 0 75.5 -30t27.5 -83v-401h-28v392q0 48 -20.5 72t-54.5 24q-64 0 -90 -82v-406h-28v730h28v-277h2q9 27 34 44t54 17z" />
    <glyph glyph-name="i" unicode="i" horiz-adv-x="144" 
d="M58 730h28v-81h-28v81zM58 500h28v-500h-28v500z" />
    <glyph glyph-name="j" unicode="j" horiz-adv-x="144" 
d="M58 730h28v-81h-28v81zM73 -190h-30v3q15 34 15 72v615h28v-627q0 -36 -13 -63z" />
    <glyph glyph-name="k" unicode="k" horiz-adv-x="286" 
d="M250 0l-105 263l-59 -110v-153h-28v730h28v-527l154 297h31l-110 -205l120 -295h-31z" />
    <glyph glyph-name="l" unicode="l" horiz-adv-x="144" 
d="M86 75q0 -38 15 -72v-3h-30q-13 27 -13 63v667h28v-655z" />
    <glyph glyph-name="m" unicode="m" horiz-adv-x="517" 
d="M363 514q47 0 74 -30.5t27 -82.5v-401h-28v392q0 48 -20 72t-53 24q-62 0 -88 -82v-5v-401h-28v392q0 48 -20 72t-53 24q-62 0 -88 -82v-406h-28v500h26v-47h4q9 27 34 44t52 17q73 0 95 -68h2q9 27 34.5 47.5t57.5 20.5z" />
    <glyph glyph-name="n" unicode="n" horiz-adv-x="337" 
d="M179 514q49 0 77 -30t28 -83v-401h-28v392q0 48 -20.5 72t-56.5 24q-67 0 -93 -82v-406h-28v500h26v-47h4q9 27 34.5 44t56.5 17z" />
    <glyph glyph-name="o" unicode="o" horiz-adv-x="338" 
d="M303 249q0 -126 -35 -194.5t-99 -68.5t-99 68.5t-35 194.5t35 195.5t99 69.5t99 -69.5t35 -195.5zM274 249q0 110 -25.5 174.5t-79.5 64.5t-80 -64.5t-26 -174.5t26 -173.5t80 -63.5q105 0 105 237z" />
    <glyph glyph-name="p" unicode="p" horiz-adv-x="350" 
d="M179 514q66 0 101 -69t35 -195t-35 -195t-101 -69q-31 0 -56.5 17t-34.5 44h-2v-237h-28v690h26v-47h4q9 27 34.5 44t56.5 17zM179 12q107 0 107 238t-107 238q-67 0 -93 -82v-312q26 -82 93 -82z" />
    <glyph glyph-name="q" unicode="q" horiz-adv-x="350" 
d="M266 500h26v-690h-28v237h-2q-9 -27 -34.5 -44t-56.5 -17q-66 0 -101 69t-35 195t35 195t101 69q31 0 56.5 -17t34.5 -44h4v47zM171 12q67 0 93 82v312q-26 82 -93 82q-107 0 -107 -238t107 -238z" />
    <glyph glyph-name="r" unicode="r" horiz-adv-x="221" 
d="M190 514q18 0 31 -3v-26q-13 4 -31 4q-37 0 -64.5 -27t-39.5 -71v-391h-28v500h26v-57h4q13 33 39.5 52t62.5 19z" />
    <glyph glyph-name="s" unicode="s" horiz-adv-x="269" 
d="M234 106q0 -61 -28.5 -90.5t-74.5 -29.5q-91 0 -105 121l28 5q11 -100 77 -100q34 0 54.5 23t20.5 71q0 45 -17 76t-41.5 48.5t-49 36t-41.5 51t-17 79.5q0 51 25.5 84t70.5 33q86 0 100 -121l-28 -5q-11 100 -72 100q-33 0 -50.5 -24.5t-17.5 -66.5q0 -36 12.5 -62
t30.5 -40t40 -31t40 -33.5t30.5 -48.5t12.5 -76z" />
    <glyph glyph-name="t" unicode="t" horiz-adv-x="185" 
d="M181 474h-78v-399q0 -38 15 -72v-3h-30q-13 27 -13 63v411h-54v26h54v150h28v-150h78v-26z" />
    <glyph glyph-name="u" unicode="u" horiz-adv-x="332" 
d="M246 500h28v-500h-26v47h-4q-9 -27 -34 -44t-54 -17q-48 0 -75.5 30t-27.5 83v401h28v-392q0 -48 20.5 -72t54.5 -24q64 0 90 82v406z" />
    <glyph glyph-name="v" unicode="v" horiz-adv-x="294" 
d="M164 0h-34l-120 500h28l107 -455h4l107 455h28z" />
    <glyph glyph-name="w" unicode="w" horiz-adv-x="512" 
d="M468 500h28l-108 -500h-34l-95 455h-4l-98 -455h-34l-107 500h28l94 -455h4l98 455h34l95 -455h4z" />
    <glyph glyph-name="x" unicode="x" horiz-adv-x="281" 
d="M256 0h-30l-90 226l-82 -226h-29l95 259l-95 241h30l86 -216l81 216h29l-95 -249z" />
    <glyph glyph-name="y" unicode="y" horiz-adv-x="291" 
d="M106 -190h-30v3q23 27 33 72l26 115l-130 500h28l114 -446h4l100 446h28l-145 -626q-10 -42 -28 -64z" />
    <glyph glyph-name="z" unicode="z" horiz-adv-x="227" 
d="M197 0h-167v24l132 450h-127v26h157v-24l-131 -450h136v-26z" />
    <glyph glyph-name="braceleft" unicode="{" horiz-adv-x="210" 
d="M114 510v-162q0 -46 -9 -59q-6 -9 -16 -14v-2q17 -9 21 -23.5t4 -42.5v-7v-162q0 -39 2 -62.5t13 -51t33 -38.5v-3h-36q-40 20 -40 143v174q0 45 -7.5 53t-52.5 8v26q45 0 52.5 8t7.5 53v174q0 123 40 143h36v-3q-22 -11 -33 -38.5t-13 -51t-2 -62.5z" />
    <glyph glyph-name="braceright" unicode="}" horiz-adv-x="210" 
d="M96 510q0 39 -2 62.5t-13 51t-33 38.5v3h36q40 -20 40 -143v-174q0 -45 7.5 -53t52.5 -8v-26q-45 0 -52.5 -8t-7.5 -53v-174q0 -123 -40 -143h-36v3q22 11 33 38.5t13 51t2 62.5v162q0 46 9 59q6 9 16 14v2q-17 9 -21 23.5t-4 42.5v7v162z" />
    <glyph glyph-name="dieresis" unicode="&#xa8;" 
 />
    <glyph glyph-name="guillemotleft" unicode="&#xab;" 
 />
    <glyph glyph-name="acute" unicode="&#xb4;" 
 />
    <glyph glyph-name="periodcentered" unicode="&#xb7;" 
 />
    <glyph glyph-name="cedilla" unicode="&#xb8;" 
 />
    <glyph glyph-name="guillemotright" unicode="&#xbb;" 
 />
    <glyph glyph-name="Agrave" unicode="&#xc0;" 
 />
    <glyph glyph-name="Aacute" unicode="&#xc1;" 
 />
    <glyph glyph-name="Acircumflex" unicode="&#xc2;" 
 />
    <glyph glyph-name="Adieresis" unicode="&#xc4;" 
 />
    <glyph glyph-name="AE" unicode="&#xc6;" 
 />
    <glyph glyph-name="Ccedilla" unicode="&#xc7;" 
 />
    <glyph glyph-name="Egrave" unicode="&#xc8;" 
 />
    <glyph glyph-name="Eacute" unicode="&#xc9;" 
 />
    <glyph glyph-name="Ecircumflex" unicode="&#xca;" 
 />
    <glyph glyph-name="Edieresis" unicode="&#xcb;" 
 />
    <glyph glyph-name="Igrave" unicode="&#xcc;" 
 />
    <glyph glyph-name="Iacute" unicode="&#xcd;" 
 />
    <glyph glyph-name="Icircumflex" unicode="&#xce;" 
 />
    <glyph glyph-name="Idieresis" unicode="&#xcf;" 
 />
    <glyph glyph-name="Ograve" unicode="&#xd2;" 
 />
    <glyph glyph-name="Oacute" unicode="&#xd3;" 
 />
    <glyph glyph-name="Ocircumflex" unicode="&#xd4;" 
 />
    <glyph glyph-name="Odieresis" unicode="&#xd6;" 
 />
    <glyph glyph-name="Ugrave" unicode="&#xd9;" 
 />
    <glyph glyph-name="Uacute" unicode="&#xda;" 
 />
    <glyph glyph-name="Ucircumflex" unicode="&#xdb;" 
 />
    <glyph glyph-name="Udieresis" unicode="&#xdc;" 
 />
    <glyph glyph-name="germandbls" unicode="&#xdf;" 
 />
    <glyph glyph-name="agrave" unicode="&#xe0;" 
 />
    <glyph glyph-name="aacute" unicode="&#xe1;" 
 />
    <glyph glyph-name="acircumflex" unicode="&#xe2;" 
 />
    <glyph glyph-name="adieresis" unicode="&#xe4;" 
 />
    <glyph glyph-name="ae" unicode="&#xe6;" 
 />
    <glyph glyph-name="ccedilla" unicode="&#xe7;" 
 />
    <glyph glyph-name="egrave" unicode="&#xe8;" 
 />
    <glyph glyph-name="eacute" unicode="&#xe9;" 
 />
    <glyph glyph-name="ecircumflex" unicode="&#xea;" 
 />
    <glyph glyph-name="edieresis" unicode="&#xeb;" 
 />
    <glyph glyph-name="igrave" unicode="&#xec;" 
 />
    <glyph glyph-name="iacute" unicode="&#xed;" 
 />
    <glyph glyph-name="icircumflex" unicode="&#xee;" 
 />
    <glyph glyph-name="idieresis" unicode="&#xef;" 
 />
    <glyph glyph-name="ograve" unicode="&#xf2;" 
 />
    <glyph glyph-name="oacute" unicode="&#xf3;" 
 />
    <glyph glyph-name="ocircumflex" unicode="&#xf4;" 
 />
    <glyph glyph-name="odieresis" unicode="&#xf6;" 
 />
    <glyph glyph-name="ugrave" unicode="&#xf9;" 
 />
    <glyph glyph-name="uacute" unicode="&#xfa;" 
 />
    <glyph glyph-name="ucircumflex" unicode="&#xfb;" 
 />
    <glyph glyph-name="udieresis" unicode="&#xfc;" 
 />
    <glyph glyph-name="Cacute" unicode="&#x106;" 
 />
    <glyph glyph-name="cacute" unicode="&#x107;" 
 />
    <glyph glyph-name="Ccircumflex" unicode="&#x108;" 
 />
    <glyph glyph-name="ccircumflex" unicode="&#x109;" 
 />
    <glyph glyph-name="Gcircumflex" unicode="&#x11c;" 
 />
    <glyph glyph-name="gcircumflex" unicode="&#x11d;" 
 />
    <glyph glyph-name="Hcircumflex" unicode="&#x124;" 
 />
    <glyph glyph-name="hcircumflex" unicode="&#x125;" 
 />
    <glyph glyph-name="IJ" unicode="&#x132;" horiz-adv-x="367" 
d="M95 0h-29v700h29v-700zM171 -10v27q20 -4 41 -4q41 0 53 20t12 77v590h29v-596q0 -66 -20.5 -92t-73.5 -26q-24 0 -41 4z" />
    <glyph glyph-name="ij" unicode="&#x133;" horiz-adv-x="288" 
d="M58 730h28v-81h-28v81zM202 730h28v-81h-28v81zM58 500h28v-500h-28v500zM217 -190h-30v3q15 34 15 72v615h28v-627q0 -36 -13 -63z" />
    <glyph glyph-name="Jcircumflex" unicode="&#x134;" 
 />
    <glyph glyph-name="jcircumflex" unicode="&#x135;" 
 />
    <glyph glyph-name="Lacute" unicode="&#x139;" 
 />
    <glyph glyph-name="lacute" unicode="&#x13a;" 
 />
    <glyph glyph-name="Nacute" unicode="&#x143;" 
 />
    <glyph glyph-name="nacute" unicode="&#x144;" 
 />
    <glyph glyph-name="OE" unicode="&#x152;" 
 />
    <glyph glyph-name="oe" unicode="&#x153;" 
 />
    <glyph glyph-name="Racute" unicode="&#x154;" 
 />
    <glyph glyph-name="racute" unicode="&#x155;" 
 />
    <glyph glyph-name="AEacute" unicode="&#x1fc;" 
 />
    <glyph glyph-name="aeacute" unicode="&#x1fd;" 
 />
    <glyph glyph-name="circumflex" unicode="&#x2c6;" 
 />
    <glyph glyph-name="endash" unicode="&#x2013;" horiz-adv-x="288" 
d="M278 247h-268v26h268v-26z" />
    <glyph glyph-name="emdash" unicode="&#x2014;" horiz-adv-x="576" 
d="M566 247h-556v26h556v-26z" />
    <glyph glyph-name="quoteleft" unicode="&#x2018;" horiz-adv-x="144" 
d="M76 700h20l-20 -124h19v-61h-46v56z" />
    <glyph glyph-name="quoteright" unicode="&#x2019;" horiz-adv-x="144" 
d="M68 515h-20l20 124h-19v61h46v-56z" />
    <glyph glyph-name="quotesinglbase" unicode="&#x201a;" 
d="M55 -144h-20l31 144h-20v61h49v-54z" />
    <glyph glyph-name="quotedblleft" unicode="&#x201c;" horiz-adv-x="240" 
d="M76 700h20l-20 -124h19v-61h-46v56zM172 700h20l-20 -124h19v-61h-46v56z" />
    <glyph glyph-name="quotedblright" unicode="&#x201d;" horiz-adv-x="240" 
d="M68 515h-20l20 124h-19v61h46v-56zM164 515h-20l20 124h-19v61h46v-56z" />
    <glyph glyph-name="quotedblbase" unicode="&#x201e;" 
d="M46 61h49v-54l-40 -151h-20l31 144h-20v61z" />
    <glyph glyph-name="ellipsis" unicode="&#x2026;" 
d="M49 61h46v-61h-46v61z" />
    <glyph glyph-name="guilsinglleft" unicode="&#x2039;" 
 />
    <glyph glyph-name="guilsinglright" unicode="&#x203a;" 
 />
    <glyph glyph-name="Euro" unicode="&#x20ac;" horiz-adv-x="383" 
d="M207 13q38 0 64.5 40t34.5 121l29 -3q-18 -185 -126 -185q-137 0 -151 293h-62v26h61q-1 15 -1 45t1 45h-61v26h62q14 293 151 293q108 0 126 -180l-29 -3q-8 77 -34.5 116.5t-64.5 39.5q-54 0 -84 -70.5t-36 -195.5h169v-26h-170q-1 -15 -1 -45t1 -45h170v-26h-169
q6 -125 36 -195.5t84 -70.5z" />
    <glyph glyph-name="fi" unicode="&#xfb01;" horiz-adv-x="329" 
d="M75 624q0 66 24 93t74 27q16 0 36 -2v-26q-18 2 -36 2q-39 0 -54.5 -21t-15.5 -76v-121h88v-26h-88v-474h-28v474h-54v26h54v124zM243 730h28v-81h-28v81zM243 0v500h28v-500h-28z" />
    <glyph glyph-name="fl" unicode="&#xfb02;" horiz-adv-x="329" 
d="M75 624q0 66 24 93t74 27q16 0 36 -2v-26q-18 2 -36 2q-39 0 -54.5 -21t-15.5 -76v-121h88v-26h-88v-474h-28v474h-54v26h54v124zM271 75q0 -38 15 -72v-3h-30q-13 27 -13 63v667h28v-655z" />
    <glyph glyph-name="G.ss02" horiz-adv-x="377" 
d="M330 348v-348h-27v47h-4q-9 -27 -36.5 -44t-62.5 -17q-162 0 -162 364t163 364q49 0 81.5 -41.5t42.5 -123.5l-29 -4q-17 142 -97 142q-132 0 -132 -337t133 -337q37 0 63 23t38 63v222h-102v27h131z" />
    <glyph glyph-name="germandbls.cap" 
 />
    <glyph glyph-name="a.ss01" horiz-adv-x="345" 
d="M287 75q0 -38 15 -72v-3h-28q-10 21 -13 47h-4q-9 -27 -33 -44t-53 -17q-65 0 -100.5 69.5t-35.5 194.5t35.5 194.5t100.5 69.5q29 0 53 -17t33 -44h4v47h26v-425zM171 12q62 0 88 82v312q-26 82 -88 82q-54 0 -80.5 -64.5t-26.5 -173.5t26.5 -173.5t80.5 -64.5z" />
    <glyph glyph-name="y.ss01" horiz-adv-x="294" 
d="M256 500h28l-123 -500v-190h-28v190l-123 500h28l107 -444h4z" />
    <glyph glyph-name="j.ss02" horiz-adv-x="144" 
d="M58 730h28v-81h-28v81zM-38 -201v26q16 -3 33 -3q39 0 51 20t12 77v581h28v-584q0 -67 -20 -93.5t-71 -26.5q-19 0 -33 3z" />
    <glyph glyph-name="t.ss02" horiz-adv-x="209" 
d="M168 12q18 0 41 3v-26q-19 -3 -41 -3q-52 0 -72.5 26t-20.5 92v370h-54v26h54v150h28v-150h88v-26h-88v-365q0 -57 12 -77t53 -20z" />
    <glyph glyph-name="y.ss03" horiz-adv-x="332" 
d="M246 500h28v-584q0 -120 -105 -120q-78 0 -99 78l27 8q17 -60 72 -60q38 0 57.5 24.5t19.5 80.5v120h-2q-9 -27 -34 -44t-54 -17q-48 0 -75.5 30t-27.5 83v401h28v-392q0 -48 20.5 -72t54.5 -24q64 0 90 82v406z" />
    <glyph glyph-name="f_f" horiz-adv-x="370" 
d="M103 621v-121h88v-26h-88v-474h-28v474h-54v26h54v124q0 66 24 93t74 27q16 0 36 -2v-26q-18 2 -36 2q-39 0 -54.5 -21t-15.5 -76zM358 718q-39 0 -54.5 -21t-15.5 -76v-121h88v-26h-88v-474h-28v474h-54v26h54v124q0 66 24 93t74 27q16 0 36 -2v-26q-18 2 -36 2z" />
    <glyph glyph-name="f_f_i" horiz-adv-x="514" 
d="M103 621v-121h88v-26h-88v-474h-28v474h-54v26h54v124q0 66 24 93t74 27q16 0 36 -2v-26q-18 2 -36 2q-39 0 -54.5 -21t-15.5 -76zM260 624q0 66 24 93t74 27q16 0 36 -2v-26q-18 2 -36 2q-39 0 -54.5 -21t-15.5 -76v-121h88v-26h-88v-474h-28v474h-54v26h54v124z
M428 730h28v-81h-28v81zM428 0v500h28v-500h-28z" />
    <glyph glyph-name="f_f_l" horiz-adv-x="514" 
d="M103 621v-121h88v-26h-88v-474h-28v474h-54v26h54v124q0 66 24 93t74 27q16 0 36 -2v-26q-18 2 -36 2q-39 0 -54.5 -21t-15.5 -76zM260 624q0 66 24 93t74 27q16 0 36 -2v-26q-18 2 -36 2q-39 0 -54.5 -21t-15.5 -76v-121h88v-26h-88v-474h-28v474h-54v26h54v124zM456 75
q0 -38 15 -72v-3h-30q-13 27 -13 63v667h28v-655z" />
    <glyph glyph-name="fi.cap" horiz-adv-x="329" 
d="M75 624q0 66 24 93t74 27q16 0 36 -2v-26q-18 2 -36 2q-39 0 -54.5 -21t-15.5 -76v-121h88v-26h-88v-474h-28v474h-54v26h54v124zM243 730h28v-81h-28v81zM243 0v500h28v-500h-28z" />
    <glyph glyph-name="fl.cap" horiz-adv-x="329" 
d="M75 624q0 66 24 93t74 27q16 0 36 -2v-26q-18 2 -36 2q-39 0 -54.5 -21t-15.5 -76v-121h88v-26h-88v-474h-28v474h-54v26h54v124zM271 75q0 -38 15 -72v-3h-30q-13 27 -13 63v667h28v-655z" />
    <glyph glyph-name="periodcentered.cap" 
 />
    <glyph glyph-name="exclamdown.cap" 
 />
    <glyph glyph-name="questiondown.cap" 
 />
    <glyph glyph-name="parenleft.cap" 
 />
    <glyph glyph-name="parenright.cap" 
 />
    <glyph glyph-name="emdash.cap" 
 />
    <glyph glyph-name="endash.cap" 
 />
    <glyph glyph-name="hyphen.cap" 
 />
    <glyph glyph-name="guillemotleft.cap" 
 />
    <glyph glyph-name="guillemotright.cap" 
 />
    <glyph glyph-name="guilsinglleft.cap" 
 />
    <glyph glyph-name="guilsinglright.cap" 
 />
    <glyph glyph-name="acute.cap" 
 />
    <glyph glyph-name="circumflex.cap" 
 />
    <glyph glyph-name="dieresis.cap" 
 />
    <glyph glyph-name="grave.cap" 
 />
  </font>
</defs>
</svg>
