<?xml version="1.0" encoding="utf-8"?>
<!-- Generator: Adobe Illustrator 16.0.0, SVG Export Plug-In . SVG Version: 6.00 Build 0)  -->
<!DOCTYPE svg PUBLIC "-//W3C//DTD SVG 1.1//EN" "http://www.w3.org/Graphics/SVG/1.1/DTD/svg11.dtd">
<svg version="1.1" id="Layer_1" xmlns="http://www.w3.org/2000/svg" xmlns:xlink="http://www.w3.org/1999/xlink" x="0px" y="0px"
	 width="1118.492px" height="100.246px" viewBox="0 0 1118.492 100.246" enable-background="new 0 0 1118.492 100.246"
	 xml:space="preserve">
<g>
	<path d="M51.621,100.246C21.389,100.246,0,78.143,0,50.194C0,22.245,21.96,0,50.479,0c11.408,0,23.243,2.139,32.94,7.558v16.541
		c-11.55-6.987-22.531-9.839-32.94-9.839c-20.249,0-35.221,15.543-35.221,35.935s14.687,35.792,35.649,35.792
		c6.417,0,13.833-0.855,19.821-2.995V51.192h14.688v42.922C75.292,98.535,62.315,100.246,51.621,100.246z"/>
	<path d="M164.412,77.573h-45.346l-10.124,20.962H92.543L141.026,0h1.425l48.484,98.535h-16.399L164.412,77.573z M157.567,63.599
		l-15.543-32.227h-0.57L125.91,63.599H157.567z"/>
	<path d="M324.259,98.535h-15.258l-11.693-58.608h-0.57l-34.794,58.608h-1.426l-34.936-58.608h-0.571l-11.693,58.608H198.06
		L218.024,0h1.426l41.496,71.583h0.57L302.869,0h1.426L324.259,98.535z"/>
	<path d="M403.111,84.56v13.975h-57.324V1.711h55.185v13.974h-40.498v26.666h36.22v13.975h-36.22V84.56H403.111z"/>
	<path d="M425.067,48.483c0-22.958,18.11-41.21,41.639-41.21c23.386,0,41.496,18.252,41.496,41.21
		c0,22.815-18.11,40.925-41.496,40.925C443.178,89.408,425.067,71.298,425.067,48.483z M493.514,48.483
		c0-15.543-11.55-27.236-26.95-27.236c-15.258,0-26.809,11.693-26.809,27.236c0,15.401,11.55,26.951,26.809,26.951
		C481.964,75.434,493.514,63.884,493.514,48.483z"/>
	<path d="M539.285,22.102v22.959h31.228v13.118h-31.228v28.805h-13.975v-78h48.768v13.118H539.285z"/>
	<path d="M671.755,72.725c0,12.691-10.839,25.81-31.942,25.81h-34.937V1.711h32.084c21.105,0,31.941,12.406,31.941,25.097
		c0,10.267-4.848,17.967-13.974,21.959C665.907,52.476,671.755,60.746,671.755,72.725z M619.563,15.686v26.666h16.256
		c11.407,0,17.683-5.418,17.683-13.261c0-7.701-5.848-13.404-17.683-13.404H619.563z M656.354,70.443
		c0-8.699-6.274-14.117-17.683-14.117h-19.107V84.56h19.107C650.507,84.56,656.354,78.143,656.354,70.443z"/>
	<path d="M743.477,84.56v13.975h-51.621V1.711h14.688V84.56H743.477z"/>
	<path d="M850.565,50.194c0,27.949-22.104,50.052-50.623,50.052c-28.662,0-50.764-22.103-50.764-50.052
		C749.179,22.245,771.28,0,799.942,0C828.462,0,850.565,22.245,850.565,50.194z M786.254,83.419V16.826
		c-13.12,5.133-21.818,17.825-21.818,33.368C764.436,65.737,773.134,78.286,786.254,83.419z M807.643,85.13V15.116
		c-2.565-0.571-5.134-0.856-7.843-0.856s-5.277,0.285-7.844,0.855V85.13c2.569,0.57,5.135,0.855,7.844,0.855
		S805.077,85.701,807.643,85.13z M835.307,50.194c0-15.543-8.698-28.235-21.959-33.368v66.735
		C826.608,78.428,835.307,65.737,835.307,50.194z"/>
	<path d="M880.077,50.194c0,20.249,14.261,35.792,35.222,35.792c9.697,0,18.966-2.852,29.375-9.839v16.541
		c-8.556,5.419-18.681,7.558-29.375,7.558c-29.231,0-50.478-22.246-50.478-50.052C864.821,22.245,886.067,0,915.299,0
		c10.694,0,19.394,2.139,27.949,7.558v16.541c-10.409-6.987-18.252-9.839-27.949-9.839C894.338,14.26,880.077,29.803,880.077,50.194
		z"/>
	<path d="M963.352,98.535V1.711h14.688v96.823H963.352z M1051.763,1.711l-50.338,46.344l48.912,50.479h-21.106l-47.627-49.624
		v-1.426l49.195-45.773H1051.763z"/>
	<path d="M1103.806,73.865c0-20.392-43.35-18.965-43.35-48.34c0-16.114,12.975-25.525,27.949-25.525
		c9.839,0,17.824,2.139,26.38,7.558v16.541c-10.409-6.987-16.826-9.839-27.093-9.839c-7.416,0-12.548,3.279-12.548,9.696
		c0,18.11,43.348,17.397,43.348,48.34c0,16.542-12.263,27.95-32.368,27.95c-10.552,0-19.107-2.139-27.664-7.558V76.147
		c10.409,6.987,18.822,9.839,28.377,9.839C1096.105,85.986,1103.806,82.279,1103.806,73.865z"/>
</g>
<g>
</g>
<g>
</g>
<g>
</g>
<g>
</g>
<g>
</g>
<g>
</g>
<g>
</g>
<g>
</g>
<g>
</g>
<g>
</g>
<g>
</g>
<g>
</g>
<g>
</g>
<g>
</g>
<g>
</g>
</svg>
