<?xml version="1.0" encoding="utf-8"?>
<!-- Generator: Adobe Illustrator 16.0.0, SVG Export Plug-In . SVG Version: 6.00 Build 0)  -->
<!DOCTYPE svg PUBLIC "-//W3C//DTD SVG 1.1//EN" "http://www.w3.org/Graphics/SVG/1.1/DTD/svg11.dtd">
<svg version="1.1" id="icon" xmlns="http://www.w3.org/2000/svg" xmlns:xlink="http://www.w3.org/1999/xlink" x="0px" y="0px"
   width="93.436px" height="100.634px" viewBox="0 0 93.436 100.634" enable-background="new 0 0 93.436 100.634"
   xml:space="preserve">
<g>
  <path d="M54.276,2.374l30.808,16.271c6.477,3.452,8.352,6.477,8.352,14.108v35.128c0,7.631-1.875,10.656-8.352,14.108L54.276,98.26
    c-6.049,3.166-9.073,3.166-15.116,0L8.347,81.989C1.869,78.537,0,75.512,0,67.881V32.753c0-7.631,1.869-10.656,8.347-14.108
    L39.16,2.374C45.203-0.791,48.227-0.791,54.276,2.374z M22.167,28c-4.46,2.303-5.902,4.753-5.902,10.222v25.051
    c0,4.173,2.304,6.19,6.189,8.206l20.444,10.656c4.18,2.156,7.057,1.295,11.09-0.868l19.002-10.222
    c3.746-2.017,4.173-3.599,4.173-7.772V41.534c0-4.461-2.303-5.616-5.902-3.746l-9.214,4.9c-3.312,1.723-4.174,3.019-4.174,6.764
    v6.477c0,2.737-0.574,3.599-3.171,4.894l-4.894,2.591c-2.304,1.155-3.453,1.301-5.615,0.146l-5.469-2.877
    c-2.157-1.155-3.312-2.163-3.312-4.607v-11.23c0-2.157,0.721-3.745,2.737-4.753l21.74-11.518c4.173-2.157,4.173-4.748,0.141-6.911
    l-8.059-4.32c-4.173-2.157-6.623-1.583-10.797,0.722L22.167,28z"/>
</g>
</svg>
