<?xml version="1.0" encoding="utf-8"?>
<!-- Generator: Adobe Illustrator 16.0.0, SVG Export Plug-In . SVG Version: 6.00 Build 0)  -->
<!DOCTYPE svg PUBLIC "-//W3C//DTD SVG 1.1//EN" "http://www.w3.org/Graphics/SVG/1.1/DTD/svg11.dtd">
<svg version="1.1" id="icon" xmlns="http://www.w3.org/2000/svg" xmlns:xlink="http://www.w3.org/1999/xlink" x="0px" y="0px"
   width="92.072px" height="99.165px" viewBox="0 0 92.072 99.165" enable-background="new 0 0 92.072 99.165" xml:space="preserve">
<g>
  <path d="M53.484,2.34l30.36,16.031c6.384,3.405,8.229,6.384,8.229,13.903V66.89c0,7.519-1.845,10.498-8.229,13.903l-30.36,16.031
    c-5.958,3.121-8.938,3.121-14.896,0L8.229,80.793C1.845,77.388,0,74.409,0,66.89V32.274c0-7.519,1.845-10.498,8.229-13.903
    L38.588,2.34C44.546-0.781,47.526-0.781,53.484,2.34z M43.979,16.953c-1.56,0-2.554,0.709-2.838,2.412L40.29,23.62l-5.391,1.986
    c-0.425-3.263-0.567-6.952-3.405-5.533l-5.249,2.554c-0.709,0.284-1.277,1.135-1.561,1.986l-2.554,9.222
    c-0.567,2.128-0.567,3.404,0.851,4.965l8.229,9.079l-7.235,16.882c-2.128,5.107-2.128,7.377,2.27,9.789l12.059,6.526
    c3.972,2.128,5.674,2.553,7.661,2.553c1.986,0,3.83-0.425,7.802-2.553l11.917-6.526c4.398-2.412,4.54-4.682,2.412-9.789
    l-7.235-16.882L69.09,38.8c1.418-1.561,1.418-2.837,0.851-4.965l-2.554-9.222c-0.284-0.851-0.851-1.561-1.702-1.986l-5.107-2.554
    c-2.696-1.277-2.979,2.27-3.405,5.533l-5.391-1.986l-0.851-4.255c-0.284-1.703-1.277-2.412-2.979-2.412H43.979z"/>
</g>
<g>
</g>
<g>
</g>
<g>
</g>
<g>
</g>
<g>
</g>
<g>
</g>
<g>
</g>
<g>
</g>
<g>
</g>
<g>
</g>
<g>
</g>
<g>
</g>
<g>
</g>
<g>
</g>
<g>
</g>
</svg>
