<?xml version="1.0" encoding="utf-8"?>
<!-- Generator: Adobe Illustrator 16.0.0, SVG Export Plug-In . SVG Version: 6.00 Build 0)  -->
<!DOCTYPE svg PUBLIC "-//W3C//DTD SVG 1.1//EN" "http://www.w3.org/Graphics/SVG/1.1/DTD/svg11.dtd">
<svg version="1.1" id="logo" xmlns="http://www.w3.org/2000/svg" xmlns:xlink="http://www.w3.org/1999/xlink" x="0px" y="0px"
   width="1157.304px" height="100.539px" viewBox="0 0 1157.304 100.539" enable-background="new 0 0 1157.304 100.539"
   xml:space="preserve">
<g>
  <path d="M76.157,68.213c-0.274-7.123-1.644-7.396-14.108-8.218v-2.876h38.353v2.876c-9.725,0.822-11.095,1.096-11.369,8.218
    c-0.137,3.288-0.274,6.438-0.274,9.862c0,6.164,0,11.095,1.232,15.067l-0.274,0.547c-6.164,1.507-12.601,4.247-20.819,5.753
    c-3.699,0.685-8.767,1.096-13.423,1.096C20.135,100.539,0,80.814,0,52.324C0,19.451,23.011,0,51.365,0
    c14.519,0,25.888,3.972,34.243,6.164L87.8,26.847h-3.15C79.582,9.178,68.624,4.383,50.954,4.383
    c-25.203,0-36.709,17.807-36.709,45.612c0,29.449,13.834,46.16,41.777,46.16c4.52,0,9.451-0.411,13.286-1.506
    c6.711-1.917,7.123-6.575,7.123-16.574C76.431,74.65,76.294,71.911,76.157,68.213z"/>
  <path d="M204.64,95.881v2.877h-38.216v-2.877l4.246-0.685c8.082-1.37,9.725-3.288,6.027-11.78l-9.725-22.464H129.03l-4.109,9.863
    c-5.479,13.012-8.081,22.874,2.74,24.381l4.794,0.685v2.877h-31.367v-2.877c8.082-1.232,8.629-3.013,18.217-25.065L149.987,0h2.74
    l34.38,76.158C194.641,92.868,195.051,94.786,204.64,95.881z M164.096,54.653l-16.3-37.531h-0.548l-15.615,37.531H164.096z"/>
  <path d="M330.794,95.607v3.151h-35.476v-3.151c9.451-0.822,11.231-1.096,11.095-8.218c-0.138-7.259-0.412-15.067-0.685-20.957
    l-2.055-50.27h-0.684l-36.846,84.375h-2.739l-36.709-84.375h-0.548l-2.465,42.462c-0.411,5.89-0.822,13.971-0.959,21.231
    c-0.274,11.231,1.644,14.93,13.834,15.751v3.151h-31.093v-3.151c9.451-0.822,10.547-4.52,11.643-15.751
    c0.685-7.26,1.233-15.341,1.644-21.231l1.781-24.245c0.411-5.89,0.959-13.971,1.096-21.231c0.137-7.122-1.644-7.122-11.095-7.944
    V2.055h22.601l35.75,79.582h0.274l34.243-79.582h23.286v3.151c-9.452,0.822-11.095,0.822-11.095,7.944
    c0,7.26,0.548,15.341,0.822,21.231l1.644,32.052c0.274,5.89,0.959,13.697,1.645,20.957
    C320.384,94.512,321.754,94.786,330.794,95.607z"/>
  <path d="M421.884,73.555l-5.89,25.204h-72.459v-3.151c9.451-0.822,10.821-1.096,11.231-8.218c0.411-7.259,0.548-15.341,0.548-21.23
    V34.654c0-5.89-0.137-13.971-0.548-21.23c-0.411-7.123-1.781-7.396-11.231-8.218V2.055h69.993l2.466,21.368h-3.15
    c-4.52-14.245-10.411-17.807-29.039-17.807h-5.752c-3.562,0-7.396,0.137-9.726,0.548c-0.548,2.191-0.684,5.342-0.684,12.054v26.71
    h17.943c11.643,0,13.561-2.055,14.52-11.643h3.15v29.039h-3.15c-0.959-9.588-2.876-11.643-14.52-11.643h-17.943v32.463
    c0,10.547,4.383,12.054,16.162,12.054c23.971,0,29.175-7.671,34.929-21.642H421.884z"/>
  <path d="M522.835,47.393c0,24.518-18.355,41.777-41.914,41.777c-24.382,0-40.545-15.752-40.545-38.764
    c0-24.518,18.492-41.777,42.052-41.777C506.809,8.629,522.835,24.381,522.835,47.393z M470.785,83.006V14.52
    c-12.327,4.52-18.218,17.533-18.218,34.106C452.567,66.295,459.279,78.486,470.785,83.006z M482.016,85.061
    c2.055,0,4.11-0.137,5.89-0.548V13.424c-2.054-0.411-4.382-0.685-6.711-0.685c-2.055,0-4.108,0.137-5.89,0.548v71.089
    C477.36,84.787,479.688,85.061,482.016,85.061z M510.644,49.174c0-17.669-6.712-29.86-18.218-34.38V83.28
    C504.755,78.76,510.644,65.747,510.644,49.174z"/>
  <path d="M588.856,30.271h-2.603c-4.247-13.012-8.63-15.889-23.696-15.889H557.9c-2.877,0-6.026,0.137-7.944,0.411
    c-0.41,1.78-0.548,4.383-0.548,9.862V47.53h14.519c9.588,0,11.096-1.644,11.917-9.451h2.466v24.245h-2.466
    c-0.821-9.177-2.329-10-11.917-10h-14.519v7.671c0,4.794,0.138,11.369,0.41,17.259c0.275,5.89,1.508,6.301,9.178,6.986v3.15
    h-29.587v-3.15c7.672-0.685,8.904-1.096,9.178-6.986c0.274-5.89,0.41-12.465,0.41-17.259V37.942c0-4.794,0-11.231-0.41-17.259
    c-0.41-5.753-1.506-6.164-9.178-6.848v-3.151h57.256L588.856,30.271z"/>
  <path d="M688.163,71.5c0,16.3-13.425,27.258-41.642,27.258h-38.625v-3.151c9.45-0.822,10.821-1.096,11.231-8.218
    c0.41-7.259,0.548-15.341,0.548-21.23V34.654c0-5.89-0.138-13.971-0.548-21.23c-0.41-7.123-1.781-7.396-11.231-8.218V2.055h34.928
    c25.478,0,39.448,6.438,39.448,21.779c0,10.684-7.534,18.492-21.916,21.779v0.274C675.836,47.804,688.163,55.611,688.163,71.5z
     M632.003,18.218v27.806l16.438-0.959c16.71-2.329,20.134-11.78,20.134-20.82c0-13.697-8.765-18.628-26.16-18.628
    c-3.562,0-7.396,0.137-9.726,0.548C632.141,8.355,632.003,11.506,632.003,18.218z M673.917,72.596
    c0-13.287-8.492-23.285-31.641-23.285c-3.287,0-7.396,0.137-10.273,0.274v33.558c0,10.547,4.658,12.054,14.108,12.054
    C666.246,95.197,673.917,87.252,673.917,72.596z"/>
  <path d="M737.063,5.206c-9.451,0.822-10.821,1.096-11.231,8.218c-0.411,7.259-0.548,15.341-0.548,21.23v48.489
    c0,10.547,4.383,12.054,16.162,12.054c21.231,0,26.437-5.616,32.601-20.957h3.149l-6.301,24.519h-69.719v-3.151
    c9.451-0.822,10.821-1.096,11.232-8.218c0.41-7.259,0.548-15.341,0.548-21.23V34.654c0-5.89-0.138-13.971-0.548-21.23
    c-0.411-7.123-1.781-7.396-11.232-8.218V2.055h35.887V5.206z"/>
  <path d="M884.996,48.352c0,30.683-23.012,52.187-52.461,52.187c-30.409,0-50.544-19.724-50.544-48.352
    C781.991,21.505,805.002,0,834.452,0C864.859,0,884.996,19.725,884.996,48.352z M820.618,94.101V6.164
    c-16.712,5.205-24.381,21.642-24.381,43.832C796.237,73.418,805.002,88.759,820.618,94.101z M834.041,96.155
    c2.603,0,4.931-0.137,7.26-0.548V5.068c-2.602-0.411-5.479-0.685-8.355-0.685c-2.604,0-4.931,0.137-7.259,0.548v90.539
    C828.288,95.881,831.165,96.155,834.041,96.155z M870.75,50.543c0-23.422-8.766-38.764-24.382-44.105v87.937
    C863.08,89.17,870.75,72.733,870.75,50.543z"/>
  <path d="M980.742,94.238c-8.492,2.329-19.724,6.301-31.778,6.301c-30.134,0-50.269-19.724-50.269-48.215
    C898.695,20.135,920.338,0,948.279,0c13.423,0,24.792,3.972,33.148,6.301l2.327,21.916h-3.149
    c-5.206-19.039-16.162-23.833-32.326-23.833c-23.834,0-35.339,17.122-35.339,45.612c0,29.449,13.834,46.16,36.023,46.16
    c14.656,0,25.203-5.205,34.381-24.518h3.151L980.742,94.238z"/>
  <path d="M1093.335,95.607v3.151h-38.215v-3.151l4.245-0.411c6.714-0.685,5.616-3.014-2.602-13.697
    c-6.026-7.808-12.737-16.026-18.766-23.148c-5.616-6.712-8.218-7.123-15.752-6.164v13.972c0,5.89,0.138,13.971,0.548,21.23
    c0.41,7.123,1.781,7.396,11.231,8.218v3.151H998.14v-3.151c9.45-0.822,10.821-1.096,11.231-8.218
    c0.41-7.259,0.548-15.341,0.548-21.23V34.654c0-5.89-0.138-13.971-0.548-21.23c-0.41-7.123-1.781-7.396-11.231-8.218V2.055h35.886
    v3.151c-9.45,0.822-10.821,1.096-11.231,8.218c-0.41,7.259-0.548,15.341-0.548,21.23v13.423c7.122-1.096,8.903-2.054,16.438-9.314
    l9.45-9.177c9.726-9.451,16.438-16.985,16.438-20.135c0-2.466-1.917-3.15-7.397-3.835l-3.012-0.411V2.055h34.518v3.151
    c-7.81,0.958-10.411,2.602-20.274,11.916l-28.489,26.984c2.739,1.506,6.574,5.205,9.589,8.766
    c7.259,8.903,21.367,26.573,29.037,35.613C1082.926,93.553,1086.213,94.649,1093.335,95.607z"/>
  <path d="M1114.158,18.492c0,26.436,43.146,23.422,43.146,54.652c0,18.628-15.477,27.395-29.585,27.395
    c-10.548,0-19.313-4.383-26.162-6.301l-2.191-19.176h3.149c4.795,14.382,13.149,21.093,24.108,21.093
    c12.737,0,19.997-4.52,19.997-17.943c0-26.573-43.146-23.422-43.146-54.652c0-13.286,10.546-23.56,24.654-23.56
    c9.451,0,18.218,4.383,25.067,6.301l2.054,17.806h-3.149c-4.248-13.012-13.013-19.724-23.561-19.724
    C1118.951,4.383,1114.158,9.588,1114.158,18.492z"/>
</g>
<g>
</g>
<g>
</g>
<g>
</g>
<g>
</g>
<g>
</g>
<g>
</g>
<g>
</g>
<g>
</g>
<g>
</g>
<g>
</g>
<g>
</g>
<g>
</g>
<g>
</g>
<g>
</g>
<g>
</g>
</svg>
