<?xml version="1.0" encoding="utf-8"?>
<!-- Generator: Adobe Illustrator 16.0.0, SVG Export Plug-In . SVG Version: 6.00 Build 0)  -->
<!DOCTYPE svg PUBLIC "-//W3C//DTD SVG 1.1//EN" "http://www.w3.org/Graphics/SVG/1.1/DTD/svg11.dtd">
<svg version="1.1" id="logo" xmlns="http://www.w3.org/2000/svg" xmlns:xlink="http://www.w3.org/1999/xlink" x="0px" y="0px"
   width="998.324px" height="100.846px" viewBox="0 0 998.324 100.846" enable-background="new 0 0 998.324 100.846"
   xml:space="preserve">
<g>
  <path d="M52.127,1.228c6.696-2.232,10.416-1.19,13.69,5.208l5.208,10.268c2.53,5.059-0.149,8.035-5.952,9.97l-28.57,9.226
    c-3.72,1.19-4.911,3.273-5.059,6.696l-1.19,19.047c-0.298,3.72,1.042,5.952,4.315,7.738l5.952,3.423
    c2.678,1.488,4.762,1.785,7.886,0.744l4.762-1.637c4.018-1.339,4.762-2.53,4.613-6.547L57.335,53.16
    c-0.148-3.869,1.637-5.803,5.506-6.994l15.625-4.911c5.208-1.637,7.292,0.596,7.589,5.506l2.232,30.951
    c0.595,7.589-2.529,10.268-9.077,12.5L55.4,98.545c-8.928,3.125-14.88,3.422-23.213-1.339L8.23,83.368
    c-5.803-3.274-8.631-7.292-8.184-13.839l2.678-40.772c0.595-8.482,3.125-12.053,11.16-14.732L52.127,1.228z"/>
  <path d="M178.166,83.814l-13.839,3.125c-4.167,0.893-8.333-1.339-9.226-5.506l-2.53-11.607l-26.338,0.744l-2.53,10.565
    c-1.042,4.315-5.208,6.398-9.375,5.505l-11.458-2.53c-4.167-0.893-6.696-5.059-5.506-9.226l16.964-62.349
    c0.744-2.976,3.422-5.06,6.547-5.208l39.135-1.339c3.273-0.149,6.25,1.934,7.143,5.208l16.517,63.242
    C184.713,78.606,182.332,82.921,178.166,83.814z M147.958,48.101l-3.869-18.303l-8.036,0.297l-4.464,18.452L147.958,48.101z"/>
  <path d="M302.417,13.43l4.762,63.688c0.447,5.506-2.53,7.738-6.845,8.184l-11.161,1.042c-5.952,0.446-9.523-1.488-9.821-7.143
    l-2.083-38.838h-2.976L258.372,69.38c-1.488,2.679-3.273,3.125-5.654,3.125h-6.101c-2.381,0-4.167-0.446-5.654-3.125L225.04,40.363
    h-2.976l-2.083,38.689c-0.298,5.803-3.869,7.738-9.97,7.143l-8.929-0.893c-4.166-0.446-7.143-2.678-6.696-8.035l4.911-63.242
    c0.297-4.018,3.125-6.547,6.994-6.696l24.85-0.893c2.827-0.149,5.357,1.488,6.547,4.018l11.309,25.743h2.976L264.771,10.9
    c1.042-2.232,3.273-3.423,5.654-3.571l24.255-0.744C298.846,6.436,302.12,9.114,302.417,13.43z"/>
  <path d="M375.632,84.855l-46.575,1.339c-4.464,0.149-8.036-3.274-7.887-9.226l1.786-59.819c0.149-5.655,2.976-8.779,7.143-8.928
    l44.938-1.935c4.167-0.148,7.44,2.827,7.738,6.994l0.595,8.481c0.298,4.762-3.125,8.185-7.738,8.185l-26.487,0.148l-0.595,11.012
    l22.023-0.893c4.464-0.149,6.25,1.042,6.398,6.101s-1.637,6.398-6.101,6.398l-22.916,0.149l-0.595,9.672l30.356-0.893
    c5.803-0.149,7.589,1.488,7.886,6.994l0.298,8.185C386.197,81.433,383.072,84.707,375.632,84.855z"/>
  <path d="M440.81,12.388l20.386,10.417c5.804,2.976,7.143,5.952,7.143,11.458v23.511c0,5.506-1.339,8.481-7.143,11.458
    L440.81,79.647c-5.506,2.827-7.589,2.827-13.095,0l-20.386-10.416c-5.803-2.977-7.143-5.952-7.143-11.458V34.262
    c0-5.505,1.339-8.482,7.143-11.458l20.386-10.417C433.22,9.561,435.304,9.561,440.81,12.388z M432.328,34.411l-6.696,4.018
    c-1.19,0.744-2.083,2.232-2.083,3.571v8.036c0,1.339,0.893,2.827,2.083,3.571l6.696,4.018c1.19,0.744,2.678,0.744,3.869,0
    l6.696-4.018c1.19-0.744,2.083-2.232,2.083-3.571V42c0-1.339-0.893-2.827-2.083-3.571l-6.696-4.018
    C435.006,33.667,433.518,33.667,432.328,34.411z"/>
  <path d="M503.605,33.667v9.375l11.458-0.596c4.464-0.148,8.035,1.637,8.035,7.589v3.273c0,5.803-3.273,7.738-7.589,7.738
    l-11.904,0.149v10.863c0,4.018-2.976,7.143-6.845,7.44l-10.565,0.744c-4.762,0.297-8.481-2.976-8.481-7.738V21.019
    c0-4.166,2.976-7.291,7.143-7.44l34.671-1.488c4.167-0.149,7.292,2.678,7.738,6.845l0.595,6.25c0.446,4.91-2.976,8.481-7.737,8.481
    H503.605z"/>
  <path d="M619.376,58.815v12.648c0,5.059-1.637,6.994-5.654,8.63l-22.023,9.077c-4.613,1.935-8.779,2.827-14.583,1.19l-24.701-6.845
    c-3.571-1.042-5.804-3.72-5.804-7.292V32.03l-4.018-6.398c-3.273-5.06-1.19-11.012,4.613-12.946l27.38-8.481
    c8.481-2.827,13.095-2.381,18.154,0.595l17.261,9.97c2.232,1.19,3.423,3.571,3.423,5.952v13.541c0,4.167-2.232,5.952-6.696,7.292
    l-12.5,3.571v1.637l18.898,4.911C617.59,52.863,619.376,55.095,619.376,58.815z M572.056,29.352v11.012l13.839-4.464
    c2.827-0.893,3.274-1.637,3.274-2.977c0-1.785-0.447-2.083-4.911-4.315c-3.125-1.488-4.464-1.935-6.696-1.042L572.056,29.352z
     M593.483,60.898c0-2.381-1.041-2.828-4.018-3.72l-17.41-5.208v8.78c0,3.72,1.488,4.762,5.804,5.952
    c4.167,1.042,5.804,1.042,9.375-0.447C592.74,63.874,593.483,62.981,593.483,60.898z"/>
  <path d="M638.276,8.073l12.5-0.595c4.612-0.148,8.184,3.125,8.184,7.738v45.236l14.285-0.595c4.465-0.148,7.887,2.976,8.035,7.589
    l0.149,9.672c0.148,4.315-2.977,7.589-7.292,7.738l-34.969,1.19c-4.464,0.149-7.887-3.273-7.887-7.738V15.513
    C631.282,11.495,634.259,8.222,638.276,8.073z"/>
  <path d="M737.082,2.121l27.082,14.285c5.804,2.976,7.143,5.208,7.143,10.714v33.927c0,5.506-1.339,7.738-7.143,10.714
    l-27.082,14.285c-5.506,2.827-7.589,2.827-13.095,0l-27.082-14.285c-5.804-2.976-7.143-5.208-7.143-10.714V27.12
    c0-5.505,1.339-7.738,7.143-10.714l27.082-14.285C729.493-0.707,731.576-0.707,737.082,2.121z M728.005,26.673l-9.97,5.208
    c-1.935,1.19-2.976,3.125-2.976,5.06v14.285c0,2.083,1.19,4.018,3.125,5.059l9.82,5.06c1.637,0.744,3.423,0.744,5.06,0l9.97-5.06
    c1.935-1.042,2.977-2.976,2.977-5.059V36.941c0-1.935-1.042-3.869-2.977-5.06l-9.97-5.208
    C731.278,25.78,729.791,25.78,728.005,26.673z"/>
  <path d="M835.145,26.227l-24.255,9.226v19.642l24.553,9.077c4.315,1.637,5.803,6.25,3.571,10.268l-5.952,10.714
    c-2.232,4.018-6.548,5.357-10.416,3.571l-31.845-14.88c-4.464-2.083-6.101-4.613-6.101-8.631V24.441
    c0-4.167,1.488-6.696,6.25-8.631l33.778-13.839c4.018-1.637,8.779-0.297,10.268,3.72l3.868,10.417
    C840.353,20.126,839.162,24.739,835.145,26.227z"/>
  <path d="M922.343,24.739l-21.279,19.642l23.362,23.66c4.018,4.166,4.613,8.928-0.298,12.053l-10.564,6.696
    c-4.315,2.679-8.482,2.083-11.607-1.935l-22.022-27.826h-2.976v23.064c0,5.06-2.977,7.143-8.482,7.44l-9.523,0.595
    c-4.613,0.297-8.184-3.125-8.184-7.738V14.025c0-4.018,2.976-7.292,6.993-7.44l11.012-0.595c4.612-0.298,8.185,3.125,8.185,7.738
    v19.344h2.976L902.85,6.882c2.529-2.827,6.249-3.422,9.821-0.744l8.928,6.696C926.956,16.853,926.658,20.87,922.343,24.739z"/>
  <path d="M967.58,62.535l-25.297-3.869c-7.291-1.19-9.97-4.613-9.374-10.862l1.785-22.172c0.596-6.845,2.977-9.97,10.119-12.648
    L977.848,0.93c4.166-1.488,8.333,0.447,9.821,4.613l3.72,10.565c1.488,4.167-0.744,8.333-4.762,9.672l-24.255,8.185v2.976
    l25.147,3.571c4.762,0.595,6.548,3.571,6.994,6.994l3.72,29.91c0.596,4.613-1.785,7.143-6.101,8.482l-46.278,14.583
    c-4.166,1.339-8.333-0.744-9.672-5.059l-3.571-11.756c-1.339-4.167,1.042-8.184,5.208-9.375l29.761-8.779V62.535z"/>
</g>
<g>
</g>
<g>
</g>
<g>
</g>
<g>
</g>
<g>
</g>
<g>
</g>
<g>
</g>
<g>
</g>
<g>
</g>
<g>
</g>
<g>
</g>
<g>
</g>
<g>
</g>
<g>
</g>
<g>
</g>
</svg>
