<?xml version="1.0" encoding="utf-8"?>
<!-- Generator: Adobe Illustrator 21.0.2, SVG Export Plug-In . SVG Version: 6.00 Build 0)  -->
<svg version="1.1" id="logo" xmlns="http://www.w3.org/2000/svg" xmlns:xlink="http://www.w3.org/1999/xlink" x="0px" y="0px"
   viewBox="0 0 990.9 93.1" Content-Type="text/xml" style="enable-background:new 0 0 990.9 93.1;" xml:space="preserve">
<g>
  <path d="M46.8,91.2c-26.9,0-45.9-19.7-45.9-44.5C0.9,21.8,20.4,2,45.8,2C56,2,66.5,3.9,75.1,8.7v14.7c-10.3-6.2-20.1-8.8-29.3-8.8
    c-18,0-31.3,13.8-31.3,32c0,18.1,13.1,31.9,31.7,31.9c5.7,0,12.8-0.8,18.1-2.7l-1-28.3h13.6v38.2C67.9,89.7,56.4,91.2,46.8,91.2z"
    />
  <path d="M147.2,71h-40.4l-9,18.7H83.3L126.4,2h1.3l43.1,87.7h-14.6L147.2,71z M141.1,58.6l-13.8-28.7h-0.5L113,58.6H141.1z"/>
  <path d="M289.5,89.7h-13.6l-10.4-52.2H265l-31,52.2h-1.3l-31.1-52.2h-0.5l-10.4,52.2h-13.6L195,2h1.3l36.9,63.7h0.5L270.5,2h1.3
    L289.5,89.7z"/>
  <path d="M359.7,76.7v12.9h-51V3.5h49.1v12.9l-36-0.8v24.2l32.2-0.8v13.5l-32.2-0.8v25.8L359.7,76.7z"/>
  <path d="M439.5,66l-22.2,13.2c-4.2,2.5-6.2,2.5-10.5,0L384.6,66c-4.6-2.7-5.8-4.7-5.8-10.2V31.9c0-5.2,1.4-7.1,5.8-9.8l22.2-13.3
    c4.2-2.5,6.3-2.4,10.5,0l22.2,12.9c4.6,2.7,6,4.9,6,10.2v23.9C445.5,61.3,444.2,63.2,439.5,66z M432.7,36.1c0-3.4-0.8-4.3-3.7-6.1
    l-13.6-8.4c-2.4-1.5-4.2-1.4-6.5,0L395.1,30c-2.7,1.6-3.6,2.7-3.6,6.1V52c0,3,0.8,4.4,3.6,6.1l13.8,8.1c2.3,1.4,3.9,1.6,6.5,0
    l13.6-8.1c2.9-1.8,3.7-3,3.7-6.1V36.1z"/>
  <path d="M472.9,21.7v20.6l27.5-0.8v12.9l-27.5-0.8v25.8h-12.7V10h43.4v12.4L472.9,21.7z"/>
  <path d="M590.5,66.7c0,11.3-9.6,23-28.4,23H531V3.5h28.6c18.8,0,28.4,11,28.4,22.3c0,9.1-4.3,16-12.4,19.5
    C585.3,48.7,590.5,56.1,590.5,66.7z M544.1,16v23.7h14.5c10.2,0,15.7-4.8,15.7-11.8c0-6.9-5.2-11.9-15.7-11.9H544.1z M576.8,64.7
    c0-7.7-5.6-12.6-15.7-12.6h-17V77l17,0.8C571.6,78.1,576.8,71.5,576.8,64.7z"/>
  <path d="M654.4,76.7v12.9h-45.9V3.5h13.1v74L654.4,76.7z"/>
  <path d="M748.2,31.6v30c0,6.7-1.8,9-7.5,12.4l-28,16.8c-5.3,3.2-8,3.2-13.3,0L671.1,74c-5.6-3.3-7.4-5.7-7.4-12.4v-30
    c0-6.7,1.8-9.1,7.4-12.4l28.2-16.8c5.3-3.2,8-3.2,13.3,0l28,16.8C746.4,22.6,748.2,24.8,748.2,31.6z M681.9,65.5l12.1,7.4V20.3
    l-12.1,7.4c-3.8,2.3-5.1,3.9-5.1,8.6v20.6C676.8,61.5,678.1,63.2,681.9,65.5z M712.9,75.9V17.2l-2.3-1.4c-3.4-2-5.7-2.2-9.3,0
    l-2.3,1.4v58.6l2.3,1.4c3.6,2.2,5.8,2,9.3,0L712.9,75.9z M735.1,36.3c0-4.7-1.3-6.2-5.2-8.6L718,20.3v52.5l11.9-7.4
    c3.9-2.4,5.2-3.9,5.2-8.6V36.3z"/>
  <path d="M778.8,46.7c0,18,12.7,31.9,31.3,31.9c8.6,0,16.9-2.5,26.1-8.8v14.7c-7.6,4.8-16.6,6.7-26.1,6.7c-26,0-44.9-19.8-44.9-44.5
    c0-24.9,18.9-44.7,44.9-44.7c9.5,0,17.3,1.9,24.9,6.7v14.7c-9.3-6.2-16.2-8.8-24.9-8.8C791.4,14.7,778.8,28.5,778.8,46.7z"/>
  <path d="M852.9,89.7V3.5h13.1v86.2H852.9z M931.8,3.5l-45.4,41.2L930,89.7h-18.7l-42.3-44.2v-1.3l43.4-40.7H931.8z"/>
  <path d="M977.9,67.7c0-18.1-38.6-16.9-38.6-43c0-14.3,11.5-22.7,24.9-22.7c8.8,0,15.9,1.9,23.5,6.7v14.7c-9.3-6.2-15-8.8-24.1-8.8
    c-6.6,0-11.2,2.9-11.2,8.6c0,16.1,38.6,15.5,38.6,43c0,14.7-10.9,24.9-28.8,24.9c-9.4,0-17-1.9-24.6-6.7V69.8
    c9.3,6.2,16.8,8.8,25.3,8.8C971,78.5,977.9,75.2,977.9,67.7z"/>
</g>
</svg>
